<svg width="829" height="610" viewBox="0 0 829 610" fill="none" xmlns="http://www.w3.org/2000/svg">
<path d="M156 12.5C156 6.42486 160.925 1.5 167 1.5H830.912V608.283H167C160.925 608.283 156 603.358 156 597.283V12.5Z" fill="url(#paint0_linear_1619_5742)" stroke="white" stroke-width="2"/>
<path d="M245.668 42.1624C245.668 34.6687 251.743 28.5938 259.237 28.5938H830.824V568.404H259.237C251.743 568.404 245.668 562.329 245.668 554.836V42.1624Z" fill="white"/>
<path d="M262.68 56.763C262.68 49.2693 268.755 43.1943 276.248 43.1943H830.822V551.647H276.248C268.755 551.647 262.68 545.573 262.68 538.079V56.763Z" fill="#F9FAFB"/>
<rect x="315.297" y="89.2617" width="462.907" height="12.0697" rx="6.03484" fill="#D1D5DB"/>
<rect x="315.297" y="116.031" width="99.9355" height="12.0697" rx="6.03484" fill="#D1D5DB"/>
<rect x="424.277" y="116.031" width="239.256" height="12.0697" rx="6.03484" fill="#D1D5DB"/>
<rect x="672.578" y="116.031" width="105.44" height="12.0697" rx="6.03484" fill="#D1D5DB"/>
<rect x="315.297" y="142.8" width="462.907" height="12.0697" rx="6.03484" fill="#D1D5DB"/>
<rect x="315.297" y="169.569" width="299.398" height="12.0697" rx="6.03484" fill="#D1D5DB"/>
<rect x="623.742" y="169.569" width="154.279" height="12.0697" rx="6.03484" fill="#D1D5DB"/>
<rect x="315.297" y="196.338" width="176.112" height="12.0697" rx="6.03484" fill="#D1D5DB"/>
<rect x="315.297" y="249.408" width="462.907" height="12.0697" rx="6.03484" fill="#93C5FD"/>
<rect x="315.297" y="276.177" width="164.031" height="12.0697" rx="6.03484" fill="#93C5FD"/>
<rect x="488.375" y="276.177" width="289.646" height="12.0697" rx="6.03484" fill="#67E8F9"/>
<rect x="315.297" y="302.946" width="462.907" height="12.0697" rx="6.03484" fill="#67E8F9"/>
<rect x="315.297" y="329.715" width="299.398" height="12.0697" rx="6.03484" fill="#93C5FD"/>
<rect x="623.742" y="329.715" width="154.279" height="12.0697" rx="6.03484" fill="#93C5FD"/>
<rect x="315.297" y="356.484" width="176.112" height="12.0697" rx="6.03484" fill="#93C5FD"/>
<rect x="315.297" y="409.553" width="370.914" height="12.0697" rx="6.03484" fill="#D1D5DB"/>
<rect x="695.258" y="409.553" width="82.7636" height="12.0697" rx="6.03484" fill="#D1D5DB"/>
<rect x="315.297" y="436.323" width="164.031" height="12.0697" rx="6.03484" fill="#D1D5DB"/>
<rect x="488.375" y="436.323" width="289.646" height="12.0697" rx="6.03484" fill="#D1D5DB"/>
<rect x="315.297" y="463.092" width="462.907" height="12.0697" rx="6.03484" fill="#D1D5DB"/>
<rect x="315.297" y="489.861" width="299.398" height="12.0697" rx="6.03484" fill="#D1D5DB"/>
<g filter="url(#filter0_d_1619_5742)">
<rect x="17.9766" y="249.015" width="280" height="66" rx="5" fill="url(#paint1_linear_1619_5742)"/>
<path d="M43.3046 289.015V277.095H47.5126C48.3019 277.095 48.9952 277.244 49.5926 277.543C50.1899 277.841 50.6539 278.268 50.9846 278.823C51.3259 279.377 51.4966 280.028 51.4966 280.775C51.4966 281.521 51.3259 282.172 50.9846 282.727C50.6539 283.271 50.1899 283.697 49.5926 284.007C49.0059 284.305 48.3126 284.455 47.5126 284.455H44.8726V289.015H43.3046ZM44.8726 283.015H47.5606C48.0406 283.015 48.4566 282.924 48.8086 282.743C49.1606 282.561 49.4326 282.3 49.6246 281.959C49.8166 281.617 49.9126 281.223 49.9126 280.775C49.9126 280.316 49.8166 279.921 49.6246 279.591C49.4326 279.249 49.1606 278.988 48.8086 278.807C48.4566 278.625 48.0406 278.535 47.5606 278.535H44.8726V283.015ZM53.3771 289.015V276.903H54.8651V289.015H53.3771ZM59.6379 289.207C59.0726 289.207 58.5713 289.105 58.1339 288.903C57.7073 288.689 57.3713 288.401 57.1259 288.039C56.8806 287.665 56.7579 287.239 56.7579 286.759C56.7579 286.3 56.8539 285.889 57.0459 285.527C57.2486 285.153 57.5579 284.839 57.9739 284.583C58.4006 284.327 58.9339 284.145 59.5739 284.039L62.7739 283.511V284.759L59.9099 285.239C59.3553 285.335 58.9499 285.511 58.6939 285.767C58.4486 286.023 58.3259 286.337 58.3259 286.711C58.3259 287.063 58.4646 287.356 58.7419 287.591C59.0299 287.825 59.3873 287.943 59.8139 287.943C60.3579 287.943 60.8273 287.831 61.2219 287.607C61.6273 287.372 61.9419 287.057 62.1659 286.663C62.4006 286.268 62.5179 285.831 62.5179 285.351V283.159C62.5179 282.689 62.3419 282.311 61.9899 282.023C61.6486 281.724 61.1953 281.575 60.6299 281.575C60.1393 281.575 59.7019 281.703 59.3179 281.959C58.9446 282.204 58.6673 282.535 58.4859 282.951L57.1899 282.279C57.3499 281.884 57.6059 281.532 57.9579 281.223C58.3099 280.903 58.7206 280.652 59.1899 280.471C59.6593 280.289 60.1499 280.199 60.6619 280.199C61.3233 280.199 61.9046 280.327 62.4059 280.583C62.9073 280.828 63.2966 281.175 63.5739 281.623C63.8619 282.06 64.0059 282.572 64.0059 283.159V289.015H62.5499V287.383L62.8219 287.479C62.6406 287.82 62.3953 288.119 62.0859 288.375C61.7766 288.631 61.4139 288.833 60.9979 288.983C60.5819 289.132 60.1286 289.207 59.6379 289.207ZM70.3611 292.535C69.7531 292.535 69.1877 292.439 68.6651 292.247C68.1531 292.055 67.7104 291.788 67.3371 291.447C66.9744 291.116 66.6971 290.727 66.5051 290.279L67.8971 289.639C68.0464 290.044 68.3291 290.385 68.7451 290.663C69.1717 290.951 69.7051 291.095 70.3451 291.095C70.8357 291.095 71.2784 290.999 71.6731 290.807C72.0784 290.625 72.3984 290.348 72.6331 289.975C72.8677 289.612 72.9851 289.169 72.9851 288.647V286.711L73.2571 286.999C72.9584 287.585 72.5264 288.033 71.9611 288.343C71.4064 288.652 70.7931 288.807 70.1211 288.807C69.3104 288.807 68.5851 288.62 67.9451 288.247C67.3051 287.863 66.8037 287.345 66.4411 286.695C66.0784 286.033 65.8971 285.303 65.8971 284.503C65.8971 283.692 66.0784 282.961 66.4411 282.311C66.8037 281.66 67.2997 281.148 67.9291 280.775C68.5691 280.391 69.2944 280.199 70.1051 280.199C70.7771 280.199 71.3851 280.353 71.9291 280.663C72.4837 280.961 72.9264 281.377 73.2571 281.911L73.0331 282.311V280.391H74.4891V288.647C74.4891 289.393 74.3131 290.06 73.9611 290.647C73.6091 291.233 73.1184 291.692 72.4891 292.023C71.8704 292.364 71.1611 292.535 70.3611 292.535ZM70.2491 287.367C70.7611 287.367 71.2197 287.239 71.6251 286.983C72.0411 286.727 72.3717 286.385 72.6171 285.959C72.8624 285.521 72.9851 285.036 72.9851 284.503C72.9851 283.98 72.8624 283.5 72.6171 283.063C72.3717 282.625 72.0411 282.279 71.6251 282.023C71.2197 281.767 70.7611 281.639 70.2491 281.639C69.7264 281.639 69.2517 281.767 68.8251 282.023C68.3984 282.279 68.0624 282.625 67.8171 283.063C67.5824 283.489 67.4651 283.969 67.4651 284.503C67.4651 285.036 67.5824 285.521 67.8171 285.959C68.0624 286.385 68.3931 286.727 68.8091 286.983C69.2357 287.239 69.7157 287.367 70.2491 287.367ZM76.7319 289.015V280.391H78.2199V289.015H76.7319ZM76.7319 279.015V277.095H78.2199V279.015H76.7319ZM82.9928 289.207C82.4275 289.207 81.9261 289.105 81.4888 288.903C81.0621 288.689 80.7261 288.401 80.4808 288.039C80.2355 287.665 80.1128 287.239 80.1128 286.759C80.1128 286.3 80.2088 285.889 80.4008 285.527C80.6035 285.153 80.9128 284.839 81.3288 284.583C81.7555 284.327 82.2888 284.145 82.9288 284.039L86.1288 283.511V284.759L83.2648 285.239C82.7101 285.335 82.3048 285.511 82.0488 285.767C81.8035 286.023 81.6808 286.337 81.6808 286.711C81.6808 287.063 81.8195 287.356 82.0968 287.591C82.3848 287.825 82.7421 287.943 83.1688 287.943C83.7128 287.943 84.1821 287.831 84.5768 287.607C84.9821 287.372 85.2968 287.057 85.5208 286.663C85.7555 286.268 85.8728 285.831 85.8728 285.351V283.159C85.8728 282.689 85.6968 282.311 85.3448 282.023C85.0035 281.724 84.5501 281.575 83.9848 281.575C83.4941 281.575 83.0568 281.703 82.6728 281.959C82.2995 282.204 82.0221 282.535 81.8408 282.951L80.5448 282.279C80.7048 281.884 80.9608 281.532 81.3128 281.223C81.6648 280.903 82.0755 280.652 82.5448 280.471C83.0141 280.289 83.5048 280.199 84.0168 280.199C84.6781 280.199 85.2595 280.327 85.7608 280.583C86.2621 280.828 86.6515 281.175 86.9288 281.623C87.2168 282.06 87.3608 282.572 87.3608 283.159V289.015H85.9048V287.383L86.1768 287.479C85.9955 287.82 85.7501 288.119 85.4408 288.375C85.1315 288.631 84.7688 288.833 84.3528 288.983C83.9368 289.132 83.4835 289.207 82.9928 289.207ZM89.6039 289.015V280.391H91.0599V281.975L90.8999 281.751C91.1026 281.26 91.4119 280.897 91.8279 280.663C92.2439 280.417 92.7506 280.295 93.3479 280.295H93.8759V281.703H93.1239C92.5159 281.703 92.0253 281.895 91.6519 282.279C91.2786 282.652 91.0919 283.185 91.0919 283.879V289.015H89.6039ZM95.1337 289.015V280.391H96.6217V289.015H95.1337ZM95.1337 279.015V277.095H96.6217V279.015H95.1337ZM101.955 289.207C101.091 289.207 100.339 288.993 99.6986 288.567C99.0586 288.14 98.6052 287.564 98.3386 286.839L99.5226 286.263C99.7679 286.775 100.104 287.18 100.531 287.479C100.957 287.777 101.432 287.927 101.955 287.927C102.424 287.927 102.813 287.815 103.123 287.591C103.432 287.367 103.587 287.073 103.587 286.711C103.587 286.455 103.512 286.252 103.363 286.103C103.224 285.943 103.053 285.82 102.851 285.735C102.648 285.639 102.461 285.569 102.291 285.527L100.995 285.159C100.216 284.935 99.6452 284.615 99.2826 284.199C98.9306 283.783 98.7546 283.297 98.7546 282.743C98.7546 282.231 98.8826 281.788 99.1386 281.415C99.4052 281.031 99.7626 280.732 100.211 280.519C100.669 280.305 101.181 280.199 101.747 280.199C102.504 280.199 103.181 280.391 103.779 280.775C104.387 281.159 104.819 281.697 105.075 282.391L103.859 282.951C103.667 282.503 103.379 282.151 102.995 281.895C102.611 281.628 102.179 281.495 101.699 281.495C101.261 281.495 100.915 281.607 100.659 281.831C100.403 282.044 100.275 282.316 100.275 282.647C100.275 282.892 100.339 283.095 100.467 283.255C100.595 283.404 100.749 283.521 100.931 283.607C101.112 283.681 101.288 283.745 101.459 283.799L102.867 284.215C103.571 284.417 104.115 284.732 104.499 285.159C104.893 285.585 105.091 286.097 105.091 286.695C105.091 287.175 104.957 287.607 104.691 287.991C104.424 288.375 104.056 288.673 103.587 288.887C103.117 289.1 102.573 289.207 101.955 289.207ZM106.974 289.015V280.391H108.43V282.151L108.222 281.879C108.436 281.335 108.777 280.919 109.246 280.631C109.716 280.343 110.244 280.199 110.83 280.199C111.502 280.199 112.105 280.385 112.638 280.759C113.182 281.132 113.556 281.623 113.758 282.231L113.342 282.247C113.566 281.575 113.945 281.068 114.478 280.727C115.012 280.375 115.604 280.199 116.254 280.199C116.852 280.199 117.39 280.337 117.87 280.615C118.361 280.892 118.75 281.276 119.038 281.767C119.326 282.257 119.47 282.812 119.47 283.431V289.015H117.966V283.911C117.966 283.431 117.881 283.025 117.71 282.695C117.54 282.364 117.305 282.108 117.006 281.927C116.718 281.735 116.377 281.639 115.982 281.639C115.598 281.639 115.252 281.735 114.942 281.927C114.644 282.108 114.404 282.369 114.222 282.711C114.052 283.041 113.966 283.441 113.966 283.911V289.015H112.462V283.911C112.462 283.431 112.377 283.025 112.206 282.695C112.036 282.364 111.801 282.108 111.502 281.927C111.214 281.735 110.873 281.639 110.478 281.639C110.094 281.639 109.748 281.735 109.438 281.927C109.14 282.108 108.9 282.369 108.718 282.711C108.548 283.041 108.462 283.441 108.462 283.911V289.015H106.974ZM129.885 289.207C129.043 289.207 128.264 289.057 127.549 288.759C126.845 288.449 126.227 288.017 125.693 287.463C125.171 286.908 124.765 286.257 124.477 285.511C124.189 284.764 124.045 283.948 124.045 283.063C124.045 282.167 124.189 281.345 124.477 280.599C124.765 279.852 125.171 279.201 125.693 278.647C126.216 278.092 126.835 277.665 127.549 277.367C128.264 277.057 129.043 276.903 129.885 276.903C130.707 276.903 131.443 277.047 132.093 277.335C132.755 277.623 133.309 277.996 133.757 278.455C134.216 278.913 134.541 279.404 134.733 279.927L133.293 280.583C133.016 279.921 132.584 279.388 131.997 278.983C131.411 278.567 130.707 278.359 129.885 278.359C129.053 278.359 128.312 278.556 127.661 278.951C127.021 279.345 126.52 279.895 126.157 280.599C125.795 281.303 125.613 282.124 125.613 283.063C125.613 283.991 125.795 284.807 126.157 285.511C126.52 286.215 127.021 286.764 127.661 287.159C128.312 287.553 129.053 287.751 129.885 287.751C130.707 287.751 131.411 287.548 131.997 287.143C132.584 286.727 133.016 286.188 133.293 285.527L134.733 286.183C134.541 286.705 134.216 287.196 133.757 287.655C133.309 288.113 132.755 288.487 132.093 288.775C131.443 289.063 130.707 289.207 129.885 289.207ZM136.626 289.015V276.903H138.114V282.071L137.842 281.927C138.056 281.383 138.397 280.961 138.866 280.663C139.346 280.353 139.906 280.199 140.546 280.199C141.165 280.199 141.714 280.337 142.194 280.615C142.685 280.892 143.069 281.276 143.346 281.767C143.634 282.257 143.778 282.812 143.778 283.431V289.015H142.274V283.911C142.274 283.431 142.184 283.025 142.002 282.695C141.832 282.364 141.592 282.108 141.282 281.927C140.973 281.735 140.616 281.639 140.21 281.639C139.816 281.639 139.458 281.735 139.138 281.927C138.818 282.108 138.568 282.369 138.386 282.711C138.205 283.041 138.114 283.441 138.114 283.911V289.015H136.626ZM149.811 289.207C148.979 289.207 148.238 289.009 147.587 288.615C146.937 288.22 146.425 287.681 146.051 286.999C145.678 286.305 145.491 285.532 145.491 284.679C145.491 283.815 145.673 283.047 146.035 282.375C146.409 281.703 146.91 281.175 147.539 280.791C148.179 280.396 148.894 280.199 149.683 280.199C150.323 280.199 150.889 280.316 151.379 280.551C151.881 280.775 152.302 281.084 152.643 281.479C152.995 281.863 153.262 282.305 153.443 282.807C153.635 283.297 153.731 283.809 153.731 284.343C153.731 284.46 153.721 284.593 153.699 284.743C153.689 284.881 153.673 285.015 153.651 285.143H146.579V283.863H152.787L152.083 284.439C152.179 283.884 152.126 283.388 151.923 282.951C151.721 282.513 151.422 282.167 151.027 281.911C150.633 281.655 150.185 281.527 149.683 281.527C149.182 281.527 148.723 281.655 148.307 281.911C147.891 282.167 147.566 282.535 147.331 283.015C147.107 283.484 147.017 284.044 147.059 284.695C147.017 285.324 147.113 285.879 147.347 286.359C147.593 286.828 147.934 287.196 148.371 287.463C148.819 287.719 149.305 287.847 149.827 287.847C150.403 287.847 150.889 287.713 151.283 287.447C151.678 287.18 151.998 286.839 152.243 286.423L153.491 287.063C153.321 287.457 153.054 287.82 152.691 288.151C152.339 288.471 151.918 288.727 151.427 288.919C150.947 289.111 150.409 289.207 149.811 289.207ZM159.608 289.207C158.765 289.207 158.013 289.009 157.352 288.615C156.701 288.22 156.189 287.681 155.816 286.999C155.442 286.316 155.256 285.548 155.256 284.695C155.256 283.831 155.442 283.063 155.816 282.391C156.189 281.719 156.701 281.185 157.352 280.791C158.013 280.396 158.765 280.199 159.608 280.199C160.173 280.199 160.701 280.3 161.192 280.503C161.682 280.705 162.114 280.977 162.488 281.319C162.861 281.66 163.133 282.06 163.304 282.519L161.976 283.159C161.773 282.711 161.464 282.348 161.048 282.071C160.632 281.783 160.152 281.639 159.608 281.639C159.085 281.639 158.61 281.772 158.184 282.039C157.768 282.305 157.437 282.668 157.192 283.127C156.946 283.585 156.824 284.113 156.824 284.711C156.824 285.287 156.946 285.809 157.192 286.279C157.437 286.737 157.768 287.1 158.184 287.367C158.61 287.633 159.085 287.767 159.608 287.767C160.152 287.767 160.632 287.628 161.048 287.351C161.464 287.063 161.773 286.684 161.976 286.215L163.304 286.887C163.133 287.335 162.861 287.735 162.488 288.087C162.114 288.428 161.682 288.7 161.192 288.903C160.701 289.105 160.173 289.207 159.608 289.207ZM165.184 289.015V276.903H166.672V285.207L166.064 285.063L170.64 280.391H172.544L169.232 283.863L172.768 289.015H171.008L167.776 284.343L168.704 284.295L166.192 286.919L166.672 285.831V289.015H165.184ZM174.65 289.015V287.095H176.202V289.015H174.65ZM174.65 282.311V280.391H176.202V282.311H174.65Z" fill="white"/>
<path d="M189.129 289.015V277.095H193.577C194.387 277.095 195.102 277.244 195.721 277.543C196.35 277.831 196.841 278.257 197.193 278.823C197.545 279.377 197.721 280.055 197.721 280.855C197.721 281.644 197.539 282.321 197.177 282.887C196.825 283.441 196.339 283.868 195.721 284.167C195.102 284.465 194.387 284.615 193.577 284.615H191.305V289.015H189.129ZM191.305 282.695H193.609C194.003 282.695 194.345 282.62 194.633 282.471C194.921 282.311 195.145 282.092 195.305 281.815C195.465 281.537 195.545 281.217 195.545 280.855C195.545 280.481 195.465 280.161 195.305 279.895C195.145 279.617 194.921 279.404 194.633 279.255C194.345 279.095 194.003 279.015 193.609 279.015H191.305V282.695ZM201.388 289.207C200.78 289.207 200.252 289.105 199.804 288.903C199.356 288.7 199.009 288.412 198.764 288.039C198.519 287.655 198.396 287.212 198.396 286.711C198.396 286.231 198.503 285.804 198.716 285.431C198.929 285.047 199.26 284.727 199.708 284.471C200.156 284.215 200.721 284.033 201.404 283.927L204.252 283.463V285.063L201.804 285.479C201.388 285.553 201.079 285.687 200.876 285.879C200.673 286.071 200.572 286.321 200.572 286.631C200.572 286.929 200.684 287.169 200.908 287.351C201.143 287.521 201.431 287.607 201.772 287.607C202.209 287.607 202.593 287.516 202.924 287.335C203.265 287.143 203.527 286.881 203.708 286.551C203.9 286.22 203.996 285.857 203.996 285.463V283.223C203.996 282.849 203.847 282.54 203.548 282.295C203.26 282.039 202.876 281.911 202.396 281.911C201.948 281.911 201.548 282.033 201.196 282.279C200.855 282.513 200.604 282.828 200.444 283.223L198.732 282.391C198.903 281.932 199.169 281.537 199.532 281.207C199.905 280.865 200.343 280.599 200.844 280.407C201.345 280.215 201.889 280.119 202.476 280.119C203.191 280.119 203.82 280.252 204.364 280.519C204.908 280.775 205.329 281.137 205.628 281.607C205.937 282.065 206.092 282.604 206.092 283.223V289.015H204.108V287.527L204.556 287.495C204.332 287.868 204.065 288.183 203.756 288.439C203.447 288.684 203.095 288.876 202.7 289.015C202.305 289.143 201.868 289.207 201.388 289.207ZM211.277 289.207C210.349 289.207 209.539 288.988 208.845 288.551C208.163 288.103 207.693 287.5 207.437 286.743L209.005 285.991C209.229 286.481 209.539 286.865 209.933 287.143C210.339 287.42 210.787 287.559 211.277 287.559C211.661 287.559 211.965 287.473 212.189 287.303C212.413 287.132 212.525 286.908 212.525 286.631C212.525 286.46 212.477 286.321 212.381 286.215C212.296 286.097 212.173 286.001 212.013 285.927C211.864 285.841 211.699 285.772 211.517 285.719L210.093 285.319C209.357 285.105 208.797 284.78 208.413 284.343C208.04 283.905 207.853 283.388 207.853 282.791C207.853 282.257 207.987 281.793 208.253 281.399C208.531 280.993 208.909 280.679 209.389 280.455C209.88 280.231 210.44 280.119 211.069 280.119C211.891 280.119 212.616 280.316 213.245 280.711C213.875 281.105 214.323 281.66 214.589 282.375L212.989 283.127C212.84 282.732 212.589 282.417 212.237 282.183C211.885 281.948 211.491 281.831 211.053 281.831C210.701 281.831 210.424 281.911 210.221 282.071C210.019 282.231 209.917 282.439 209.917 282.695C209.917 282.855 209.96 282.993 210.045 283.111C210.131 283.228 210.248 283.324 210.397 283.399C210.557 283.473 210.739 283.543 210.941 283.607L212.333 284.023C213.048 284.236 213.597 284.556 213.981 284.983C214.376 285.409 214.573 285.932 214.573 286.551C214.573 287.073 214.435 287.537 214.157 287.943C213.88 288.337 213.496 288.647 213.005 288.871C212.515 289.095 211.939 289.207 211.277 289.207ZM219.432 289.207C218.504 289.207 217.693 288.988 217 288.551C216.317 288.103 215.848 287.5 215.592 286.743L217.16 285.991C217.384 286.481 217.693 286.865 218.088 287.143C218.493 287.42 218.941 287.559 219.432 287.559C219.816 287.559 220.12 287.473 220.344 287.303C220.568 287.132 220.68 286.908 220.68 286.631C220.68 286.46 220.632 286.321 220.536 286.215C220.451 286.097 220.328 286.001 220.168 285.927C220.019 285.841 219.853 285.772 219.672 285.719L218.248 285.319C217.512 285.105 216.952 284.78 216.568 284.343C216.195 283.905 216.008 283.388 216.008 282.791C216.008 282.257 216.141 281.793 216.408 281.399C216.685 280.993 217.064 280.679 217.544 280.455C218.035 280.231 218.595 280.119 219.224 280.119C220.045 280.119 220.771 280.316 221.4 280.711C222.029 281.105 222.477 281.66 222.744 282.375L221.144 283.127C220.995 282.732 220.744 282.417 220.392 282.183C220.04 281.948 219.645 281.831 219.208 281.831C218.856 281.831 218.579 281.911 218.376 282.071C218.173 282.231 218.072 282.439 218.072 282.695C218.072 282.855 218.115 282.993 218.2 283.111C218.285 283.228 218.403 283.324 218.552 283.399C218.712 283.473 218.893 283.543 219.096 283.607L220.488 284.023C221.203 284.236 221.752 284.556 222.136 284.983C222.531 285.409 222.728 285.932 222.728 286.551C222.728 287.073 222.589 287.537 222.312 287.943C222.035 288.337 221.651 288.647 221.16 288.871C220.669 289.095 220.093 289.207 219.432 289.207ZM228.403 289.207C227.507 289.207 226.723 289.004 226.051 288.599C225.379 288.193 224.856 287.644 224.483 286.951C224.109 286.257 223.923 285.489 223.923 284.647C223.923 283.772 224.109 282.999 224.483 282.327C224.867 281.644 225.384 281.105 226.035 280.711C226.696 280.316 227.432 280.119 228.243 280.119C228.925 280.119 229.523 280.231 230.035 280.455C230.557 280.679 231 280.988 231.363 281.383C231.725 281.777 232.003 282.231 232.195 282.743C232.387 283.244 232.483 283.788 232.483 284.375C232.483 284.524 232.472 284.679 232.451 284.839C232.44 284.999 232.413 285.137 232.371 285.255H225.651V283.655H231.187L230.195 284.407C230.291 283.916 230.264 283.479 230.115 283.095C229.976 282.711 229.741 282.407 229.411 282.183C229.091 281.959 228.701 281.847 228.243 281.847C227.805 281.847 227.416 281.959 227.075 282.183C226.733 282.396 226.472 282.716 226.291 283.143C226.12 283.559 226.056 284.065 226.099 284.663C226.056 285.196 226.125 285.671 226.307 286.087C226.499 286.492 226.776 286.807 227.139 287.031C227.512 287.255 227.939 287.367 228.419 287.367C228.899 287.367 229.304 287.265 229.635 287.063C229.976 286.86 230.243 286.588 230.435 286.247L232.131 287.079C231.96 287.495 231.693 287.863 231.331 288.183C230.968 288.503 230.536 288.753 230.035 288.935C229.544 289.116 229 289.207 228.403 289.207ZM238.056 289.207C237.213 289.207 236.461 289.009 235.8 288.615C235.138 288.209 234.616 287.66 234.232 286.967C233.848 286.273 233.656 285.505 233.656 284.663C233.656 283.809 233.848 283.041 234.232 282.359C234.616 281.676 235.138 281.132 235.8 280.727C236.472 280.321 237.218 280.119 238.04 280.119C238.701 280.119 239.288 280.252 239.8 280.519C240.322 280.775 240.733 281.137 241.032 281.607L240.712 282.039V276.903H242.808V289.015H240.824V287.335L241.048 287.751C240.749 288.22 240.333 288.583 239.8 288.839C239.266 289.084 238.685 289.207 238.056 289.207ZM238.28 287.287C238.76 287.287 239.181 287.175 239.544 286.951C239.906 286.727 240.189 286.417 240.392 286.023C240.605 285.628 240.712 285.175 240.712 284.663C240.712 284.161 240.605 283.713 240.392 283.319C240.189 282.913 239.906 282.599 239.544 282.375C239.181 282.151 238.76 282.039 238.28 282.039C237.81 282.039 237.389 282.156 237.016 282.391C236.642 282.615 236.349 282.924 236.136 283.319C235.933 283.703 235.832 284.151 235.832 284.663C235.832 285.175 235.933 285.628 236.136 286.023C236.349 286.417 236.642 286.727 237.016 286.951C237.389 287.175 237.81 287.287 238.28 287.287Z" fill="white"/>
<path d="M253.826 278.635C253.68 277.977 253.702 277.294 253.891 276.647C254.08 276.001 254.429 275.412 254.905 274.936C255.382 274.461 255.971 274.113 256.618 273.926C257.265 273.738 257.949 273.717 258.606 273.865C258.967 273.299 259.466 272.834 260.055 272.511C260.644 272.189 261.304 272.02 261.976 272.02C262.647 272.02 263.308 272.189 263.897 272.511C264.486 272.834 264.984 273.299 265.346 273.865C266.004 273.717 266.689 273.738 267.337 273.925C267.985 274.113 268.575 274.462 269.052 274.939C269.529 275.416 269.877 276.006 270.065 276.654C270.253 277.302 270.274 277.987 270.126 278.645C270.691 279.006 271.157 279.505 271.479 280.094C271.802 280.683 271.971 281.343 271.971 282.015C271.971 282.686 271.802 283.347 271.479 283.936C271.157 284.525 270.691 285.023 270.126 285.385C270.273 286.042 270.252 286.726 270.065 287.373C269.877 288.019 269.53 288.609 269.054 289.085C268.578 289.562 267.99 289.911 267.343 290.1C266.697 290.288 266.013 290.311 265.356 290.165C264.995 290.733 264.496 291.2 263.906 291.524C263.316 291.848 262.654 292.018 261.981 292.018C261.308 292.018 260.646 291.848 260.056 291.524C259.466 291.2 258.967 290.733 258.606 290.165C257.949 290.312 257.265 290.291 256.618 290.104C255.971 289.916 255.382 289.569 254.905 289.093C254.429 288.617 254.08 288.029 253.891 287.382C253.702 286.736 253.68 286.052 253.826 285.395C253.256 285.034 252.786 284.535 252.461 283.944C252.135 283.353 251.965 282.689 251.965 282.015C251.965 281.34 252.135 280.676 252.461 280.086C252.786 279.495 253.256 278.996 253.826 278.635Z" fill="#14B8A6" stroke="white" stroke-linecap="round" stroke-linejoin="round"/>
<path d="M258.977 282.015L260.977 284.015L264.977 280.015" stroke="white" stroke-width="2" stroke-linecap="round" stroke-linejoin="round"/>
<rect x="18.4766" y="249.515" width="279" height="65" rx="4.5" stroke="white"/>
</g>
<defs>
<filter id="filter0_d_1619_5742" x="0.976562" y="246.015" width="314" height="100" filterUnits="userSpaceOnUse" color-interpolation-filters="sRGB">
<feFlood flood-opacity="0" result="BackgroundImageFix"/>
<feColorMatrix in="SourceAlpha" type="matrix" values="0 0 0 0 0 0 0 0 0 0 0 0 0 0 0 0 0 0 127 0" result="hardAlpha"/>
<feMorphology radius="4" operator="erode" in="SourceAlpha" result="effect1_dropShadow_1619_5742"/>
<feOffset dy="14"/>
<feGaussianBlur stdDeviation="10.5"/>
<feColorMatrix type="matrix" values="0 0 0 0 0.121569 0 0 0 0 0.160784 0 0 0 0 0.215686 0 0 0 0.1 0"/>
<feBlend mode="normal" in2="BackgroundImageFix" result="effect1_dropShadow_1619_5742"/>
<feBlend mode="normal" in="SourceGraphic" in2="effect1_dropShadow_1619_5742" result="shape"/>
</filter>
<linearGradient id="paint0_linear_1619_5742" x1="520.048" y1="170.91" x2="394.171" y2="665.427" gradientUnits="userSpaceOnUse">
<stop stop-color="#F8FAFC"/>
<stop offset="0.354167" stop-color="#F8FAFC" stop-opacity="0.875"/>
<stop offset="1" stop-color="#F8FAFC" stop-opacity="0"/>
</linearGradient>
<linearGradient id="paint1_linear_1619_5742" x1="17.9766" y1="274.031" x2="297.977" y2="274.031" gradientUnits="userSpaceOnUse">
<stop stop-color="#875BF2"/>
<stop offset="1" stop-color="#CC2FE5"/>
</linearGradient>
</defs>
</svg>
