<svg width="174" height="39" viewBox="0 0 174 39" fill="none" xmlns="http://www.w3.org/2000/svg">
<path d="M29.7352 18.7882C29.7352 22.4309 23.1609 25.3838 15.0512 25.3838C6.94137 25.3838 0.367188 22.4309 0.367188 18.7882C0.367188 15.1454 6.94137 12.1925 15.0512 12.1925C23.1609 12.1925 29.7352 15.1454 29.7352 18.7882Z" fill="white"/>
<path d="M14.717 10.0013L15.0589 10.0078L15.0899 8.4286L16.6528 7.94251L14.4585 7.27174L15.1191 6.92325L15.1518 5.24456L14.8099 5.23741L14.7807 6.71475L13.5645 7.35633L15.4913 7.94549L14.7527 8.17483L14.717 10.0013Z" fill="white"/>
<path d="M14.2541 4.4861C14.2457 4.89535 14.5715 5.23431 14.9807 5.24205C15.3899 5.2498 15.7289 4.92454 15.7366 4.51529C15.7449 4.10545 15.4191 3.76709 15.0099 3.75934C14.6001 3.7516 14.2618 4.07685 14.2541 4.4861Z" fill="white"/>
<path d="M2.08026 21.8843C2.34073 22.1041 2.62806 22.3162 2.94029 22.5205C2.17955 20.3319 1.85004 17.902 1.92974 15.8242C1.68982 16.0381 1.47503 16.2585 1.28711 16.4848C1.2939 18.1981 1.55366 20.0894 2.08026 21.8843Z" fill="#9452EF"/>
<path d="M28.8104 16.4795C28.6217 16.2525 28.4059 16.0315 28.1648 15.8176C28.288 17.9145 27.8677 20.3867 27.0293 22.6045C27.3545 22.399 27.654 22.1845 27.926 21.9629C28.5133 20.1335 28.8193 18.21 28.8104 16.4795Z" fill="#9452EF"/>
<path d="M19.0418 28.1307C16.322 27.753 13.5627 27.6952 10.8205 27.9615C4.51385 28.5745 2.26957 19.1272 3.16885 14.3723C3.62737 11.9478 6.32916 10.2101 8.61044 9.67099C12.7448 8.69284 17.1617 8.63089 21.3173 9.50359C23.5472 9.97837 25.7528 11.4915 26.6211 13.6658C28.4347 18.208 25.2023 28.9855 19.0418 28.1307Z" fill="white"/>
<path d="M19.7287 28.1787H19.7286H19.7287ZM19.7306 28.1787C22.3321 28.1775 24.3561 26.0717 25.623 23.366L25.6234 23.3654C24.3563 26.0717 22.3323 28.1781 19.7306 28.1787ZM19.0643 28.134C19.0632 28.134 19.0619 28.1334 19.0608 28.1334C19.0619 28.1334 19.0632 28.134 19.0643 28.134ZM19.042 28.1311C19.0172 28.1275 18.9926 28.1239 18.9678 28.1209C18.9926 28.1239 19.0172 28.1275 19.042 28.1311ZM18.965 28.1203C18.9439 28.1174 18.9224 28.1144 18.9014 28.112C18.9224 28.1144 18.9439 28.1174 18.965 28.1203ZM10.3672 27.9893C10.5156 27.9857 10.6675 27.9768 10.8207 27.9619C11.9504 27.8523 13.0829 27.7975 14.2145 27.7975C13.0831 27.7975 11.9503 27.8523 10.8208 27.9619C10.6672 27.9768 10.516 27.9857 10.3672 27.9893ZM26.9738 14.938H26.9737C26.8935 14.4888 26.7806 14.0724 26.6336 13.6971C26.7806 14.0724 26.8935 14.4888 26.9738 14.938ZM26.6299 13.6876C26.627 13.6805 26.6242 13.6733 26.6213 13.6662C26.6242 13.6733 26.627 13.6805 26.6299 13.6876ZM26.6213 13.6662C26.4687 13.2837 26.2748 12.9221 26.0466 12.5832C26.2748 12.9221 26.4687 13.2837 26.6213 13.6662ZM26.0454 12.5814C26.0433 12.5778 26.0412 12.5748 26.039 12.5719C26.0412 12.5748 26.0433 12.5778 26.0454 12.5814ZM26.0374 12.5695C26.0354 12.5665 26.0335 12.5635 26.0316 12.5605C26.0335 12.5635 26.0354 12.5665 26.0374 12.5695ZM26.0276 12.5552C26.0264 12.5528 26.0253 12.5516 26.024 12.5498C26.0253 12.5516 26.0264 12.5534 26.0276 12.5552ZM26.0193 12.5427C26.0183 12.5415 26.0174 12.5397 26.0164 12.5385C26.0173 12.5397 26.0183 12.5415 26.0193 12.5427ZM26.0114 12.5313C26.0105 12.5302 26.0096 12.5284 26.0088 12.5272C26.0096 12.5284 26.0105 12.5302 26.0114 12.5313ZM26.0029 12.5188C26.0023 12.5176 26.0018 12.5171 26.0012 12.5165C26.0017 12.5171 26.0023 12.5176 26.0029 12.5188ZM25.9946 12.5069C25.9942 12.5063 25.9939 12.5057 25.9936 12.5051C25.9939 12.5057 25.9943 12.5063 25.9946 12.5069ZM25.9866 12.495C25.9864 12.495 25.9861 12.4944 25.9859 12.4944C25.9861 12.4944 25.9864 12.495 25.9866 12.495ZM25.9789 12.4843C25.9786 12.4837 25.9784 12.4837 25.9781 12.4831C25.9784 12.4837 25.9786 12.4837 25.9789 12.4843ZM25.9708 12.473C25.9707 12.4724 25.9705 12.4724 25.9705 12.4724C25.9706 12.4724 25.9707 12.4724 25.9708 12.473ZM25.9628 12.4617C25.9627 12.4617 25.9628 12.4617 25.9627 12.4611C25.9627 12.4617 25.9628 12.4617 25.9628 12.4617Z" fill="#D5DEE2"/>
<path d="M25.623 23.3662C26.8926 20.6546 27.4032 17.3395 26.9738 14.9382H26.9739C27.4033 17.3401 26.8934 20.654 25.6235 23.3656L25.623 23.3662Z" fill="#D5DEE2"/>
<path d="M25.623 23.3662C26.8926 20.6546 27.4032 17.3395 26.9738 14.9382H26.9739C27.4033 17.3401 26.8934 20.654 25.6235 23.3656L25.623 23.3662Z" fill="#7C3AED"/>
<path d="M21.0767 23.6998C20.0259 24.1084 18.9008 24.3586 17.8646 24.5004C14.5655 24.9526 10.604 24.7161 7.71264 22.9242C6.41422 22.12 5.40575 20.9178 5.1616 19.3768C5.14201 19.2523 5.12235 19.1284 5.10275 19.0044C4.63613 16.0587 6.78828 13.3548 9.7615 13.1237C13.3472 12.8449 16.9492 12.8449 20.5349 13.1237C23.5081 13.3548 25.6603 16.0587 25.1938 19.0044C25.1753 19.1212 25.1568 19.238 25.1382 19.3553C24.7841 21.5916 23.063 22.9278 21.0767 23.6998Z" fill="#9353EF"/>
<path d="M14.1855 20.6664C14.5521 21.1274 15.5297 21.7729 16.5073 20.6664" stroke="white" stroke-width="0.939245" stroke-linecap="round"/>
<path d="M11.4858 17.9578C11.4858 18.4266 11.1055 18.8066 10.6365 18.8066C10.1674 18.8066 9.78711 18.4266 9.78711 17.9578C9.78711 17.4883 10.1674 17.1083 10.6365 17.1083C11.1055 17.1083 11.4858 17.4883 11.4858 17.9578Z" fill="white"/>
<path d="M18.3301 17.9332C18.6195 17.4722 19.3913 16.8267 20.163 17.9332" stroke="white" stroke-width="0.939245" stroke-linecap="round"/>
<path d="M39.6708 28.4902L35.7708 13.5902H39.1308L42.0708 26.0702H41.1708L44.2708 13.5902H47.4708L50.5708 26.0702H49.6708L52.6108 13.5902H55.9708L52.0708 28.4902H48.4708L45.3508 16.4902H46.3908L43.2708 28.4902H39.6708ZM56.3345 28.4902V17.5702H59.1345V20.1902L58.9345 19.8102C59.1745 18.8902 59.5679 18.2702 60.1145 17.9502C60.6745 17.6169 61.3345 17.4502 62.0945 17.4502H62.7345V20.0502H61.7945C61.0612 20.0502 60.4679 20.2769 60.0145 20.7302C59.5612 21.1702 59.3345 21.7969 59.3345 22.6102V28.4902H56.3345ZM63.8894 28.4902V17.5702H66.8894V28.4902H63.8894ZM63.8894 16.5902V13.5902H66.8894V16.5902H63.8894ZM74.1847 28.6102C72.8647 28.6102 71.838 28.2569 71.1047 27.5502C70.3847 26.8302 70.0247 25.8302 70.0247 24.5502V20.1702H68.1847V17.5702H68.2847C68.8447 17.5702 69.2714 17.4302 69.5647 17.1502C69.8714 16.8702 70.0247 16.4502 70.0247 15.8902V15.0902H73.0247V17.5702H75.5847V20.1702H73.0247V24.3502C73.0247 24.7236 73.0914 25.0369 73.2247 25.2902C73.358 25.5302 73.5647 25.7102 73.8447 25.8302C74.1247 25.9502 74.4714 26.0102 74.8847 26.0102C74.978 26.0102 75.0847 26.0036 75.2047 25.9902C75.3247 25.9769 75.4514 25.9636 75.5847 25.9502V28.4902C75.3847 28.5169 75.158 28.5436 74.9047 28.5702C74.6514 28.5969 74.4114 28.6102 74.1847 28.6102ZM77.1827 28.4902V17.5702H80.1827V28.4902H77.1827ZM77.1827 16.5902V13.5902H80.1827V16.5902H77.1827ZM82.218 28.4902V17.5702H85.018V19.7302L84.858 19.2502C85.1113 18.5969 85.518 18.1169 86.078 17.8102C86.6513 17.4902 87.318 17.3302 88.078 17.3302C88.9046 17.3302 89.6246 17.5036 90.238 17.8502C90.8646 18.1969 91.3513 18.6836 91.698 19.3102C92.0446 19.9236 92.218 20.6436 92.218 21.4702V28.4902H89.218V22.1102C89.218 21.6836 89.1313 21.3169 88.958 21.0102C88.798 20.7036 88.5646 20.4636 88.258 20.2902C87.9646 20.1169 87.618 20.0302 87.218 20.0302C86.8313 20.0302 86.4846 20.1169 86.178 20.2902C85.8713 20.4636 85.6313 20.7036 85.458 21.0102C85.298 21.3169 85.218 21.6836 85.218 22.1102V28.4902H82.218ZM99.3906 32.8902C98.5506 32.8902 97.7706 32.7502 97.0506 32.4702C96.3306 32.1902 95.7106 31.7969 95.1906 31.2902C94.684 30.7969 94.3173 30.2102 94.0906 29.5302L96.8706 28.5502C97.0173 29.0569 97.3173 29.4569 97.7706 29.7502C98.224 30.0436 98.764 30.1902 99.3906 30.1902C99.884 30.1902 100.311 30.0969 100.671 29.9102C101.031 29.7369 101.304 29.4769 101.491 29.1302C101.691 28.7836 101.791 28.3769 101.791 27.9102V25.4102L102.371 26.1302C101.997 26.7436 101.517 27.2036 100.931 27.5102C100.344 27.8036 99.6573 27.9502 98.8706 27.9502C97.8573 27.9502 96.9506 27.7236 96.1506 27.2702C95.3506 26.8036 94.724 26.1702 94.2706 25.3702C93.8173 24.5569 93.5906 23.6369 93.5906 22.6102C93.5906 21.5836 93.8173 20.6769 94.2706 19.8902C94.724 19.0902 95.344 18.4636 96.1306 18.0102C96.9173 17.5569 97.8106 17.3302 98.8106 17.3302C99.5973 17.3302 100.284 17.4902 100.871 17.8102C101.457 18.1169 101.957 18.5902 102.371 19.2302L101.991 19.9502V17.5702H104.791V27.9102C104.791 28.8702 104.557 29.7236 104.091 30.4702C103.624 31.2302 102.984 31.8236 102.171 32.2502C101.371 32.6769 100.444 32.8902 99.3906 32.8902ZM99.2906 25.2302C99.7973 25.2302 100.237 25.1236 100.611 24.9102C100.984 24.6969 101.271 24.3969 101.471 24.0102C101.684 23.6236 101.791 23.1702 101.791 22.6502C101.791 22.1302 101.684 21.6769 101.471 21.2902C101.257 20.8902 100.964 20.5836 100.591 20.3702C100.217 20.1436 99.784 20.0302 99.2906 20.0302C98.784 20.0302 98.3306 20.1436 97.9306 20.3702C97.544 20.5836 97.2373 20.8902 97.0106 21.2902C96.7973 21.6769 96.6906 22.1302 96.6906 22.6502C96.6906 23.1569 96.7973 23.6036 97.0106 23.9902C97.2373 24.3769 97.544 24.6836 97.9306 24.9102C98.3306 25.1236 98.784 25.2302 99.2906 25.2302ZM107.059 28.4902V13.5902H110.159V20.0302H115.959V13.5902H119.059V28.4902H115.959V22.7302H110.159V28.4902H107.059ZM126.588 28.7302C125.428 28.7302 124.421 28.4769 123.568 27.9702C122.714 27.4502 122.054 26.7569 121.588 25.8902C121.121 25.0236 120.888 24.0636 120.888 23.0102C120.888 21.9169 121.128 20.9436 121.608 20.0902C122.101 19.2369 122.761 18.5636 123.588 18.0702C124.414 17.5769 125.348 17.3302 126.388 17.3302C127.254 17.3302 128.021 17.4702 128.688 17.7502C129.354 18.0169 129.914 18.3969 130.368 18.8902C130.834 19.3836 131.188 19.9569 131.428 20.6102C131.668 21.2502 131.788 21.9502 131.788 22.7102C131.788 22.9236 131.774 23.1369 131.748 23.3502C131.734 23.5502 131.701 23.7236 131.648 23.8702H123.468V21.6702H129.948L128.528 22.7102C128.661 22.1369 128.654 21.6302 128.508 21.1902C128.361 20.7369 128.101 20.3836 127.728 20.1302C127.368 19.8636 126.921 19.7302 126.388 19.7302C125.868 19.7302 125.421 19.8569 125.048 20.1102C124.674 20.3636 124.394 20.7369 124.208 21.2302C124.021 21.7236 123.948 22.3236 123.988 23.0302C123.934 23.6436 124.008 24.1836 124.208 24.6502C124.408 25.1169 124.714 25.4836 125.128 25.7502C125.541 26.0036 126.041 26.1302 126.628 26.1302C127.161 26.1302 127.614 26.0236 127.988 25.8102C128.374 25.5969 128.674 25.3036 128.888 24.9302L131.288 26.0702C131.074 26.6036 130.734 27.0702 130.268 27.4702C129.814 27.8702 129.274 28.1836 128.648 28.4102C128.021 28.6236 127.334 28.7302 126.588 28.7302ZM133.394 28.4902V17.5702H136.194V20.1902L135.994 19.8102C136.234 18.8902 136.628 18.2702 137.174 17.9502C137.734 17.6169 138.394 17.4502 139.154 17.4502H139.794V20.0502H138.854C138.121 20.0502 137.528 20.2769 137.074 20.7302C136.621 21.1702 136.394 21.7969 136.394 22.6102V28.4902H133.394ZM146.369 28.7302C145.289 28.7302 144.303 28.4836 143.409 27.9902C142.529 27.4969 141.823 26.8236 141.289 25.9702C140.769 25.1036 140.509 24.1236 140.509 23.0302C140.509 21.9236 140.769 20.9436 141.289 20.0902C141.823 19.2369 142.529 18.5636 143.409 18.0702C144.303 17.5769 145.289 17.3302 146.369 17.3302C147.449 17.3302 148.429 17.5769 149.309 18.0702C150.189 18.5636 150.889 19.2369 151.409 20.0902C151.943 20.9436 152.209 21.9236 152.209 23.0302C152.209 24.1236 151.943 25.1036 151.409 25.9702C150.889 26.8236 150.189 27.4969 149.309 27.9902C148.429 28.4836 147.449 28.7302 146.369 28.7302ZM146.369 26.0302C146.916 26.0302 147.389 25.9036 147.789 25.6502C148.203 25.3969 148.523 25.0436 148.749 24.5902C148.989 24.1369 149.109 23.6169 149.109 23.0302C149.109 22.4436 148.989 21.9302 148.749 21.4902C148.523 21.0369 148.203 20.6836 147.789 20.4302C147.389 20.1636 146.916 20.0302 146.369 20.0302C145.823 20.0302 145.343 20.1636 144.929 20.4302C144.516 20.6836 144.189 21.0369 143.949 21.4902C143.723 21.9302 143.609 22.4436 143.609 23.0302C143.609 23.6169 143.723 24.1369 143.949 24.5902C144.189 25.0436 144.516 25.3969 144.929 25.6502C145.343 25.9036 145.823 26.0302 146.369 26.0302ZM155.297 28.4902V25.4902H158.297V28.4902H155.297Z" fill="#F9FAFB"/>
</svg>
