<svg width="229" height="515" viewBox="0 0 229 515" fill="none" xmlns="http://www.w3.org/2000/svg">
<path d="M122.227 294.962C136.323 293.632 146.038 290.096 149.51 284.85C161.608 266.558 149.113 247.875 148.516 247.012C145.829 243.157 146.762 237.844 150.61 235.136C154.47 232.418 159.803 233.344 162.52 237.203C163.239 238.223 177.977 259.646 169.053 283.906C167.796 287.323 166.071 290.794 163.771 294.275C160.059 299.891 154.125 304.231 146.038 307.281L122.227 294.962Z" fill="#043340"/>
<path d="M80.6526 273.793C85.1529 266.06 105.687 262.699 112.415 268.595C122.888 277.779 122.239 328.617 122.239 328.617L90.4767 333.816C90.4767 333.816 73.6534 285.837 80.6526 273.793Z" fill="#043340"/>
<path d="M170.241 393.305L91.8946 339.895C88.5322 337.607 87.525 332.921 89.6457 329.435C91.7583 325.95 96.204 324.976 99.5623 327.265L177.912 380.674C181.271 382.964 182.278 387.649 180.162 391.139C178.028 394.64 173.589 395.583 170.241 393.305Z" fill="#043340"/>
<path d="M114.665 370.8C114.656 370.802 114.641 370.805 114.632 370.806C114.641 370.805 114.651 370.803 114.665 370.8ZM114.569 370.818C114.56 370.819 114.545 370.822 114.536 370.824C114.545 370.822 114.56 370.819 114.569 370.818ZM114.473 370.83C114.463 370.832 114.453 370.833 114.444 370.835C114.453 370.833 114.463 370.832 114.473 370.83ZM114.353 370.851L114.348 370.852L114.353 370.851ZM114.257 370.868C114.247 370.87 114.237 370.872 114.227 370.869C114.242 370.871 114.247 370.87 114.257 370.868ZM114.165 370.88C114.15 370.882 114.141 370.884 114.131 370.886C114.141 370.884 114.155 370.881 114.165 370.88ZM114.064 370.898C114.054 370.899 114.049 370.895 114.039 370.897C114.049 370.895 114.054 370.899 114.064 370.898ZM113.851 370.926C113.841 370.927 113.832 370.929 113.822 370.931C113.832 370.929 113.841 370.927 113.851 370.926ZM113.754 370.938C113.745 370.94 113.735 370.941 113.725 370.943C113.735 370.941 113.745 370.94 113.754 370.938ZM113.657 370.95C113.648 370.952 113.638 370.954 113.629 370.955C113.638 370.954 113.648 370.952 113.657 370.95ZM113.44 370.979C113.43 370.981 113.425 370.982 113.416 370.983C113.425 370.982 113.43 370.981 113.44 370.979ZM113.348 370.991C113.338 370.992 113.323 370.99 113.313 370.992C113.323 370.99 113.338 370.992 113.348 370.991ZM113.25 370.998C113.24 371 113.231 371.001 113.216 371.004C113.231 371.001 113.24 371 113.25 370.998ZM113.124 371.015L113.12 371.016L113.124 371.015ZM113.031 371.022C113.022 371.024 113.012 371.025 113.003 371.027C113.012 371.025 113.022 371.024 113.031 371.022ZM112.935 371.034C112.925 371.036 112.915 371.033 112.905 371.035C112.915 371.033 112.925 371.036 112.935 371.034ZM112.832 371.043C112.827 371.044 112.818 371.045 112.808 371.047C112.818 371.045 112.827 371.044 112.832 371.043ZM112.715 371.054C112.71 371.054 112.706 371.055 112.706 371.055C112.706 371.055 112.71 371.054 112.715 371.054ZM112.617 371.061C112.608 371.063 112.598 371.064 112.589 371.066C112.598 371.064 112.608 371.063 112.617 371.061ZM112.52 371.069C112.51 371.07 112.501 371.072 112.491 371.074C112.501 371.072 112.51 371.07 112.52 371.069ZM112.422 371.076C112.413 371.078 112.403 371.079 112.393 371.081C112.403 371.079 112.413 371.078 112.422 371.076ZM112.3 371.088C112.296 371.089 112.296 371.089 112.296 371.089C112.296 371.089 112.296 371.089 112.3 371.088ZM112.203 371.095C112.193 371.097 112.183 371.094 112.178 371.095C112.187 371.093 112.193 371.097 112.203 371.095ZM112.105 371.103C112.095 371.1 112.085 371.101 112.075 371.103C112.085 371.101 112.095 371.1 112.105 371.103ZM112.002 371.106C111.997 371.107 111.987 371.109 111.978 371.111C111.987 371.109 111.997 371.107 112.002 371.106ZM111.884 371.112L111.879 371.113C111.879 371.113 111.879 371.113 111.884 371.112ZM111.786 371.12C111.777 371.122 111.766 371.119 111.761 371.119C111.766 371.119 111.777 371.122 111.786 371.12ZM111.693 371.122C111.678 371.124 111.669 371.126 111.659 371.128C111.669 371.126 111.678 371.124 111.693 371.122ZM111.59 371.13C111.58 371.127 111.57 371.129 111.56 371.13C111.57 371.129 111.58 371.127 111.59 371.13ZM111.467 371.132C111.462 371.133 111.462 371.133 111.462 371.133C111.462 371.133 111.462 371.133 111.467 371.132ZM111.369 371.14C111.359 371.137 111.354 371.138 111.344 371.139C111.349 371.138 111.359 371.137 111.369 371.14ZM111.27 371.142C111.26 371.139 111.25 371.141 111.241 371.143C111.25 371.141 111.26 371.139 111.27 371.142ZM111.167 371.146C111.157 371.143 111.152 371.144 111.147 371.145C111.152 371.144 111.161 371.142 111.167 371.146ZM110.95 371.15C110.94 371.152 110.93 371.149 110.925 371.149C110.935 371.148 110.94 371.147 110.95 371.15ZM110.851 371.153C110.841 371.15 110.831 371.151 110.822 371.153C110.831 371.151 110.841 371.15 110.851 371.153ZM110.742 371.152C110.738 371.153 110.733 371.154 110.722 371.151C110.733 371.154 110.738 371.153 110.742 371.152ZM110.53 371.155C110.52 371.152 110.51 371.154 110.5 371.156C110.51 371.154 110.52 371.152 110.53 371.155ZM110.431 371.153C110.421 371.155 110.411 371.152 110.401 371.154C110.411 371.152 110.421 371.155 110.431 371.153ZM110.322 371.153C110.317 371.154 110.312 371.155 110.303 371.156C110.307 371.155 110.317 371.154 110.322 371.153ZM110.104 371.152C110.094 371.154 110.089 371.155 110.079 371.152C110.089 371.155 110.099 371.153 110.104 371.152ZM110.004 371.15C109.995 371.152 109.985 371.153 109.975 371.15C109.985 371.153 109.995 371.152 110.004 371.15ZM109.9 371.149C109.891 371.15 109.886 371.151 109.88 371.147C109.886 371.151 109.895 371.15 109.9 371.149ZM109.681 371.143C109.672 371.145 109.667 371.146 109.656 371.143C109.667 371.146 109.672 371.145 109.681 371.143ZM109.582 371.141C109.572 371.143 109.562 371.14 109.552 371.141C109.562 371.14 109.572 371.143 109.582 371.141ZM109.473 371.141C109.467 371.137 109.462 371.138 109.458 371.138C109.462 371.138 109.467 371.137 109.473 371.141ZM109.253 371.13C109.248 371.131 109.238 371.128 109.233 371.129C109.238 371.128 109.244 371.132 109.253 371.13ZM109.154 371.128C109.143 371.125 109.139 371.126 109.128 371.123C109.139 371.126 109.143 371.125 109.154 371.128ZM109.044 371.123C109.038 371.119 109.034 371.12 109.029 371.121C109.034 371.12 109.038 371.119 109.044 371.123ZM108.829 371.112C108.819 371.109 108.814 371.109 108.804 371.111C108.814 371.109 108.819 371.109 108.829 371.112ZM108.724 371.106C108.718 371.102 108.709 371.103 108.699 371.105C108.709 371.103 108.718 371.102 108.724 371.106ZM108.619 371.1C108.613 371.096 108.604 371.097 108.599 371.098C108.609 371.096 108.608 371.096 108.619 371.1ZM108.398 371.084C108.388 371.081 108.383 371.082 108.378 371.083C108.383 371.082 108.393 371.08 108.398 371.084ZM108.298 371.077C108.288 371.074 108.278 371.076 108.272 371.072C108.283 371.075 108.288 371.074 108.298 371.077ZM108.192 371.067C108.183 371.068 108.177 371.064 108.172 371.065C108.178 371.069 108.183 371.068 108.192 371.067ZM107.967 371.052C107.961 371.048 107.952 371.05 107.946 371.046C107.956 371.049 107.961 371.048 107.967 371.052ZM107.866 371.041C107.861 371.041 107.85 371.038 107.841 371.04C107.85 371.038 107.856 371.042 107.866 371.041ZM107.755 371.031C107.75 371.031 107.745 371.032 107.74 371.028C107.745 371.032 107.75 371.031 107.755 371.031ZM107.538 371.01C107.529 371.011 107.523 371.007 107.518 371.008C107.523 371.007 107.529 371.011 107.538 371.01ZM107.433 370.999C107.428 371 107.418 371.001 107.412 370.997C107.423 371.001 107.428 371 107.433 370.999ZM107.322 370.989C107.317 370.99 107.317 370.99 107.311 370.986C107.317 370.99 107.322 370.989 107.322 370.989ZM107.104 370.963C107.1 370.964 107.09 370.966 107.084 370.962C107.09 370.966 107.1 370.964 107.104 370.963ZM107.003 370.951C106.994 370.953 106.983 370.95 106.978 370.951C106.988 370.949 106.994 370.953 107.003 370.951ZM106.893 370.941C106.888 370.942 106.882 370.938 106.877 370.939C106.882 370.938 106.888 370.942 106.893 370.941ZM106.669 370.912C106.665 370.913 106.66 370.914 106.649 370.91C106.655 370.914 106.665 370.913 106.669 370.912ZM106.568 370.9C106.564 370.901 106.553 370.898 106.544 370.9C106.553 370.898 106.559 370.902 106.568 370.9ZM106.462 370.884C106.452 370.886 106.447 370.887 106.442 370.883C106.447 370.887 106.452 370.886 106.462 370.884ZM106.238 370.855C106.229 370.857 106.224 370.857 106.218 370.854C106.223 370.853 106.234 370.856 106.238 370.855ZM106.133 370.844C106.127 370.84 106.117 370.842 106.112 370.838C106.122 370.841 106.127 370.84 106.133 370.844ZM106.015 370.825L106.011 370.826L106.015 370.825ZM105.802 370.794C105.796 370.79 105.791 370.791 105.787 370.792C105.791 370.791 105.791 370.791 105.802 370.794ZM105.695 370.778C105.689 370.774 105.685 370.775 105.68 370.776C105.685 370.775 105.689 370.774 105.695 370.778ZM105.583 370.759C105.578 370.76 105.578 370.76 105.573 370.76C105.578 370.76 105.578 370.76 105.583 370.759ZM105.364 370.723C105.359 370.724 105.354 370.725 105.348 370.721C105.354 370.725 105.359 370.724 105.364 370.723ZM105.262 370.707C105.252 370.709 105.246 370.705 105.242 370.706C105.246 370.705 105.251 370.704 105.262 370.707ZM105.144 370.688C105.144 370.688 105.14 370.689 105.139 370.684C105.14 370.689 105.144 370.688 105.144 370.688ZM104.924 370.648C104.919 370.649 104.919 370.649 104.915 370.65C104.919 370.649 104.919 370.649 104.924 370.648ZM104.822 370.632C104.817 370.628 104.812 370.629 104.807 370.629C104.812 370.629 104.817 370.628 104.822 370.632ZM104.704 370.608C104.704 370.608 104.704 370.608 104.7 370.609L104.704 370.608ZM104.489 370.567C104.484 370.568 104.479 370.569 104.474 370.565C104.479 370.569 104.484 370.568 104.489 370.567ZM104.382 370.552C104.377 370.548 104.372 370.548 104.366 370.545C104.372 370.548 104.377 370.548 104.382 370.552ZM104.048 370.482C104.043 370.483 104.043 370.483 104.038 370.479C104.039 370.484 104.048 370.482 104.048 370.482ZM103.941 370.462C103.936 370.463 103.935 370.458 103.93 370.459L103.941 370.462ZM103.606 370.393L103.601 370.389L103.606 370.393ZM103.503 370.366C103.498 370.367 103.493 370.368 103.487 370.364C103.493 370.368 103.498 370.367 103.503 370.366ZM103.168 370.292C103.163 370.293 103.158 370.294 103.157 370.289C103.163 370.293 103.163 370.293 103.168 370.292ZM103.065 370.271C103.059 370.267 103.054 370.268 103.049 370.264C103.054 370.268 103.059 370.267 103.065 370.271ZM102.946 370.243C102.946 370.243 102.946 370.243 102.941 370.244L102.946 370.243ZM102.729 370.192C102.724 370.193 102.719 370.189 102.714 370.19C102.719 370.189 102.724 370.193 102.729 370.192ZM102.621 370.167C102.615 370.163 102.61 370.164 102.605 370.165C102.61 370.164 102.616 370.168 102.621 370.167ZM102.289 370.083C102.284 370.083 102.278 370.079 102.273 370.08C102.279 370.084 102.279 370.084 102.289 370.083ZM102.18 370.057C102.175 370.058 102.17 370.054 102.165 370.055C102.17 370.054 102.175 370.058 102.18 370.057ZM101.843 369.974C101.843 369.969 101.838 369.97 101.832 369.966C101.838 369.97 101.843 369.969 101.843 369.974ZM101.734 369.944C101.733 369.939 101.728 369.94 101.724 369.94C101.728 369.94 101.734 369.944 101.734 369.944ZM101.401 369.849C101.396 369.85 101.396 369.85 101.396 369.85C101.396 369.85 101.396 369.85 101.401 369.849ZM101.292 369.824C101.291 369.819 101.286 369.82 101.282 369.821C101.286 369.82 101.291 369.819 101.292 369.824ZM100.958 369.73C100.953 369.726 100.953 369.726 100.942 369.723C100.948 369.727 100.953 369.726 100.958 369.73ZM100.854 369.699C100.848 369.695 100.843 369.696 100.838 369.692C100.843 369.696 100.843 369.696 100.854 369.699ZM100.515 369.601C100.51 369.602 100.509 369.597 100.504 369.598C100.509 369.597 100.515 369.601 100.515 369.601ZM100.404 369.566C100.404 369.566 100.4 369.567 100.394 369.563C100.4 369.567 100.404 369.566 100.404 369.566ZM100.07 369.467L100.064 369.463C100.064 369.463 100.064 369.463 100.07 369.467ZM99.9598 369.433C99.9598 369.433 99.955 369.433 99.9541 369.429L99.9598 369.433ZM99.6245 369.329L99.6188 369.325L99.6245 369.329ZM99.5191 369.293C99.5143 369.294 99.5134 369.289 99.5086 369.29L99.5191 369.293ZM99.1829 369.185C99.1781 369.185 99.1773 369.181 99.1725 369.182C99.1773 369.181 99.1781 369.185 99.1829 369.185ZM99.0727 369.15C99.0719 369.145 99.067 369.146 99.0622 369.147C99.067 369.146 99.0719 369.145 99.0727 369.15ZM98.7405 369.036C98.7357 369.036 98.73 369.033 98.73 369.033C98.73 369.033 98.7357 369.036 98.7405 369.036ZM98.6303 369.001C98.6294 368.996 98.6247 368.997 98.619 368.993C98.6247 368.997 98.6246 368.997 98.6303 369.001ZM98.2972 368.882C98.2924 368.883 98.2868 368.879 98.282 368.88C98.2868 368.879 98.2924 368.883 98.2972 368.882ZM98.1862 368.842C98.1814 368.843 98.1766 368.844 98.1757 368.839C98.1766 368.844 98.1814 368.843 98.1862 368.842ZM97.8482 368.724C97.8482 368.724 97.8483 368.724 97.8426 368.72C97.8435 368.725 97.8482 368.724 97.8482 368.724ZM97.742 368.684C97.7372 368.684 97.7324 368.685 97.7316 368.68C97.7372 368.684 97.7372 368.684 97.742 368.684ZM97.4033 368.561C97.4033 368.561 97.3985 368.561 97.3976 368.557C97.3985 368.561 97.4033 368.561 97.4033 368.561ZM97.2971 368.52C97.2923 368.521 97.2922 368.521 97.2866 368.517C97.2922 368.521 97.2923 368.521 97.2971 368.52ZM96.9631 368.396C96.9575 368.392 96.9575 368.392 96.9527 368.393C96.9575 368.392 96.9575 368.392 96.9631 368.396ZM96.8512 368.352C96.8512 368.352 96.8464 368.353 96.8407 368.349C96.8464 368.353 96.8512 368.352 96.8512 368.352ZM96.5164 368.223C96.5164 368.223 96.5108 368.219 96.506 368.22C96.5108 368.219 96.5164 368.223 96.5164 368.223ZM96.4102 368.183C96.4045 368.179 96.3998 368.18 96.3989 368.175C96.3998 368.18 96.4045 368.179 96.4102 368.183ZM96.0746 368.049C96.0689 368.046 96.0641 368.046 96.0632 368.042C96.0641 368.046 96.0689 368.046 96.0746 368.049ZM95.9675 368.004C95.9618 368 95.957 368.001 95.9513 367.997C95.957 368.001 95.9618 368 95.9675 368.004ZM95.6309 367.866C95.6261 367.867 95.6204 367.863 95.6156 367.864C95.6204 367.863 95.6261 367.867 95.6309 367.866ZM95.5238 367.821C95.519 367.822 95.5133 367.818 95.5085 367.819C95.5133 367.818 95.519 367.822 95.5238 367.821ZM95.1873 367.683C95.1816 367.679 95.1769 367.68 95.1712 367.676C95.1769 367.68 95.1816 367.679 95.1873 367.683ZM95.0802 367.637C95.0745 367.633 95.0698 367.634 95.0641 367.63C95.0698 367.634 95.0745 367.633 95.0802 367.637ZM79.2994 358.256C73.353 353.694 68.213 348.489 64.7062 343.642C68.213 348.489 73.353 353.694 79.2994 358.256Z" fill="#D5DEE2"/>
<path d="M136.658 314.087C151.028 310.947 137.686 364.018 117.895 368.342C101.453 371.934 65.5282 329.969 79.8945 326.83L136.658 314.087Z" fill="url(#paint0_linear_1505_2100)"/>
<path d="M117.969 368.325C117.991 368.321 118.013 368.316 118.034 368.311C118.042 368.31 118.049 368.308 118.056 368.306C118.071 368.303 118.085 368.3 118.1 368.297C118.107 368.295 118.118 368.293 118.125 368.291C118.14 368.288 118.154 368.285 118.171 368.276C118.179 368.275 118.182 368.274 118.19 368.272C118.211 368.268 118.237 368.262 118.259 368.257C118.28 368.252 118.302 368.248 118.324 368.243C118.331 368.241 118.338 368.24 118.346 368.238C118.36 368.235 118.374 368.227 118.392 368.223C118.399 368.222 118.406 368.22 118.414 368.218C118.428 368.215 118.446 368.211 118.461 368.208C118.468 368.206 118.475 368.205 118.483 368.203C118.5 368.195 118.525 368.189 118.543 368.185C118.547 368.184 118.551 368.183 118.551 368.183C118.572 368.179 118.593 368.169 118.611 368.165C118.619 368.164 118.626 368.162 118.633 368.16C118.648 368.157 118.666 368.153 118.679 368.145C118.687 368.144 118.697 368.141 118.705 368.14C118.719 368.137 118.734 368.133 118.748 368.13C118.754 368.124 118.762 368.122 118.769 368.121C118.791 368.116 118.813 368.111 118.83 368.103C118.833 368.102 118.841 368.1 118.844 368.099C118.862 368.095 118.881 368.091 118.901 368.082C118.909 368.08 118.916 368.079 118.923 368.077C118.938 368.074 118.952 368.071 118.966 368.063C118.977 368.06 118.984 368.059 118.991 368.057C119.006 368.054 119.019 368.046 119.034 368.043C119.041 368.041 119.052 368.039 119.059 368.037C119.08 368.028 119.098 368.024 119.119 368.015C119.122 368.014 119.126 368.013 119.13 368.012C119.151 368.007 119.169 367.999 119.187 367.995C119.198 367.992 119.201 367.992 119.212 367.989C119.226 367.981 119.24 367.978 119.255 367.975C119.261 367.969 119.272 367.966 119.279 367.965C119.294 367.961 119.307 367.953 119.322 367.95C119.329 367.949 119.336 367.947 119.343 367.946C119.364 367.936 119.386 367.931 119.403 367.923C119.407 367.922 119.414 367.92 119.421 367.919C119.438 367.91 119.456 367.906 119.474 367.897C119.481 367.896 119.488 367.894 119.499 367.892C119.513 367.884 119.523 367.881 119.538 367.878C119.548 367.871 119.555 367.869 119.566 367.867C119.577 367.865 119.594 367.856 119.608 367.853C119.616 367.851 119.622 367.845 119.629 367.843C119.647 367.839 119.664 367.831 119.686 367.826C119.692 367.819 119.7 367.818 119.711 367.815C119.724 367.808 119.742 367.804 119.759 367.795C119.767 367.793 119.774 367.792 119.785 367.789C119.795 367.782 119.809 367.779 119.823 367.771C119.834 367.769 119.841 367.767 119.851 367.76C119.865 367.757 119.876 367.754 119.89 367.747C119.897 367.745 119.908 367.743 119.914 367.736C119.932 367.732 119.949 367.724 119.967 367.72C119.977 367.712 119.985 367.711 119.994 367.704C120.013 367.7 120.026 367.692 120.041 367.689C120.051 367.686 120.058 367.68 120.069 367.678C120.082 367.67 120.093 367.667 120.108 367.664C120.114 367.658 120.125 367.655 120.135 367.648C120.149 367.645 120.16 367.643 120.173 367.635C120.181 367.633 120.191 367.626 120.198 367.624C120.215 367.616 120.229 367.613 120.243 367.605C120.257 367.601 120.271 367.594 120.285 367.59C120.295 367.583 120.31 367.58 120.323 367.572C120.334 367.57 120.344 367.563 120.351 367.561C120.365 367.553 120.376 367.551 120.387 367.548C120.396 367.541 120.407 367.539 120.421 367.531C120.432 367.529 120.442 367.521 120.453 367.519C120.462 367.512 120.473 367.509 120.483 367.502C120.494 367.5 120.508 367.492 120.518 367.49C120.536 367.481 120.553 367.472 120.571 367.468C120.581 367.461 120.595 367.458 120.605 367.451C120.616 367.448 120.626 367.441 120.637 367.439C120.647 367.432 120.657 367.429 120.667 367.422C120.682 367.419 120.688 367.413 120.703 367.41C120.712 367.403 120.723 367.4 120.733 367.393C120.744 367.391 120.754 367.383 120.765 367.381C120.775 367.374 120.788 367.366 120.799 367.364C120.816 367.355 120.837 367.345 120.854 367.337C120.865 367.334 120.875 367.327 120.886 367.325C120.896 367.318 120.906 367.315 120.92 367.307C120.93 367.3 120.937 367.299 120.947 367.292C120.962 367.288 120.971 367.281 120.982 367.279C120.992 367.272 121.003 367.269 121.013 367.262C121.024 367.26 121.034 367.253 121.047 367.245C121.054 367.243 121.064 367.236 121.071 367.234C121.096 367.224 121.117 367.215 121.136 367.2C121.147 367.198 121.153 367.192 121.164 367.189C121.178 367.181 121.189 367.179 121.202 367.171C121.208 367.165 121.216 367.163 121.227 367.161C121.24 367.153 121.25 367.146 121.263 367.138C121.271 367.136 121.28 367.129 121.288 367.127C121.301 367.12 121.312 367.117 121.326 367.109C121.333 367.108 121.336 367.102 121.343 367.101C121.37 367.085 121.398 367.074 121.425 367.058C121.428 367.057 121.435 367.051 121.442 367.049C121.455 367.041 121.469 367.033 121.483 367.03C121.49 367.024 121.497 367.022 121.503 367.016C121.518 367.013 121.531 367.005 121.545 366.997C121.551 366.99 121.558 366.989 121.565 366.987C121.579 366.979 121.592 366.971 121.606 366.963C121.609 366.963 121.609 366.963 121.613 366.962C121.644 366.945 121.674 366.929 121.705 366.912C121.711 366.906 121.715 366.905 121.718 366.904C121.732 366.896 121.749 366.887 121.762 366.879C121.766 366.879 121.772 366.872 121.78 366.871C121.793 366.863 121.807 366.855 121.824 366.846C121.827 366.845 121.83 366.84 121.837 366.838C121.889 366.812 121.939 366.781 121.99 366.755C121.993 366.749 121.993 366.749 121.993 366.749C122.01 366.741 122.023 366.733 122.041 366.724C122.044 366.723 122.047 366.718 122.054 366.716C122.068 366.708 122.085 366.7 122.102 366.691C122.105 366.69 122.104 366.685 122.108 366.684C122.179 366.644 122.25 366.604 122.321 366.563L122.324 366.558C122.341 366.549 122.358 366.54 122.378 366.526C122.378 366.526 122.378 366.526 122.381 366.525C122.452 366.485 122.522 366.44 122.593 366.394C122.596 366.394 122.596 366.394 122.6 366.393C125.456 364.629 128.123 361.911 130.521 358.625C133.791 354.137 136.561 348.58 138.638 342.92C140.452 337.969 141.739 332.94 142.359 328.479C137.872 339.359 130.882 349.233 122.813 350.996C112.6 353.228 94.8739 337.854 86.2941 325.09L79.8418 326.54C76.8747 327.188 76.0505 329.493 76.7517 332.72C77.6962 337.043 81.3858 343.011 86.3501 348.839C90.4034 353.598 95.3033 358.261 100.251 361.854C106.66 366.511 113.15 369.378 117.969 368.325Z" fill="#87A6C3"/>
<path d="M95.5429 337.94C89.7538 339.031 87.9172 345.346 89.528 349.224L119.883 414.975L131.119 405.269L105.132 342.651C103.521 338.773 99.3729 337.222 95.5429 337.94Z" fill="#043340"/>
<path d="M103.649 393.092L108.689 476.97L155.032 471.693L128.403 391.095C127.007 386.863 124.459 383.017 121.531 381.824C118.365 380.538 113.976 381.158 110.848 382.315C107.338 383.612 103.362 389.261 103.649 393.092Z" fill="url(#paint1_linear_1505_2100)"/>
<path d="M155.032 471.693L108.689 476.97L103.649 393.092C103.602 392.451 103.675 391.757 103.843 391.038C103.848 391.023 103.85 391.014 103.851 391C103.854 390.995 103.853 390.991 103.856 390.985C103.856 390.985 103.855 390.981 103.859 390.98C103.923 390.715 103.999 390.446 104.09 390.178C110.179 422.09 124.407 470.088 155.032 471.693Z" fill="#87A6C3"/>
<path d="M125.84 429.452L140.704 428.329C140.574 427.932 140.439 427.536 140.309 427.139L140.272 427.029L125.625 428.134L117.969 381.121C117.524 381.104 117.072 381.106 116.619 381.126L126.988 444.773L106.971 448.407L106.976 448.477C106.98 448.525 106.983 448.573 106.986 448.617L107.053 449.746L127.202 446.086L131.804 474.337L132.262 474.285L133.129 474.187L125.84 429.452Z" fill="url(#paint2_linear_1505_2100)"/>
<path d="M105.134 457.409C105.162 457.769 104.888 458.088 104.527 458.116C104.161 458.141 103.849 457.87 103.819 457.505C103.789 457.14 104.065 456.826 104.426 456.798C104.791 456.768 105.109 457.043 105.134 457.409Z" fill="#4890C0"/>
<path d="M105.832 426.916C105.829 427.347 105.477 427.702 105.041 427.701C104.605 427.699 104.255 427.346 104.256 426.91C104.259 426.478 104.612 426.128 105.047 426.125C105.478 426.127 105.828 426.481 105.832 426.916Z" fill="#4890C0"/>
<path d="M110.164 490.922C110.164 490.922 179.759 490.98 183.814 488.67C187.869 486.36 162.217 460.511 154.053 458.732C143.862 456.508 118.533 468.49 108.688 476.97C103.887 481.106 110.164 490.922 110.164 490.922Z" fill="url(#paint3_linear_1505_2100)"/>
<path d="M134.352 487.147C134.352 487.147 127.983 470.995 131.656 463.657C122.683 467.453 113.688 472.663 108.687 476.97C103.886 481.106 110.163 490.922 110.163 490.922C110.163 490.922 174.607 490.976 183.083 488.918C161.645 488.688 134.352 487.147 134.352 487.147Z" fill="#043340"/>
<path d="M49.7929 240.115C55.2412 220.944 74.4576 208.471 81.4082 207.295C99.5502 204.217 111.236 203.983 129.516 205.563C131.736 205.758 139.076 207.997 141.135 209.207C151.965 215.573 163.385 228.73 167.259 241.754C170.254 251.828 145.785 306.161 137.417 307.59C115.344 311.366 99.8592 311.166 82.264 309.322C63.9699 307.4 47.1163 249.55 49.7929 240.115Z" fill="url(#paint4_linear_1505_2100)"/>
<path d="M96.6431 297.792L126.238 290.412L125.814 309.314L127.777 309.051L128.573 273.48L152.456 286.573L153.603 284.286L128.63 270.832L129.709 222.671L127.751 222.603L126.295 287.885L95.5112 295.562C95.8847 296.329 96.2583 297.073 96.6431 297.792Z" fill="url(#paint5_linear_1505_2100)"/>
<path d="M90.9694 217.111C90.9694 223.488 101.717 228.655 114.976 228.655C128.234 228.655 138.982 223.488 138.982 217.111C138.982 210.735 128.234 205.562 114.976 205.562C101.717 205.562 90.9694 210.735 90.9694 217.111Z" fill="#032630"/>
<path d="M114.975 205.562C115.594 205.562 116.203 205.577 116.812 205.597C104.412 206.05 94.6388 211.032 94.6388 217.111C94.6388 223.19 104.412 228.173 116.812 228.621C116.203 228.646 115.594 228.655 114.975 228.655C101.716 228.655 90.9684 223.488 90.9684 217.111C90.9684 210.735 101.716 205.562 114.975 205.562Z" fill="#5B8295"/>
<path d="M38.7573 247.567L41.3542 245.354C44.7198 231.502 83.6771 209.288 83.6771 209.288C83.6771 209.288 87.3732 213.808 87.687 214.261C90.7184 218.615 93.3851 225.626 84.8415 236.085C76.2922 246.539 53.8152 259.088 42.8063 252.291C42.1516 251.886 38.7573 247.567 38.7573 247.567Z" fill="#032630"/>
<path d="M182.511 246.041L180.354 244.184C177.228 232.911 150.74 207.141 150.74 207.141C150.74 207.141 147.626 210.188 147.445 210.465C145.697 213.129 144.361 217.882 150.729 227.696C157.101 237.507 172.905 251.929 179.824 249.149C180.236 248.983 182.511 246.041 182.511 246.041Z" fill="#032630"/>
<path d="M149.723 208.535C147.972 210.997 146.636 215.451 153.028 224.884C159.423 234.322 175.28 248.367 182.22 245.93C189.156 243.491 158.209 196.601 149.723 208.535Z" fill="url(#paint6_linear_1505_2100)"/>
<path d="M183.213 244.89C181.666 242.488 172.989 229.058 167.771 222.403C167.961 219.841 165.616 215.544 162.028 212.133C157.947 208.256 153.804 206.993 152.776 209.312C151.744 211.633 154.219 216.657 158.297 220.531C162.094 224.139 165.941 225.482 167.287 223.785C172.56 230.549 182.465 246.034 182.465 246.034C182.863 245.82 183.106 245.431 183.213 244.89Z" fill="url(#paint7_linear_1505_2100)"/>
<path d="M133.047 390.709C133.046 390.694 133.045 390.68 133.044 390.665C133.045 390.68 133.046 390.694 133.047 390.709ZM133.043 390.646C133.042 390.636 133.041 390.626 133.041 390.617C133.041 390.626 133.042 390.636 133.043 390.646ZM133.04 390.597C133.039 390.587 133.038 390.578 133.038 390.568C133.038 390.578 133.039 390.587 133.04 390.597ZM133.037 390.553C133.036 390.539 133.035 390.529 133.034 390.519C133.035 390.529 133.036 390.539 133.037 390.553ZM133.038 390.504C133.038 390.495 133.037 390.48 133.036 390.47C133.037 390.48 133.037 390.49 133.038 390.504ZM133.035 390.456C133.035 390.446 133.034 390.431 133.033 390.422C133.034 390.431 133.035 390.446 133.035 390.456ZM133.032 390.407C133.036 390.397 133.035 390.382 133.035 390.373C133.035 390.382 133.036 390.397 133.032 390.407ZM133.034 390.358C133.033 390.348 133.032 390.334 133.031 390.324C133.032 390.334 133.033 390.348 133.034 390.358ZM133.036 390.314C133.035 390.299 133.034 390.285 133.033 390.27C133.034 390.285 133.035 390.299 133.036 390.314ZM133.032 390.265C133.036 390.25 133.035 390.236 133.034 390.216C133.035 390.236 133.036 390.25 133.032 390.265ZM133.034 390.216C133.037 390.182 133.035 390.148 133.037 390.109C133.035 390.148 133.037 390.182 133.034 390.216Z" fill="#D5DEE2"/>
<path d="M133.036 390.109C133.053 389.56 133.147 388.982 133.299 388.391C133.147 388.982 133.053 389.56 133.036 390.109Z" fill="#D5DEE2"/>
<path d="M133.036 390.109C133.053 389.56 133.147 388.982 133.299 388.391C133.147 388.982 133.053 389.56 133.036 390.109Z" fill="#043340"/>
<path d="M86.2246 393.887C86.2233 393.868 86.2224 393.853 86.2214 393.839C86.2224 393.853 86.2233 393.868 86.2246 393.887ZM86.2205 393.824C86.2195 393.809 86.2189 393.8 86.2182 393.79C86.2189 393.8 86.2195 393.809 86.2205 393.824ZM86.2169 393.77C86.2163 393.761 86.2157 393.751 86.215 393.741C86.2157 393.751 86.2163 393.761 86.2169 393.77ZM86.2138 393.722C86.2131 393.712 86.2125 393.702 86.2122 393.697C86.2125 393.702 86.2131 393.712 86.2138 393.722ZM86.2106 393.673C86.2054 393.669 86.2048 393.659 86.2041 393.649C86.2048 393.659 86.2054 393.669 86.2106 393.673ZM86.2028 393.63C86.2022 393.62 86.2016 393.61 86.2009 393.6C86.2016 393.61 86.2022 393.62 86.2028 393.63ZM86.1997 393.581C86.199 393.571 86.1935 393.562 86.1929 393.552C86.1935 393.562 86.199 393.571 86.1997 393.581ZM86.1916 393.533C86.191 393.523 86.1903 393.513 86.1897 393.504C86.1903 393.513 86.191 393.523 86.1916 393.533ZM86.1836 393.484C86.1829 393.475 86.1823 393.465 86.1817 393.455C86.1823 393.465 86.1829 393.475 86.1836 393.484ZM86.1804 393.436C86.1797 393.426 86.1742 393.417 86.1735 393.407C86.1742 393.417 86.1797 393.426 86.1804 393.436ZM86.1723 393.387C86.1716 393.378 86.1661 393.368 86.1652 393.354C86.1661 393.368 86.1716 393.378 86.1723 393.387ZM86.1642 393.339C86.1636 393.329 86.1578 393.315 86.1571 393.305C86.1578 393.315 86.1636 393.329 86.1642 393.339ZM86.1562 393.291C86.1552 393.276 86.1497 393.267 86.1488 393.252C86.1497 393.267 86.1552 393.276 86.1562 393.291ZM86.1481 393.242C86.1343 393.18 86.1249 393.112 86.1107 393.045C86.1249 393.112 86.1343 393.18 86.1481 393.242ZM86.1107 393.045C86.1046 393.025 86.1036 393.011 86.0978 392.997C86.1036 393.011 86.1046 393.025 86.1107 393.045ZM86.0974 392.992C86.0965 392.977 86.0907 392.963 86.0894 392.943C86.0907 392.963 86.0965 392.977 86.0974 392.992ZM86.0891 392.939C86.0833 392.924 86.0823 392.91 86.0765 392.895C86.0823 392.91 86.0833 392.924 86.0891 392.939ZM86.0762 392.891C86.0704 392.876 86.0694 392.862 86.0635 392.847C86.0694 392.862 86.0704 392.876 86.0762 392.891ZM86.0629 392.838C86.0619 392.823 86.0561 392.809 86.0552 392.794C86.0561 392.809 86.0619 392.823 86.0629 392.838ZM86.05 392.79C86.0491 392.775 86.0433 392.761 86.0423 392.746C86.0433 392.761 86.0491 392.775 86.05 392.79ZM86.042 392.741C86.0358 392.722 86.03 392.708 86.029 392.693C86.03 392.708 86.0358 392.722 86.042 392.741ZM86.0287 392.688C85.8669 392.084 85.6256 391.459 85.316 390.835C85.6256 391.459 85.8669 392.084 86.0287 392.688Z" fill="#D5DEE2"/>
<path d="M108.969 366.44C108.979 366.439 108.989 366.439 108.999 366.438C108.989 366.439 108.979 366.439 108.969 366.44ZM109.057 366.434C109.071 366.433 109.081 366.433 109.091 366.432C109.081 366.433 109.067 366.434 109.057 366.434ZM109.154 366.423C109.164 366.423 109.168 366.422 109.178 366.422C109.168 366.422 109.164 366.423 109.154 366.423ZM109.358 366.41C109.368 366.409 109.378 366.408 109.387 366.408C109.378 366.408 109.368 366.409 109.358 366.41ZM109.45 366.399C109.46 366.398 109.47 366.398 109.479 366.397C109.47 366.398 109.46 366.398 109.45 366.399ZM109.543 366.393C109.552 366.392 109.562 366.391 109.572 366.391C109.562 366.391 109.552 366.392 109.543 366.393ZM109.654 366.381C109.659 366.38 109.664 366.38 109.664 366.38C109.664 366.38 109.659 366.38 109.654 366.381ZM109.746 366.37C109.756 366.369 109.766 366.368 109.775 366.368C109.766 366.368 109.756 366.369 109.746 366.37ZM109.838 366.359C109.848 366.358 109.858 366.357 109.872 366.356C109.863 366.357 109.848 366.358 109.838 366.359ZM109.931 366.353C109.94 366.347 109.95 366.346 109.96 366.346C109.95 366.346 109.94 366.347 109.931 366.353ZM110.042 366.336C110.047 366.335 110.052 366.335 110.062 366.334C110.057 366.335 110.047 366.335 110.042 366.336ZM110.139 366.324C110.149 366.324 110.158 366.323 110.168 366.322C110.158 366.323 110.149 366.324 110.139 366.324ZM110.226 366.314C110.241 366.313 110.251 366.312 110.26 366.311C110.251 366.312 110.241 366.313 110.226 366.314ZM110.318 366.303C110.328 366.302 110.343 366.301 110.352 366.3C110.343 366.301 110.328 366.302 110.318 366.303ZM110.434 366.285C110.439 366.285 110.444 366.285 110.449 366.284C110.444 366.285 110.439 366.285 110.434 366.285ZM110.527 366.274C110.536 366.274 110.551 366.273 110.561 366.272C110.546 366.273 110.541 366.273 110.527 366.274ZM110.619 366.264C110.628 366.258 110.638 366.257 110.652 366.256C110.643 366.257 110.628 366.258 110.619 366.264ZM110.71 366.248C110.72 366.247 110.73 366.246 110.74 366.246C110.73 366.246 110.72 366.247 110.71 366.248ZM110.822 366.231C110.831 366.23 110.836 366.23 110.846 366.229C110.836 366.23 110.826 366.23 110.822 366.231ZM110.918 366.215C110.928 366.214 110.938 366.213 110.952 366.212C110.938 366.213 110.928 366.214 110.918 366.215ZM111.006 366.204C111.02 366.198 111.029 366.197 111.044 366.197C111.029 366.197 111.02 366.198 111.006 366.204ZM111.102 366.188C111.112 366.187 111.121 366.182 111.131 366.181C111.121 366.182 111.112 366.187 111.102 366.188ZM111.209 366.171C111.218 366.166 111.228 366.165 111.242 366.164C111.228 366.165 111.218 366.166 111.209 366.171ZM111.31 366.15C111.319 366.149 111.329 366.148 111.344 366.148C111.329 366.148 111.319 366.149 111.31 366.15ZM111.397 366.134C111.411 366.133 111.421 366.133 111.435 366.127C111.421 366.133 111.411 366.133 111.397 366.134ZM111.488 366.119C111.498 366.118 111.513 366.117 111.522 366.111C111.513 366.117 111.498 366.118 111.488 366.119ZM111.595 366.102C111.609 366.096 111.624 366.095 111.633 366.089C111.619 366.095 111.609 366.096 111.595 366.102ZM111.696 366.08C111.711 366.08 111.72 366.074 111.735 366.073C111.72 366.074 111.711 366.08 111.696 366.08ZM111.788 366.065C111.797 366.059 111.812 366.058 111.826 366.052C111.812 366.058 111.797 366.059 111.788 366.065ZM111.879 366.044C111.889 366.043 111.903 366.038 111.913 366.037C111.903 366.038 111.889 366.043 111.879 366.044ZM111.976 366.023C111.995 366.022 112.014 366.016 112.034 366.014C112.014 366.016 111.995 366.022 111.976 366.023ZM112.086 366.001C112.101 366 112.115 365.994 112.125 365.994C112.115 365.994 112.101 366 112.086 366.001ZM112.173 365.986C112.188 365.98 112.207 365.979 112.221 365.973C112.202 365.979 112.188 365.98 112.173 365.986ZM112.265 365.965C112.279 365.959 112.294 365.958 112.308 365.952C112.294 365.958 112.279 365.959 112.265 365.965ZM112.356 365.944C112.38 365.938 112.404 365.931 112.429 365.93C112.404 365.931 112.38 365.938 112.356 365.944ZM112.477 365.917C112.491 365.916 112.505 365.91 112.52 365.909C112.505 365.91 112.491 365.916 112.477 365.917ZM112.563 365.896C112.578 365.896 112.597 365.889 112.611 365.888C112.592 365.89 112.583 365.895 112.563 365.896ZM112.655 365.876C112.669 365.875 112.683 365.869 112.698 365.868C112.683 365.869 112.669 365.875 112.655 365.876ZM112.746 365.855C112.77 365.849 112.799 365.842 112.823 365.836C112.799 365.842 112.77 365.849 112.746 365.855ZM112.866 365.828C112.881 365.822 112.895 365.821 112.914 365.815C112.895 365.821 112.881 365.822 112.866 365.828ZM112.953 365.803C112.972 365.801 112.986 365.795 113.001 365.794C112.986 365.795 112.972 365.801 112.953 365.803ZM113.044 365.782C113.059 365.781 113.073 365.775 113.092 365.769C113.073 365.775 113.059 365.781 113.044 365.782ZM113.126 365.762C113.155 365.755 113.188 365.748 113.217 365.736C113.188 365.748 113.16 365.755 113.126 365.762ZM113.256 365.729C113.27 365.723 113.289 365.722 113.308 365.716C113.289 365.722 113.275 365.723 113.256 365.729ZM113.342 365.709C113.361 365.702 113.376 365.697 113.395 365.69C113.376 365.697 113.361 365.702 113.342 365.709ZM113.428 365.683C113.448 365.677 113.467 365.676 113.481 365.67C113.462 365.676 113.448 365.677 113.428 365.683ZM113.505 365.664C113.544 365.651 113.582 365.644 113.62 365.632C113.582 365.644 113.544 365.651 113.505 365.664ZM113.644 365.625C113.664 365.619 113.683 365.613 113.702 365.612C113.683 365.613 113.664 365.619 113.644 365.625ZM113.731 365.6C113.75 365.594 113.769 365.593 113.788 365.586C113.769 365.593 113.75 365.599 113.731 365.6ZM113.817 365.58C113.837 365.574 113.856 365.567 113.875 365.561C113.856 365.567 113.837 365.574 113.817 365.58ZM113.884 365.561C113.928 365.548 113.971 365.535 114.014 365.523C113.971 365.535 113.928 365.548 113.884 365.561ZM114.033 365.517C114.052 365.511 114.076 365.504 114.095 365.498C114.076 365.504 114.052 365.511 114.033 365.517ZM114.119 365.491C114.138 365.485 114.158 365.479 114.182 365.473C114.158 365.479 114.138 365.485 114.119 365.491ZM114.201 365.467C114.273 365.447 114.344 365.423 114.416 365.404C114.344 365.423 114.273 365.447 114.201 365.467ZM114.421 365.398C114.445 365.392 114.464 365.386 114.488 365.379C114.464 365.386 114.445 365.392 114.421 365.398ZM114.507 365.373C114.526 365.367 114.55 365.361 114.574 365.354C114.55 365.361 114.526 365.367 114.507 365.373ZM114.584 365.349C114.684 365.318 114.785 365.287 114.885 365.256C114.785 365.287 114.684 365.318 114.584 365.349ZM114.89 365.25C114.914 365.244 114.938 365.237 114.967 365.226C114.938 365.237 114.914 365.244 114.89 365.25ZM114.971 365.225C115.072 365.194 115.172 365.159 115.272 365.123C115.172 365.159 115.072 365.194 114.971 365.225ZM115.282 365.122C119.353 363.736 123.385 361.381 127.191 358.414C123.384 361.376 119.353 363.736 115.282 365.122ZM141.06 343.835C144.469 339.136 147.214 334.295 148.979 329.934C147.214 334.295 144.469 339.136 141.059 343.83L141.06 343.835Z" fill="#D5DEE2"/>
<path d="M127.191 358.415C132.382 354.371 137.157 349.196 141.06 343.835L141.06 343.83C137.157 349.196 132.382 354.371 127.191 358.415Z" fill="#D5DEE2"/>
<path d="M127.191 358.415C132.382 354.371 137.157 349.196 141.06 343.835L141.06 343.83C137.157 349.196 132.382 354.371 127.191 358.415Z" fill="#043340"/>
<path d="M93.7999 187.603C94.3946 216.541 91.5117 215.103 96.5117 221.603C99.5581 225.563 101.532 227.103 107.532 228.103C112.012 228.603 114.512 229.103 118.012 228.603C119.26 226.57 120.512 220.222 120.512 217.657V187.603H93.7999Z" fill="#043340"/>
<path d="M106.195 51.6351L103.442 52.1399L101.105 39.4269L87.8398 37.567L104.675 29.2493L98.8795 27.308L96.396 13.794L99.1478 13.2843L101.336 25.177L112.007 28.7508L97.2241 36.0558L103.492 36.9318L106.195 51.6351Z" fill="black"/>
<path d="M102.64 6.47353C103.248 9.76766 101.065 12.9358 97.7705 13.5392C94.476 14.1426 91.3089 11.9638 90.7054 8.66886C90.0964 5.36991 92.2804 2.20661 95.5749 1.6032C98.8743 0.998999 102.037 3.17862 102.64 6.47353Z" fill="black"/>
<path d="M114.51 73.603L104.312 181.072C165.617 186.889 217.596 167.548 220.412 137.871C223.228 108.198 175.814 79.4202 114.51 73.603Z" fill="#043340"/>
<path d="M215.205 118.396C213.956 116.412 212.495 114.456 210.836 112.541C210.148 129.713 205.057 149.552 197.006 167.019C199.623 165.578 202.054 164.051 204.28 162.435C210.133 147.952 213.936 132.501 215.205 118.396Z" fill="#A2BFDC"/>
<path d="M142.494 206.539C121.055 201.405 99.0477 198.837 76.932 198.927C26.0629 199.139 15.4314 120.47 26.2941 82.4139C31.8308 63.0089 54.7664 50.9059 73.4126 48.2387C107.203 43.4044 142.546 46.2537 175.077 56.5096C192.53 62.0686 208.987 76.0683 214.245 94.4409C225.222 132.821 191.061 218.175 142.494 206.539Z" fill="url(#paint8_linear_1505_2100)"/>
<path d="M72.2924 198.722C72.2878 198.721 72.2832 198.721 72.2786 198.72C72.2832 198.721 72.2878 198.721 72.2924 198.722ZM72.2924 198.722C73.7491 198.86 75.2443 198.933 76.77 198.931C75.2397 198.933 73.7491 198.86 72.2924 198.722ZM26.12 83.034C26.1329 82.996 26.1411 82.9576 26.154 82.9197C26.1411 82.9576 26.1329 82.996 26.12 83.034ZM85.8777 46.8065C91.0902 46.356 96.3275 46.0842 101.571 45.9892C96.3275 46.0842 91.0902 46.356 85.8777 46.8065Z" fill="#D5DEE2"/>
<path d="M72.2935 198.722C72.2889 198.722 72.2843 198.721 72.2797 198.721C25.681 194.289 15.8794 120.116 26.1211 83.0342C26.1339 82.9962 26.1422 82.9579 26.1551 82.9199C26.1988 82.7527 26.2471 82.5858 26.2958 82.4142C31.8325 63.0092 54.7681 50.9062 73.4143 48.2389C77.5506 47.6471 81.7039 47.1696 85.8788 46.8067C91.0913 46.3563 96.3286 46.0844 101.572 45.9895C110.351 45.8284 119.147 46.1636 127.896 46.9938C131.494 47.3352 135.084 47.7591 138.661 48.27C131.794 48.6221 124.957 49.2809 118.179 50.2537C99.5333 52.9161 76.6018 65.0244 71.0651 84.4294C60.2024 122.486 99.0494 198.837 76.9337 198.927C76.8777 198.932 76.8267 198.932 76.7711 198.931C75.2454 198.934 73.7501 198.86 72.2935 198.722Z" fill="#87A6C3"/>
<mask id="path-38-inside-1_1505_2100" fill="white">
<path d="M177.658 171.215C170.692 173.913 163.376 175.276 156.707 175.808C135.48 177.511 110.59 173.205 93.6753 156.87C86.0815 149.539 80.6281 139.139 80.273 126.432C80.2463 125.411 80.215 124.39 80.1883 123.369C79.5124 99.0892 95.2257 78.3533 114.222 78.2558C137.128 78.1377 159.929 80.3012 182.405 84.7257C201.043 88.3943 212.576 111.716 207.345 135.435C207.137 136.375 206.929 137.315 206.721 138.255C202.751 156.261 190.825 166.118 177.658 171.215Z"/>
</mask>
<path d="M177.658 171.215C170.692 173.913 163.376 175.276 156.707 175.808C135.48 177.511 110.59 173.205 93.6753 156.87C86.0815 149.539 80.6281 139.139 80.273 126.432C80.2463 125.411 80.215 124.39 80.1883 123.369C79.5124 99.0892 95.2257 78.3533 114.222 78.2558C137.128 78.1377 159.929 80.3012 182.405 84.7257C201.043 88.3943 212.576 111.716 207.345 135.435C207.137 136.375 206.929 137.315 206.721 138.255C202.751 156.261 190.825 166.118 177.658 171.215Z" fill="url(#paint9_linear_1505_2100)"/>
<path d="M156.707 175.808L156.547 173.815L156.547 173.815L156.707 175.808ZM93.6753 156.87L95.0645 155.431L95.0647 155.431L93.6753 156.87ZM80.273 126.432L78.2737 126.488L78.2736 126.485L80.273 126.432ZM80.1883 123.369L82.1875 123.313L82.1876 123.316L80.1883 123.369ZM114.222 78.2558L114.232 80.2558L114.232 80.2558L114.222 78.2558ZM182.405 84.7257L182.018 86.6881L182.018 86.688L182.405 84.7257ZM207.345 135.435L209.298 135.865L209.298 135.867L207.345 135.435ZM206.721 138.255L204.768 137.824L204.768 137.822L206.721 138.255ZM178.38 173.08C171.193 175.864 163.68 177.258 156.866 177.802L156.547 173.815C163.072 173.293 170.19 171.963 176.936 169.35L178.38 173.08ZM156.867 177.802C135.341 179.528 109.776 175.199 92.286 158.309L95.0647 155.431C111.404 171.21 135.62 175.493 156.547 173.815L156.867 177.802ZM92.2862 158.309C84.3521 150.649 78.6448 139.766 78.2737 126.488L82.2722 126.376C82.6113 138.512 87.8109 148.428 95.0645 155.431L92.2862 158.309ZM78.2736 126.485C78.2604 125.977 78.2459 125.468 78.2314 124.957C78.217 124.447 78.2024 123.934 78.189 123.421L82.1876 123.316C82.2009 123.824 82.2153 124.333 82.2298 124.844C82.2443 125.354 82.2589 125.867 82.2723 126.38L78.2736 126.485ZM78.1891 123.424C77.839 110.85 81.7288 99.1469 88.2322 90.5384C94.732 81.9347 103.949 76.3085 114.211 76.2558L114.232 80.2558C105.499 80.3006 97.3606 85.0911 91.4238 92.9496C85.4906 100.803 81.8617 111.608 82.1875 123.313L78.1891 123.424ZM114.211 76.2558C137.251 76.137 160.184 78.3132 182.791 82.7634L182.018 86.688C159.673 82.2893 137.006 80.1384 114.232 80.2558L114.211 76.2558ZM182.791 82.7634C192.861 84.7454 200.854 92.0047 205.62 101.677C210.388 111.355 212.007 123.581 209.298 135.865L205.392 135.004C207.914 123.569 206.382 112.275 202.032 103.445C197.679 94.6103 190.587 88.3747 182.018 86.6881L182.791 82.7634ZM209.298 135.867C209.194 136.337 209.09 136.807 208.986 137.277C208.882 137.747 208.778 138.217 208.673 138.687L204.768 137.822C204.872 137.352 204.976 136.882 205.08 136.412C205.184 135.942 205.289 135.472 205.393 135.002L209.298 135.867ZM208.674 138.685C204.526 157.498 192.011 167.804 178.38 173.08L176.936 169.35C189.64 164.432 200.976 155.024 204.768 137.824L208.674 138.685Z" fill="#7921B1" mask="url(#path-38-inside-1_1505_2100)"/>
<path d="M166.511 140.96C163.032 145.37 154.384 151.145 147.627 138.97" stroke="#FFE9CA" stroke-width="3" stroke-linecap="round"/>
<path d="M111.853 110.837C111.491 114.657 108.101 117.459 104.274 117.096C100.454 116.734 97.6454 113.343 98.0078 109.524C98.3707 105.699 101.767 102.897 105.587 103.26C109.414 103.623 112.216 107.013 111.853 110.837Z" fill="#FFE9CA"/>
<path d="M187.586 117.973C187.224 121.792 184.338 124.643 181.133 124.339C177.934 124.035 175.636 120.693 175.998 116.873C176.361 113.049 179.247 110.199 182.446 110.502C185.65 110.806 187.949 114.149 187.586 117.973Z" fill="#FFE9CA"/>
<path d="M47.5247 80.8097L47.5155 80.8088C46.3254 80.6959 9.2841 102.136 7.87629 116.972C6.46986 131.793 38.8175 159.818 39.9985 159.93L40.0076 159.93C46.7212 160.568 53.8327 143.378 55.9059 121.529C57.9783 99.69 54.236 81.471 47.5247 80.8097Z" fill="#043340"/>
<path d="M34.2395 88.6822C36.0029 94.5299 37.4093 105.02 36.0222 119.638C34.6351 134.256 31.2808 144.295 28.449 149.706C30.6262 151.877 32.6863 153.815 34.446 155.402C39.4243 147.256 42.6994 133.606 43.9534 120.391C45.207 107.18 44.5582 93.1528 41.2009 84.2157C39.1741 85.4435 36.7861 86.9602 34.2395 88.6822Z" fill="#A2BFDC"/>
<path d="M129.013 286.603C140.333 286.603 149.512 275.185 149.512 261.103C149.512 247.018 140.333 235.603 129.013 235.603C117.691 235.603 108.512 247.018 108.512 261.103C108.512 275.185 117.691 286.603 129.013 286.603Z" fill="#0C0C0C"/>
<path d="M129.012 283.603C138.975 283.603 147.051 273.528 147.051 261.103C147.051 248.675 138.975 238.603 129.012 238.603C119.046 238.603 110.971 248.675 110.971 261.103C110.971 273.528 119.046 283.603 129.012 283.603Z" fill="#7B30AD"/>
<path d="M129.015 277.603C136.712 277.603 142.953 269.992 142.953 260.605C142.953 251.214 136.712 243.603 129.015 243.603C121.314 243.603 115.073 251.214 115.073 260.605C115.073 269.992 121.314 277.603 129.015 277.603Z" fill="#B76AEB"/>
<path d="M119.444 273.652C119.642 273.649 119.835 273.637 120.027 273.615C117.062 270.518 115.151 265.809 115.11 260.511C115.101 259.398 115.174 258.309 115.324 257.254C113.517 258.905 112.349 261.635 112.373 264.706C112.411 269.692 115.577 273.696 119.444 273.652Z" fill="#D1A9ED"/>
<path d="M119.99 273.603C123.663 273.222 126.551 269.346 126.551 264.618C126.551 259.638 123.346 255.603 119.395 255.603C117.879 255.603 116.472 256.197 115.315 257.211C115.153 258.262 115.071 259.35 115.071 260.46C115.071 265.752 116.985 270.476 119.99 273.603Z" fill="#EACCFF"/>
<path d="M163.318 378.662L115.02 444.49L152.946 469.31L183.064 392.529C184.647 388.503 185.13 384.043 183.68 381.336C182.114 378.409 178.448 376.148 175.387 375.073C171.96 373.861 165.481 375.616 163.318 378.662Z" fill="url(#paint10_linear_1505_2100)"/>
<path d="M115.019 444.491L163.318 378.662C163.824 377.946 164.568 377.304 165.454 376.756C153.057 399.21 138.087 432.947 144.663 455.641C146.181 460.879 148.841 465.524 152.945 469.311L115.019 444.491Z" fill="#87A6C3"/>
<path d="M157.338 419.616L169.148 428.004C169.295 427.622 169.446 427.243 169.593 426.866L169.637 426.762L157.997 418.498L181.454 378.6C181.13 378.307 180.793 378.031 180.442 377.767L148.685 431.78L131.464 422.076L131.423 422.132L131.342 422.242L130.693 423.126L148.03 432.897L133.933 456.871L134.308 457.115L135.017 457.579L157.338 419.616Z" fill="url(#paint11_linear_1505_2100)"/>
<path d="M148.451 429.438C148.269 429.696 147.916 429.754 147.664 429.575C147.407 429.393 147.348 429.04 147.526 428.784C147.71 428.531 148.062 428.472 148.318 428.65C148.572 428.833 148.634 429.185 148.451 429.438Z" fill="#4890C0"/>
<path d="M160.417 417.901C160.2 418.203 159.782 418.276 159.48 418.059C159.173 417.844 159.104 417.424 159.32 417.118C159.533 416.817 159.955 416.743 160.257 416.96C160.563 417.176 160.633 417.595 160.417 417.901Z" fill="#4890C0"/>
<path d="M110.604 457.529C110.604 457.529 165.326 497.267 169.835 497.762C174.343 498.257 168.908 463.297 163.5 457.239C156.751 449.676 129.99 444.658 117.407 445.71C111.265 446.229 110.604 457.529 110.604 457.529Z" fill="url(#paint12_linear_1505_2100)"/>
<path d="M131.789 468.355C131.789 468.355 135.995 452.019 143.071 448.34C133.845 446.207 123.796 445.177 117.407 445.71C111.265 446.229 110.604 457.529 110.604 457.529C110.604 457.529 161.278 494.325 169.115 497.543C152.384 485.135 131.789 468.355 131.789 468.355Z" fill="#043340"/>
<path d="M94.6489 291.505C80.5346 290.389 70.7662 287.001 67.2155 281.808C54.8411 263.701 67.0515 244.831 67.6346 243.959C70.2629 240.064 69.2498 234.765 65.3607 232.117C61.4604 229.457 56.1422 230.464 53.4835 234.364C52.7806 235.395 38.3697 257.039 47.6604 281.161C48.9695 284.558 50.7466 288.003 53.0994 291.449C56.8963 297.007 62.895 301.257 71.0274 304.184L94.6489 291.505Z" fill="#043340"/>
<path d="M134.796 293.21C134.796 293.21 87.8295 318.272 73.5095 315.665C59.1895 313.058 59.5727 282.787 66.2268 279.86C71.6949 277.459 132.96 278.239 132.96 278.239L134.796 293.21Z" fill="url(#paint13_linear_1505_2100)"/>
<path d="M101.179 291.276L133.758 284.766L133.499 282.672L61.9213 296.974C61.9753 297.675 62.051 298.377 62.1448 299.072L99.1071 291.689C99.7287 298.437 102.439 303.556 104.98 306.987C105.052 307.084 105.124 307.18 105.196 307.277C105.878 306.988 106.556 306.701 107.232 306.409C104.7 303.191 101.762 298.083 101.179 291.276Z" fill="url(#paint14_linear_1505_2100)"/>
<path d="M128.205 275.975C128.205 275.975 122.397 282.334 128.453 291.236C134.507 300.144 143.127 293.318 148.668 294.373C154.207 295.435 161.57 295.974 162.042 293.481C162.521 290.989 152.797 286.263 149.749 285.681C146.704 285.102 157.899 275.323 161.361 272.967C164.824 270.611 178.664 272.538 179.247 269.49C179.829 266.442 159.911 262.501 157.276 261.999C154.648 261.498 131.503 273.732 128.205 275.975Z" fill="#043340"/>
<path d="M87.0984 210.549C90.2654 215.288 93.0669 222.896 84.2568 234.173C75.4409 245.445 52.1873 258.898 40.7336 251.474C29.2754 244.056 71.7489 187.585 87.0984 210.549Z" fill="url(#paint15_linear_1505_2100)"/>
<path d="M39.0387 249.065C41.1265 246.161 52.8437 229.94 60.1031 222.386C59.4212 218.322 62.4883 212.905 67.6534 209.513C73.5288 205.661 79.8921 205.885 81.8636 210.013C83.8409 214.147 80.6821 220.619 74.8067 224.472C69.3407 228.059 63.4562 228.114 61.075 224.785C53.7456 232.474 40.3913 251.228 40.3913 251.228C39.7313 250.688 39.2883 249.958 39.0387 249.065Z" fill="url(#paint16_linear_1505_2100)"/>
<path d="M92.6209 283.479C92.6209 283.479 137.342 312.357 151.829 310.95C166.316 309.542 168.45 279.343 162.062 275.874C156.812 273.026 95.6945 268.712 95.6945 268.712L92.6209 283.479Z" fill="url(#paint17_linear_1505_2100)"/>
<path d="M126.282 284.345L94.3562 275.15L94.788 273.085L164.93 293.286C164.818 293.98 164.684 294.674 164.533 295.359L128.312 284.929C127.132 291.602 124.005 296.478 121.188 299.686C121.108 299.776 121.028 299.867 120.949 299.957C120.293 299.612 119.641 299.27 118.992 298.923C121.783 295.926 125.135 291.08 126.282 284.345Z" fill="url(#paint18_linear_1505_2100)"/>
<path d="M94.382 268.518C94.382 268.518 99.0942 270.937 97.7911 279.655C96.4904 288.377 90.1035 286.675 87.2632 289.521C84.4253 292.37 80.4507 295.527 79.6083 293.9C78.7626 292.276 83.0792 285.203 84.6409 283.636C86.2021 282.073 77.6952 279.202 75.2195 278.798C72.7437 278.394 65.4843 284.989 64.4516 283.002C63.4189 281.015 73.5944 270.679 74.9449 269.326C76.292 267.976 92.0244 268.134 94.382 268.518Z" fill="#043340"/>
<defs>
<linearGradient id="paint0_linear_1505_2100" x1="112.158" y1="370.915" x2="122.251" y2="315.754" gradientUnits="userSpaceOnUse">
<stop stop-color="#A2BFDC"/>
<stop offset="1" stop-color="#DDEEFF"/>
</linearGradient>
<linearGradient id="paint1_linear_1505_2100" x1="138.049" y1="478.776" x2="68.0428" y2="446.186" gradientUnits="userSpaceOnUse">
<stop stop-color="#A2BFDC"/>
<stop offset="1" stop-color="#DDEEFF"/>
</linearGradient>
<linearGradient id="paint2_linear_1505_2100" x1="105.671" y1="444.439" x2="142.407" y2="434.866" gradientUnits="userSpaceOnUse">
<stop stop-color="#8B5CF6"/>
<stop offset="1" stop-color="#D946EF"/>
</linearGradient>
<linearGradient id="paint3_linear_1505_2100" x1="156.639" y1="496.857" x2="133.011" y2="457.832" gradientUnits="userSpaceOnUse">
<stop stop-color="#A2BFDC"/>
<stop offset="1" stop-color="#DDEEFF"/>
</linearGradient>
<linearGradient id="paint4_linear_1505_2100" x1="96.0707" y1="313.392" x2="149.511" y2="209.353" gradientUnits="userSpaceOnUse">
<stop stop-color="#A2BFDC"/>
<stop offset="1" stop-color="#DDEEFF"/>
</linearGradient>
<linearGradient id="paint5_linear_1505_2100" x1="153.92" y1="276.448" x2="95.5112" y2="276.448" gradientUnits="userSpaceOnUse">
<stop stop-color="#8B5CF6"/>
<stop offset="1" stop-color="#D946EF"/>
</linearGradient>
<linearGradient id="paint6_linear_1505_2100" x1="161.898" y1="239.405" x2="179.813" y2="220.227" gradientUnits="userSpaceOnUse">
<stop stop-color="#A2BFDC"/>
<stop offset="1" stop-color="#DDEEFF"/>
</linearGradient>
<linearGradient id="paint7_linear_1505_2100" x1="183.309" y1="236.724" x2="152.236" y2="236.357" gradientUnits="userSpaceOnUse">
<stop stop-color="#8B5CF6"/>
<stop offset="1" stop-color="#D946EF"/>
</linearGradient>
<linearGradient id="paint8_linear_1505_2100" x1="59.5103" y1="201.603" x2="197.01" y2="37.603" gradientUnits="userSpaceOnUse">
<stop stop-color="#A2BFDC"/>
<stop offset="1" stop-color="#D8EAFC"/>
</linearGradient>
<linearGradient id="paint9_linear_1505_2100" x1="78.8359" y1="133.335" x2="206.799" y2="145.477" gradientUnits="userSpaceOnUse">
<stop stop-color="#8B5CF6"/>
<stop offset="1" stop-color="#D946EF"/>
</linearGradient>
<linearGradient id="paint10_linear_1505_2100" x1="113.046" y1="445.589" x2="176.844" y2="381.172" gradientUnits="userSpaceOnUse">
<stop stop-color="#A2BFDC"/>
<stop offset="1" stop-color="#DDEEFF"/>
</linearGradient>
<linearGradient id="paint11_linear_1505_2100" x1="140.936" y1="389.215" x2="158.754" y2="450.7" gradientUnits="userSpaceOnUse">
<stop stop-color="#8B5CF6"/>
<stop offset="1" stop-color="#D946EF"/>
</linearGradient>
<linearGradient id="paint12_linear_1505_2100" x1="120.127" y1="487.722" x2="162.092" y2="448.245" gradientUnits="userSpaceOnUse">
<stop stop-color="#A2BFDC"/>
<stop offset="1" stop-color="#DDEEFF"/>
</linearGradient>
<linearGradient id="paint13_linear_1505_2100" x1="108.51" y1="271.603" x2="62.2332" y2="300.593" gradientUnits="userSpaceOnUse">
<stop stop-color="#DDEEFF"/>
<stop offset="1" stop-color="#A2BFDC"/>
</linearGradient>
<linearGradient id="paint14_linear_1505_2100" x1="67.6013" y1="312.188" x2="134.245" y2="284.463" gradientUnits="userSpaceOnUse">
<stop stop-color="#8B5CF6"/>
<stop offset="1" stop-color="#D946EF"/>
</linearGradient>
<linearGradient id="paint15_linear_1505_2100" x1="60.9166" y1="253.453" x2="76.8487" y2="205.415" gradientUnits="userSpaceOnUse">
<stop stop-color="#A2BFDC"/>
<stop offset="1" stop-color="#DDEEFF"/>
</linearGradient>
<linearGradient id="paint16_linear_1505_2100" x1="84.4116" y1="230.494" x2="37.5788" y2="235.554" gradientUnits="userSpaceOnUse">
<stop stop-color="#8B5CF6"/>
<stop offset="1" stop-color="#D946EF"/>
</linearGradient>
<linearGradient id="paint17_linear_1505_2100" x1="113.902" y1="297.504" x2="147.382" y2="263.473" gradientUnits="userSpaceOnUse">
<stop stop-color="#A2BFDC"/>
<stop offset="1" stop-color="#DDEEFF"/>
</linearGradient>
<linearGradient id="paint18_linear_1505_2100" x1="158.005" y1="307.976" x2="93.8964" y2="274.808" gradientUnits="userSpaceOnUse">
<stop stop-color="#8B5CF6"/>
<stop offset="1" stop-color="#D946EF"/>
</linearGradient>
</defs>
</svg>
