<svg width="31" height="31" viewBox="0 0 31 31" fill="none" xmlns="http://www.w3.org/2000/svg">
<path d="M30.1844 15.2423C30.1844 18.885 23.6101 21.8379 15.5004 21.8379C7.39059 21.8379 0.816406 18.885 0.816406 15.2423C0.816406 11.5995 7.39059 8.64662 15.5004 8.64662C23.6101 8.64662 30.1844 11.5995 30.1844 15.2423Z" fill="white"/>
<path d="M15.1662 6.45585L15.5081 6.4624L15.5391 4.88319L17.102 4.3971L14.9077 3.72633L15.5683 3.37784L15.601 1.69915L15.2591 1.692L15.23 3.16934L14.0137 3.81092L15.9405 4.40008L15.202 4.62942L15.1662 6.45585Z" fill="white"/>
<path d="M14.7033 0.939714C14.6949 1.34896 15.0208 1.68792 15.43 1.69567C15.8392 1.70341 16.1781 1.37815 16.1858 0.968906C16.1942 0.559062 15.8683 0.220699 15.4591 0.212955C15.0493 0.205211 14.711 0.530465 14.7033 0.939714Z" fill="white"/>
<path d="M2.52947 18.3379C2.78994 18.5577 3.07728 18.7698 3.38951 18.9741C2.62877 16.7855 2.29926 14.3556 2.37896 12.2778C2.13904 12.4917 1.92425 12.7121 1.73633 12.9384C1.74312 14.6517 2.00287 16.5431 2.52947 18.3379Z" fill="#C235E7"/>
<path d="M29.2596 12.9336C29.0709 12.7066 28.8551 12.4856 28.614 12.2717C28.7372 14.3686 28.3169 16.8408 27.4785 19.0586C27.8037 18.8531 28.1032 18.6386 28.3752 18.417C28.9625 16.5876 29.2685 14.6641 29.2596 12.9336Z" fill="#C334E6"/>
<path d="M19.491 24.5848C16.7712 24.2071 14.0119 24.1493 11.2697 24.4156C4.96307 25.0286 2.71878 15.5813 3.61807 10.8264C4.07659 8.40187 6.77838 6.6642 9.05966 6.12509C13.1941 5.14694 17.6109 5.08499 21.7665 5.9577C23.9964 6.43247 26.202 7.94556 27.0703 10.1199C28.8839 14.6621 25.6515 25.4396 19.491 24.5848Z" fill="white"/>
<path d="M20.1779 24.6323H20.1778H20.1779ZM20.1798 24.6323C22.7813 24.6311 24.8053 22.5253 26.0722 19.8196L26.0727 19.819C24.8055 22.5253 22.7815 24.6317 20.1798 24.6323ZM19.5135 24.5876C19.5124 24.5876 19.5112 24.5871 19.51 24.5871C19.5112 24.5871 19.5124 24.5876 19.5135 24.5876ZM19.4912 24.5847C19.4664 24.5811 19.4418 24.5775 19.4171 24.5745C19.4418 24.5775 19.4664 24.5811 19.4912 24.5847ZM19.4142 24.5739C19.3931 24.571 19.3717 24.568 19.3506 24.5656C19.3717 24.568 19.3931 24.571 19.4142 24.5739ZM10.8164 24.4429C10.9648 24.4393 11.1167 24.4304 11.2699 24.4155C12.3997 24.3059 13.5321 24.2511 14.6637 24.2511C13.5323 24.2511 12.3995 24.3059 11.27 24.4155C11.1164 24.4304 10.9652 24.4393 10.8164 24.4429ZM27.423 11.3916H27.423C27.3427 10.9424 27.2299 10.526 27.0829 10.1508C27.2299 10.526 27.3427 10.9424 27.423 11.3916ZM27.0791 10.1412C27.0762 10.1341 27.0734 10.1269 27.0705 10.1198C27.0734 10.1269 27.0762 10.1341 27.0791 10.1412ZM27.0705 10.1198C26.9179 9.73734 26.724 9.37574 26.4959 9.03679C26.724 9.37574 26.9179 9.73734 27.0705 10.1198ZM26.4947 9.035C26.4925 9.03143 26.4904 9.02845 26.4882 9.02547C26.4904 9.02845 26.4925 9.03143 26.4947 9.035ZM26.4866 9.02309C26.4847 9.02011 26.4828 9.01713 26.4808 9.01415C26.4828 9.01713 26.4847 9.02011 26.4866 9.02309ZM26.4769 9.00879C26.4756 9.00641 26.4745 9.00522 26.4732 9.00343C26.4745 9.00522 26.4757 9.007 26.4769 9.00879ZM26.4685 8.99628C26.4675 8.99509 26.4666 8.9933 26.4656 8.99211C26.4666 8.9933 26.4676 8.99509 26.4685 8.99628ZM26.4607 8.98496C26.4598 8.98377 26.4589 8.98198 26.458 8.98079C26.4589 8.98198 26.4598 8.98377 26.4607 8.98496ZM26.4521 8.97245C26.4515 8.97126 26.451 8.97066 26.4504 8.97007C26.4509 8.97066 26.4515 8.97126 26.4521 8.97245ZM26.4439 8.96054C26.4434 8.95994 26.4431 8.95935 26.4428 8.95875C26.4431 8.95935 26.4435 8.95994 26.4439 8.96054ZM26.4358 8.94863C26.4356 8.94863 26.4353 8.94803 26.4351 8.94803C26.4353 8.94803 26.4356 8.94863 26.4358 8.94863ZM26.4281 8.9379C26.4278 8.93731 26.4276 8.93731 26.4274 8.93671C26.4276 8.93731 26.4278 8.93731 26.4281 8.9379ZM26.42 8.92658C26.4199 8.92599 26.4197 8.92599 26.4197 8.92599C26.4198 8.92599 26.4199 8.92599 26.42 8.92658ZM26.412 8.91527C26.4119 8.91527 26.412 8.91527 26.4119 8.91467C26.4119 8.91527 26.412 8.91527 26.412 8.91527Z" fill="#D5DEE2"/>
<path d="M26.0723 19.8198C27.3418 17.1082 27.8524 13.7931 27.423 11.3918H27.4231C27.8525 13.7937 27.3426 17.1076 26.0727 19.8192L26.0723 19.8198Z" fill="#D5DEE2"/>
<path d="M26.0723 19.8198C27.3418 17.1082 27.8524 13.7931 27.423 11.3918H27.4231C27.8525 13.7937 27.3426 17.1076 26.0727 19.8192L26.0723 19.8198Z" fill="#7C3AED"/>
<path d="M21.5259 20.1534C20.4751 20.5621 19.35 20.8122 18.3138 20.954C15.0147 21.4062 11.0532 21.1697 8.16186 19.3778C6.86344 18.5736 5.85497 17.3715 5.61082 15.8304C5.59122 15.7059 5.57157 15.582 5.55197 15.4581C5.08535 12.5123 7.23749 9.8084 10.2107 9.57727C13.7964 9.29848 17.3984 9.29848 20.9841 9.57727C23.9573 9.8084 26.1095 12.5123 25.643 15.4581C25.6245 15.5748 25.606 15.6916 25.5875 15.8089C25.2333 18.0452 23.5122 19.3814 21.5259 20.1534Z" fill="#BF37E7"/>
<path d="M14.6348 17.1205C15.0014 17.5815 15.9789 18.227 16.9565 17.1205" stroke="white" stroke-width="0.939245" stroke-linecap="round"/>
<path d="M11.935 14.4114C11.935 14.8802 11.5548 15.2603 11.0857 15.2603C10.6166 15.2603 10.2363 14.8802 10.2363 14.4114C10.2363 13.942 10.6166 13.5619 11.0857 13.5619C11.5548 13.5619 11.935 13.942 11.935 14.4114Z" fill="white"/>
<path d="M18.7793 14.3873C19.0687 13.9263 19.8405 13.2808 20.6122 14.3873" stroke="white" stroke-width="0.939245" stroke-linecap="round"/>
</svg>
