<svg width="32" height="33" viewBox="0 0 32 33" fill="none" xmlns="http://www.w3.org/2000/svg">
<path d="M31.6329 16.6646C31.6329 20.5429 24.6333 23.6868 15.999 23.6868C7.36467 23.6868 0.365234 20.5429 0.365234 16.6646C0.365234 12.7862 7.36467 9.64227 15.999 9.64227C24.6333 9.64227 31.6329 12.7862 31.6329 16.6646Z" fill="url(#paint0_linear_1564_4896)"/>
<path d="M15.6431 7.30931L16.0071 7.31628L16.0401 5.63492L17.7041 5.11739L15.3679 4.40323L16.0712 4.0322L16.1061 2.24492L15.742 2.2373L15.711 3.81021L14.416 4.49329L16.4675 5.12056L15.6812 5.36474L15.6431 7.30931Z" fill="url(#paint1_linear_1564_4896)"/>
<path d="M15.1506 1.43634C15.1417 1.87206 15.4886 2.23294 15.9242 2.24119C16.3599 2.24943 16.7207 1.90314 16.729 1.46742C16.7379 1.03106 16.391 0.670814 15.9553 0.662569C15.519 0.654324 15.1588 1.00062 15.1506 1.43634Z" fill="url(#paint2_linear_1564_4896)"/>
<path d="M2.19015 19.96C2.46747 20.1941 2.77339 20.4198 3.10582 20.6374C2.29587 18.3072 1.94505 15.7201 2.0299 13.5079C1.77446 13.7356 1.54578 13.9703 1.3457 14.2113C1.35293 16.0354 1.62949 18.0491 2.19015 19.96Z" fill="white"/>
<path d="M30.6483 14.2062C30.4473 13.9646 30.2176 13.7293 29.9609 13.5016C30.0921 15.7341 29.6445 18.3662 28.752 20.7275C29.0981 20.5087 29.4171 20.2803 29.7066 20.0444C30.3319 18.0967 30.6577 16.0487 30.6483 14.2062Z" fill="white"/>
<path d="M20.2488 26.6113C17.3531 26.2092 14.4153 26.1476 11.4957 26.4311C4.78114 27.0838 2.39168 17.0254 3.34913 11.9629C3.83731 9.38157 6.71387 7.53149 9.14271 6.95751C13.5446 5.91609 18.2471 5.85013 22.6715 6.77929C25.0457 7.28478 27.394 8.89574 28.3184 11.2107C30.2493 16.0468 26.8078 27.5214 20.2488 26.6113Z" fill="url(#paint3_linear_1564_4896)"/>
<path d="M20.9788 26.662H20.9787H20.9788ZM20.9808 26.662C23.7506 26.6608 25.9055 24.4188 27.2543 21.538L27.2548 21.5374C25.9057 24.4188 23.7508 26.6614 20.9808 26.662ZM20.2714 26.6145C20.2702 26.6145 20.2689 26.6138 20.2677 26.6138C20.2689 26.6138 20.2702 26.6145 20.2714 26.6145ZM20.2477 26.6113C20.2213 26.6075 20.195 26.6037 20.1687 26.6005C20.195 26.6037 20.2213 26.6075 20.2477 26.6113ZM20.1657 26.5999C20.1432 26.5967 20.1204 26.5936 20.0979 26.591C20.1204 26.5936 20.1432 26.5967 20.1657 26.5999ZM11.0117 26.4604C11.1698 26.4566 11.3315 26.447 11.4946 26.4312C12.6974 26.3145 13.9031 26.2561 15.1079 26.2561C13.9033 26.2561 12.6973 26.3145 11.4946 26.4312C11.3311 26.447 11.1701 26.4566 11.0117 26.4604ZM28.6925 12.5648H28.6925C28.607 12.0866 28.4869 11.6433 28.3304 11.2437C28.4869 11.6433 28.6071 12.0866 28.6925 12.5648ZM28.3264 11.2336C28.3233 11.226 28.3203 11.2184 28.3172 11.2108C28.3203 11.2184 28.3233 11.226 28.3264 11.2336ZM28.3172 11.2108C28.1548 10.8036 27.9483 10.4186 27.7054 10.0577C27.9483 10.4186 28.1548 10.8036 28.3172 11.2108ZM27.7041 10.0558C27.7018 10.052 27.6996 10.0488 27.6973 10.0457C27.6996 10.0488 27.7018 10.052 27.7041 10.0558ZM27.6956 10.0431C27.6935 10.04 27.6914 10.0368 27.6894 10.0336C27.6914 10.0368 27.6935 10.04 27.6956 10.0431ZM27.6852 10.0279C27.6838 10.0254 27.6827 10.0241 27.6813 10.0222C27.6826 10.0241 27.6839 10.026 27.6852 10.0279ZM27.6763 10.0146C27.6752 10.0133 27.6743 10.0114 27.6732 10.0101C27.6742 10.0114 27.6753 10.0133 27.6763 10.0146ZM27.6679 10.0025C27.667 10.0013 27.666 9.99936 27.6651 9.99809C27.666 9.99936 27.667 10.0013 27.6679 10.0025ZM27.6588 9.98921C27.6582 9.98794 27.6576 9.98731 27.657 9.98667C27.6576 9.98731 27.6582 9.98794 27.6588 9.98921ZM27.65 9.97653C27.6496 9.97589 27.6493 9.97526 27.6489 9.97462C27.6493 9.97526 27.6497 9.97589 27.65 9.97653ZM27.6415 9.96384C27.6412 9.96384 27.641 9.96321 27.6407 9.96321C27.641 9.96321 27.6412 9.96384 27.6415 9.96384ZM27.6332 9.95243C27.6329 9.95179 27.6327 9.95179 27.6325 9.95116C27.6327 9.95179 27.6329 9.95179 27.6332 9.95243ZM27.6247 9.94037C27.6245 9.93974 27.6244 9.93974 27.6243 9.93974C27.6244 9.93974 27.6245 9.93974 27.6247 9.94037ZM27.6162 9.92833C27.616 9.92833 27.6161 9.92832 27.616 9.92769C27.616 9.92832 27.6161 9.92833 27.6162 9.92833Z" fill="#D5DEE2"/>
<path d="M27.2559 21.538C28.6075 18.651 29.1511 15.1214 28.694 12.5648H28.6941C29.1512 15.1221 28.6084 18.6503 27.2564 21.5374L27.2559 21.538Z" fill="#D5DEE2"/>
<path d="M27.2559 21.538C28.6075 18.651 29.1511 15.1214 28.694 12.5648H28.6941C29.1512 15.1221 28.6084 18.6503 27.2564 21.5374L27.2559 21.538Z" fill="url(#paint4_linear_1564_4896)"/>
<path d="M22.4149 21.8932C21.2961 22.3283 20.0982 22.5947 18.995 22.7456C15.4825 23.227 11.2647 22.9752 8.18636 21.0674C6.80395 20.2112 5.73025 18.9313 5.47031 17.2905C5.44945 17.158 5.42852 17.0261 5.40765 16.8941C4.91085 13.7578 7.20221 10.879 10.3678 10.6329C14.1854 10.3361 18.0204 10.3361 21.838 10.6329C25.0036 10.879 27.2949 13.7578 26.7983 16.8941C26.7786 17.0184 26.7589 17.1428 26.7392 17.2677C26.3621 19.6486 24.5297 21.0712 22.4149 21.8932Z" fill="white"/>
<path d="M15.0781 18.6642C15.4684 19.1551 16.5092 19.8423 17.55 18.6642" stroke="url(#paint5_linear_1564_4896)" stroke-linecap="round"/>
<path d="M12.2031 15.7798C12.2031 16.279 11.7982 16.6836 11.2988 16.6836C10.7994 16.6836 10.3945 16.279 10.3945 15.7798C10.3945 15.28 10.7994 14.8754 11.2988 14.8754C11.7982 14.8754 12.2031 15.28 12.2031 15.7798Z" fill="url(#paint6_linear_1564_4896)"/>
<path d="M19.4902 15.754C19.7984 15.2631 20.6201 14.5758 21.4417 15.754" stroke="url(#paint7_linear_1564_4896)" stroke-linecap="round"/>
<defs>
<linearGradient id="paint0_linear_1564_4896" x1="0.365235" y1="18.3635" x2="31.6329" y2="18.3635" gradientUnits="userSpaceOnUse">
<stop stop-color="#875BF2"/>
<stop offset="1" stop-color="#CC2FE5"/>
</linearGradient>
<linearGradient id="paint1_linear_1564_4896" x1="14.416" y1="5.39119" x2="17.7041" y2="5.39119" gradientUnits="userSpaceOnUse">
<stop stop-color="#875BF2"/>
<stop offset="1" stop-color="#CC2FE5"/>
</linearGradient>
<linearGradient id="paint2_linear_1564_4896" x1="15.1504" y1="1.64288" x2="16.7292" y2="1.64288" gradientUnits="userSpaceOnUse">
<stop stop-color="#875BF2"/>
<stop offset="1" stop-color="#CC2FE5"/>
</linearGradient>
<linearGradient id="paint3_linear_1564_4896" x1="3.14648" y1="18.8787" x2="28.8528" y2="18.8787" gradientUnits="userSpaceOnUse">
<stop stop-color="#875BF2"/>
<stop offset="1" stop-color="#CC2FE5"/>
</linearGradient>
<linearGradient id="paint4_linear_1564_4896" x1="27.2559" y1="18.1369" x2="28.8532" y2="18.1369" gradientUnits="userSpaceOnUse">
<stop stop-color="#875BF2"/>
<stop offset="1" stop-color="#CC2FE5"/>
</linearGradient>
<linearGradient id="paint5_linear_1564_4896" x1="15.0781" y1="19.0681" x2="17.55" y2="19.0681" gradientUnits="userSpaceOnUse">
<stop stop-color="#875BF2"/>
<stop offset="1" stop-color="#CC2FE5"/>
</linearGradient>
<linearGradient id="paint6_linear_1564_4896" x1="10.3945" y1="15.9982" x2="12.2031" y2="15.9982" gradientUnits="userSpaceOnUse">
<stop stop-color="#875BF2"/>
<stop offset="1" stop-color="#CC2FE5"/>
</linearGradient>
<linearGradient id="paint7_linear_1564_4896" x1="19.4902" y1="15.35" x2="21.4417" y2="15.35" gradientUnits="userSpaceOnUse">
<stop stop-color="#875BF2"/>
<stop offset="1" stop-color="#CC2FE5"/>
</linearGradient>
</defs>
</svg>
