<svg width="270" height="270" viewBox="0 0 270 270" fill="none" xmlns="http://www.w3.org/2000/svg">
<path d="M57.5939 211.969C57.3115 211.121 57.2044 210.224 57.2789 209.334C57.3534 208.444 57.6081 207.578 58.0276 206.79C54.473 203.751 50.5151 201.219 46.2666 199.264C43.1783 202.494 39.33 207.14 37.8477 208.703C40.3989 207.019 63.7933 223.781 64.7117 227.965C65.1454 222.199 59.2106 217.036 57.5939 211.969Z" fill="url(#paint0_linear_1640_8542)"/>
<path d="M125.561 202.555C124.544 201.356 124.023 199.813 124.107 198.243C119.699 197.513 115.217 197.332 110.764 197.706C110.707 199.132 110.573 200.555 110.361 201.967C109.877 205.055 109.188 206.278 108.703 209.161C109.443 206.38 138.169 211.534 139.496 214.748C138.47 208.576 129.209 207.045 125.561 202.555Z" fill="url(#paint1_linear_1640_8542)"/>
<path d="M247.101 165.358C245.596 164.284 241.999 162.093 237.299 159.286L215.413 163.904L208.986 133.621L212.583 132.856C209.756 113.893 209.21 110.918 206.818 100.813C199.854 108.241 183.015 112.052 175.77 110.023C175.96 110.595 176.101 110.963 176.739 112.497C164.923 138.29 163.09 143.01 162.733 147.245C162.33 152.213 162.861 155.536 172.351 192.401C178.125 194.012 187.775 191.297 190.924 187.962C188.27 176.507 185.566 165.103 182.632 150.179C182.994 149.182 183.421 148.212 183.908 147.27C186.481 139.775 188.142 131.997 188.857 124.105C193.594 145.576 194.987 152.892 198.246 156.531C201.537 160.179 205.362 162.501 237.202 180.432C241.977 179.195 247.925 170.657 247.101 165.358Z" fill="url(#paint2_linear_1640_8542)"/>
<path d="M64.2551 155.664C48.768 157.575 46.3967 157.849 33.207 159.567L60.4538 178.645C61.63 177.455 67.1473 171.872 68.3115 170.66C67.6938 168.709 65.2366 159.588 64.2551 155.664Z" fill="url(#paint3_linear_1640_8542)"/>
<path d="M42.5451 152.679C42.5451 152.664 42.5961 147.882 42.5961 147.882C41.366 148.062 40.2544 148.715 39.4971 149.7C38.7398 150.686 38.3963 151.928 38.5397 153.163L39.1775 157.729L43.1574 157.218L42.5451 152.679Z" fill="url(#paint4_linear_1640_8542)"/>
<path d="M59.4032 150.612C59.2564 149.451 58.6819 148.387 57.7919 147.627C56.8035 147.977 55.7748 148.199 54.7305 148.291C54.9466 149.231 55.0151 149.564 55.2407 150.689C55.4502 150.898 55.3871 150.853 56.0316 155.657L60.0114 155.147L59.4032 150.612Z" fill="url(#paint5_linear_1640_8542)"/>
<path d="M247.073 167.858C246.008 172.626 243.183 176.817 239.164 179.593C239.567 184.798 241.792 196.661 243.909 199.85C248.072 194.875 253.502 176.966 253.782 170.103C251.606 169.187 249.362 168.437 247.073 167.858Z" fill="#E9E9E9"/>
<path d="M189.467 189.186C185.291 191.658 180.518 192.936 175.665 192.885C171.842 197.778 168.851 203.267 166.812 209.132C173.392 208.393 188.192 201.759 193.09 196.734C192.153 194.096 190.939 191.567 189.467 189.186Z" fill="#E9E9E9"/>
<path d="M63.3667 228.636C57.6842 227.251 35.5036 212.606 37.6721 208.856C39.6258 206.511 61.6614 222.35 64.4153 227.298C65.0437 228.437 64.7269 228.969 63.3667 228.636Z" fill="#E9E9E9"/>
<path d="M126.973 210.307C118.943 208.638 109.853 207.665 108.81 209.015C106.575 211.905 122.655 214.655 126.285 215.126C132.287 215.913 137.85 216.117 139.24 215.41C142.101 213.958 130.31 211.004 126.973 210.307Z" fill="#E9E9E9"/>
<path d="M129.209 201.126C129.158 200.207 127.934 199.034 124.132 198.269C124.037 199.841 124.558 201.388 125.586 202.58C128.163 202.58 129.26 201.891 129.209 201.126Z" fill="#E9E9E9"/>
<path d="M106.834 199.697C106.732 200.794 108.033 201.559 110.38 201.993C110.584 200.564 110.712 199.161 110.783 197.732C108.084 198.064 106.936 198.785 106.834 199.697Z" fill="#E9E9E9"/>
<path d="M46.2693 199.238C45.1723 200.36 43.8524 201.866 42.5191 203.371C40.5291 201.738 39.8336 199.901 40.5547 198.932L40.7077 198.753C41.4476 198.064 43.2589 197.988 46.2693 199.238Z" fill="#E9E9E9"/>
<path d="M58.063 206.79C61.2265 209.494 62.4296 211.489 62.0174 212.351C61.6643 213.092 60.1295 213.065 57.6038 211.968C57.3103 211.121 57.1995 210.223 57.2787 209.33C57.3578 208.437 57.6252 207.571 58.063 206.79Z" fill="#E9E9E9"/>
<path d="M176.222 111.272C174.554 106.608 176.05 111.178 171.809 99.1797C172.503 104.234 172.767 109.337 172.599 114.436C174.136 113.135 175.386 112.012 176.222 111.272Z" fill="#E9E9E9"/>
<path d="M205.896 97.0625C199.645 104.179 181.458 108.798 174.414 106.476C174.899 107.803 175.354 109.028 175.741 110.048C183.142 112.12 199.943 108.115 206.789 100.813C206.484 99.5372 206.203 98.2616 205.896 97.0625Z" fill="#E9E9E9"/>
<path d="M188.856 124.105C188.14 131.997 186.479 139.775 183.906 147.27C185.233 144.642 187.452 140.866 191.023 133.927L188.856 124.105Z" fill="#E9E9E9"/>
<path d="M234.393 111.145C233.888 110.078 233.477 108.968 233.168 107.828C234.712 107.894 235.534 108.274 235.853 108.768C236.44 109.668 235.52 110.778 234.393 111.145Z" fill="#E9E9E9"/>
<path d="M221.69 110.201C219.854 111.043 219.139 111.885 219.165 112.497C219.241 113.288 220.211 113.798 221.971 113.492C222.382 112.672 221.858 111.105 221.69 110.201Z" fill="#E9E9E9"/>
<path d="M203.577 87.9035C201.358 87.5974 198.5 87.2912 194.75 86.9341C198.303 88.7697 201.713 90.8675 204.955 93.21C204.42 91.118 203.934 89.2812 203.577 87.9035Z" fill="#E9E9E9"/>
<path d="M176.355 60.6313C175.873 62.3491 175.15 63.9897 174.207 65.5041C174.258 64.7898 174.258 63.8929 174.335 62.7744C174.9 62.1876 175.563 61.4732 176.355 60.6313Z" fill="#E9E9E9"/>
<path d="M174.313 49.5589C174.16 47.7731 173.573 47.4105 168.42 47.0842C162.961 46.7016 162.552 47.5945 163.114 50.5028C163.496 52.4673 164.517 53.0285 166.583 53.0285C167.859 53.0285 169.537 52.7989 171.66 52.5693C173.293 54.6358 174.364 55.7073 174.364 54.4572C174.364 52.0846 176.839 52.1356 176.89 55.9342C177.808 56.8741 178.829 58.0007 179.926 59.0977C178.803 50.0691 178.574 49.9416 174.313 49.5589Z" fill="#E9E9E9"/>
<path d="M176.813 74.3055C177.42 73.403 177.925 72.4361 178.318 71.4226C177.553 70.3256 176.864 69.1776 176.17 67.9785C175.711 69.0527 175.23 70.147 174.818 71.2185C175.018 72.2879 175.379 73.3203 175.892 74.28C175.586 77.1628 174.004 97.802 174.004 99.1541C174.865 100.944 175.925 102.63 177.167 104.18C178.552 102.673 179.782 101.032 180.841 99.2817C180.334 95.4549 177.221 75.6831 176.813 74.3055Z" fill="#E9E9E9"/>
<path d="M144.643 115.38C145.104 115.051 146.047 115.201 147.399 116.094C146.251 117.063 145.587 117.65 145.103 118.058C144.057 116.757 144.032 115.816 144.643 115.38Z" fill="#E9E9E9"/>
<path d="M155.486 125.177C156.277 126.654 156.426 127.626 156.149 128.111C156.131 128.163 156.094 128.208 156.047 128.238C155.588 128.723 154.389 128.468 153.062 127.32C154.006 126.478 155.486 125.177 155.486 125.177Z" fill="#E9E9E9"/>
<path d="M41.9326 136.759C41.8816 137.499 41.856 138.315 41.856 139.157C39.9937 139.233 39.1142 138.903 39.0752 138.417C39.039 137.959 39.9682 137.295 41.9326 136.759Z" fill="#E9E9E9"/>
<path d="M56.2715 136.708C56.3481 137.167 55.6848 137.728 53.6693 138.035C53.2489 137.326 53.0448 136.511 53.0826 135.688C55.1235 135.811 56.195 136.249 56.2715 136.708Z" fill="#E9E9E9"/>
<path d="M86.3227 103.134C85.7373 110.292 85.5292 117.873 85.3828 121.324C73.7252 121.605 63.8789 123.416 59.3633 126.733C59.3888 128.11 59.4143 129.463 59.4908 130.761C66.2784 125.844 81.086 124.998 89.4929 124.842C88.1193 119.753 87.072 110.053 86.3227 103.134Z" fill="#E9E9E9"/>
<path d="M60.4559 108.875C60.3028 110.201 60.1753 111.502 60.0732 112.752C58.8487 113.155 57.2414 113.669 55.6597 114.155C54.0014 114.664 52.3686 115.125 51.2461 115.457C54.4253 113.42 57.4992 111.223 60.4559 108.875Z" fill="#E9E9E9"/>
<path d="M94.6151 79.8931C94.5344 80.0217 94.4403 80.1415 94.3344 80.2503C93.7087 80.9015 91.7134 80.8129 89.9276 80.5322C89.5455 79.4664 89.3365 78.3463 89.3086 77.2144C91.5026 79.4084 93.7477 81.1432 94.6151 79.8931Z" fill="#E9E9E9"/>
<path d="M95.2769 62.1874C95.43 59.381 91.9349 59.9423 91.6516 61.524C91.4414 61.1553 91.1161 60.8657 90.7256 60.6996C90.3351 60.5334 89.9009 60.4999 89.4895 60.6041C89.0781 60.7083 88.7122 60.9445 88.4479 61.2766C88.1835 61.6086 88.0354 62.0182 88.0262 62.4425C86.7761 60.9655 84.2249 61.5026 84.6586 63.7436C82.8983 62.0343 78.3827 63.0548 85.5985 76.8567C87.1037 75.5811 88.4814 74.331 89.6804 73.2085C87.6395 70.0195 89.9866 68.509 91.0326 70.5808C91.5938 71.6778 92.6438 71.5758 92.5096 68.4888C93.3345 68.2761 94.1375 67.9857 94.9077 67.6214C96.4286 66.9487 97.7223 65.8499 98.6324 64.4579C99.9711 62.3149 97.3944 59.7637 95.2769 62.1874Z" fill="#E9E9E9"/>
<path d="M88.7457 154.464C90.3019 167.45 90.6846 172.221 90.6081 174.925C87.4933 166.123 83.8893 157.503 79.8125 149.104C82.2657 150.637 85.2251 152.372 88.7457 154.464Z" fill="#E9E9E9"/>
<path d="M236.998 121.962L237.989 126.68L241.918 125.839L240.745 120.353C240.539 119.407 240.001 118.566 239.229 117.981C238.457 117.396 237.502 117.107 236.535 117.164C236.888 118.738 237.043 120.35 236.998 121.962Z" fill="#E9E9E9"/>
<path d="M223.4 119.921L223.145 119.972C222.624 120.078 222.129 120.288 221.688 120.587C221.249 120.887 220.873 121.271 220.583 121.718C220.295 122.164 220.096 122.664 220.002 123.188C219.907 123.711 219.917 124.249 220.033 124.768L221.155 130.253L225.084 129.411C225.038 129.192 223.551 120.369 223.4 119.921Z" fill="#E9E9E9"/>
<path d="M236.998 121.962L238.144 127.393L242.073 126.551L240.745 120.353C240.539 119.407 240.001 118.566 239.229 117.981C238.457 117.396 237.502 117.107 236.535 117.164C236.888 118.738 237.043 120.35 236.998 121.962Z" stroke="black" stroke-width="1.00705" stroke-linejoin="round"/>
<path d="M223.4 119.921L223.145 119.972C222.624 120.078 222.129 120.288 221.688 120.587C221.249 120.887 220.873 121.271 220.583 121.718C220.295 122.164 220.096 122.664 220.002 123.188C219.907 123.711 219.917 124.249 220.033 124.768L221.295 130.997L225.224 130.155C225.178 129.936 223.551 120.369 223.4 119.921Z" stroke="black" stroke-width="1.00705" stroke-linejoin="round"/>
<path d="M40.6829 132.6C41.6779 132.142 41.6779 134.335 40.8615 134.59C40.0451 134.845 40.0693 132.882 40.6829 132.6Z" fill="#E9E9E9"/>
<path d="M121.429 133.723C121.947 132.732 124.052 132.853 123.623 133.825C123.193 134.797 120.8 134.928 121.429 133.723Z" fill="#E9E9E9"/>
<path d="M157.502 123.978C157.706 125.024 159.583 123.575 159.262 122.702C158.941 121.829 157.272 122.804 157.502 123.978Z" fill="#E9E9E9"/>
<path d="M232.124 102.854C233.119 102.841 233.735 105.124 232.506 105.099C231.278 105.073 231.052 102.866 232.124 102.854Z" fill="#E9E9E9"/>
<path d="M255.363 125.606L255.619 142.39C255.621 142.473 255.594 142.554 255.543 142.62C255.492 142.684 255.418 142.73 255.338 142.747L249.47 143.997L250.261 147.671L246.46 148.487L245.669 144.814L226.076 148.976L226.867 152.65L223.065 153.466L222.276 149.795L216.408 151.045C216.329 151.056 216.247 151.041 216.176 151.005C216.103 150.969 216.044 150.911 216.005 150.841L209.426 135.4L215.468 163.922L261.466 154.151L255.363 125.606Z" fill="#E9E9E9"/>
<path d="M254.624 123.901L209.34 133.544L216.483 150.306L222.096 149.107L221.33 145.535L225.132 144.719L225.897 148.29L245.49 144.132L244.75 140.56L248.552 139.744L249.317 143.315L254.904 142.142L254.624 123.901Z" fill="#E9E9E9"/>
<path d="M215.471 163.922L208.992 133.617L254.984 123.82L261.469 154.151L215.471 163.922Z" stroke="black" stroke-width="1.00705" stroke-linecap="round" stroke-linejoin="round"/>
<path d="M216.832 131.927L220.437 126.809" stroke="black" stroke-width="1.00705" stroke-linecap="round" stroke-linejoin="round"/>
<path d="M235.283 105.66L262.555 66.7029L214.388 32.9761L191.453 65.7079" stroke="black" stroke-width="1.00705" stroke-linecap="round" stroke-linejoin="round"/>
<path d="M187.629 173.726L199.058 157.373" stroke="black" stroke-width="1.00705" stroke-linecap="round" stroke-linejoin="round"/>
<path d="M80.0938 192.4L143.465 236.766L174.284 192.783" stroke="black" stroke-width="1.00705" stroke-linecap="round" stroke-linejoin="round"/>
<path d="M48.2311 98.3121L41.1643 93.3628L7.4375 141.529L60.4513 178.649" stroke="black" stroke-width="1.00705" stroke-linecap="round" stroke-linejoin="round"/>
<path d="M141.353 137.269L129.03 154.872L124.719 151.862" stroke="black" stroke-width="1.00705" stroke-linecap="round" stroke-linejoin="round"/>
<path d="M109.254 74.9429L123.439 54.6609L136.832 64.0238L152.65 41.4712" stroke="#FEA82F" stroke-width="1.00705" stroke-linecap="round" stroke-linejoin="round"/>
<path d="M142.676 43.206L152.651 41.4712L154.411 51.4209" stroke="#FEA82F" stroke-width="1.00705" stroke-linecap="round" stroke-linejoin="round"/>
<path d="M47.1612 71.2692L56.3455 69.6365C61.8117 68.6428 60.2475 60.5542 54.9168 61.5237L49.7889 62.3911C44.328 63.3216 43.0229 55.1886 48.3602 54.2783L57.5445 52.6455" stroke="#14B8A6" stroke-width="1.00705" stroke-linecap="round" stroke-linejoin="round"/>
<path d="M50.375 50.8091L54.3294 73.1065" stroke="#14B8A6" stroke-width="1.00705" stroke-linecap="round" stroke-linejoin="round"/>
<path d="M138.363 172.144L149.435 170.179" stroke="black" stroke-width="1.00705" stroke-linecap="round" stroke-linejoin="round"/>
<path d="M142.93 165.613L144.869 176.711" stroke="black" stroke-width="1.00705" stroke-linecap="round" stroke-linejoin="round"/>
<path d="M207.426 193.191L222.912 190.461" stroke="black" stroke-width="1.00705" stroke-linecap="round" stroke-linejoin="round"/>
<path d="M213.805 184.083L216.534 199.595" stroke="black" stroke-width="1.00705" stroke-linecap="round" stroke-linejoin="round"/>
<path d="M85.3745 225.872C87.3612 225.872 88.9717 224.262 88.9717 222.275C88.9717 220.288 87.3612 218.678 85.3745 218.678C83.3878 218.678 81.7773 220.288 81.7773 222.275C81.7773 224.262 83.3878 225.872 85.3745 225.872Z" stroke="black" stroke-width="1.00705" stroke-linecap="round" stroke-linejoin="round"/>
<path d="M51.852 187.372L32.0547 189.846L28.3555 160.172L64.2763 155.683" stroke="black" stroke-width="1.00705" stroke-linecap="round" stroke-linejoin="round"/>
<path d="M94.8949 67.668C96.4382 67.0001 97.7505 65.8923 98.668 64.483C99.9691 62.3346 97.4434 59.7633 95.3004 62.2125C95.4534 59.3806 91.9838 59.9674 91.675 61.5491C91.4628 61.1834 91.1374 60.8967 90.7477 60.7326C90.358 60.5685 89.9254 60.5359 89.5156 60.6397C89.1057 60.7436 88.7409 60.9782 88.4763 61.308C88.2118 61.6379 88.062 62.0449 88.0496 62.4676C86.7995 60.9906 84.2483 61.5277 84.682 63.7687C82.9217 62.0594 78.4061 63.0799 85.622 76.8818" stroke="black" stroke-width="1.00705" stroke-linecap="round" stroke-linejoin="round"/>
<path d="M89.9255 80.5318C89.5505 79.465 89.35 78.3446 89.332 77.2139C91.3461 79.2481 93.4395 80.9091 94.4264 80.1451" stroke="black" stroke-width="1.00705" stroke-linecap="round" stroke-linejoin="round"/>
<path d="M61.8788 97.4189C59.098 117.931 58.4736 129.567 60.7307 140.636C62.7865 150.716 66.4454 164.337 68.3333 170.689C59.5572 179.644 42.3621 196.814 40.5508 198.957" stroke="black" stroke-width="1.00705" stroke-linecap="round" stroke-linejoin="round"/>
<path d="M42.5184 203.396C40.5285 201.763 39.8437 199.93 40.554 198.957C41.5557 197.585 45.4805 197.957 53.1569 203.119C59.9458 207.685 62.603 211.133 62.0095 212.384C61.6564 213.126 60.1217 213.099 57.596 212.002" stroke="black" stroke-width="1.00705" stroke-linecap="round" stroke-linejoin="round"/>
<path d="M110.354 201.993C108.007 201.559 106.694 200.793 106.808 199.697C106.97 198.139 110.226 197.17 118.773 197.656C126.829 198.114 129.112 199.849 129.207 201.126C129.264 201.891 128.161 202.58 125.559 202.58" stroke="black" stroke-width="1.00705" stroke-linecap="round" stroke-linejoin="round"/>
<path d="M61.9805 212.347C88.6405 183.365 89.8019 181.501 90.4464 176.732C90.7969 174.154 90.7016 170.915 88.7371 154.435" stroke="black" stroke-width="1.00705" stroke-linecap="round" stroke-linejoin="round"/>
<path d="M37.6959 208.881C39.33 206.075 66.5244 225.719 64.6365 228.551C63.1622 230.77 35.2736 213.041 37.6959 208.881Z" stroke="black" stroke-width="1.00705" stroke-linecap="round" stroke-linejoin="round"/>
<path d="M108.695 209.238C108.943 206.176 139.996 211.84 139.539 215.029C139.18 217.529 108.328 213.752 108.695 209.238Z" stroke="black" stroke-width="1.00705" stroke-linecap="round" stroke-linejoin="round"/>
<path d="M46.2673 199.237C43.5375 202.069 39.175 207.294 37.6953 208.855" stroke="black" stroke-width="1.00705" stroke-linecap="round" stroke-linejoin="round"/>
<path d="M58.058 206.789C54.1547 213.856 65.8647 220.566 64.6374 228.551" stroke="black" stroke-width="1.00705" stroke-linecap="round" stroke-linejoin="round"/>
<path d="M108.691 209.238C109.355 205.232 110.426 204.442 110.783 197.732" stroke="black" stroke-width="1.00705" stroke-linecap="round" stroke-linejoin="round"/>
<path d="M124.129 198.268C123.726 206.661 138.543 206.942 139.564 215.029" stroke="black" stroke-width="1.00705" stroke-linecap="round" stroke-linejoin="round"/>
<path d="M106.833 199.697C107.165 191.278 106.144 168.573 105.736 164.873C81.0915 149.081 71.601 146.122 70.0703 139.157" stroke="black" stroke-width="1.00705" stroke-linecap="round" stroke-linejoin="round"/>
<path d="M129.205 201.125C127.649 160.204 127.191 155.46 123.975 150.663C120.835 145.97 118.235 143.978 104.535 135.585" stroke="black" stroke-width="1.00705" stroke-linecap="round" stroke-linejoin="round"/>
<path d="M39.0703 138.417C37.5396 117.982 37.694 110.03 40.9582 105.196C45.6578 98.2584 59.3013 90.7297 73.6645 86.9352C91.7015 82.1631 99.0234 82.8277 102.314 85.7871C105 88.2121 105.806 92.0147 106.6 117.214C111.536 117.798 123.006 119.181 125.326 119.59C128.617 122.473 129.179 132.346 125.326 135.995C107.315 135.995 99.0973 135.795 95.4773 133.52C89.8861 130.006 88.8441 126.657 86.2929 103.161C85.7075 110.305 85.4779 117.854 85.353 121.315" stroke="black" stroke-width="1.00705" stroke-linecap="round" stroke-linejoin="round"/>
<path d="M105.125 117.038L106.602 117.213" stroke="black" stroke-width="1.00705" stroke-linecap="round" stroke-linejoin="round"/>
<path d="M41.8255 139.157C39.9631 139.208 39.093 138.902 39.0447 138.417C38.9655 137.626 41.6214 136.37 47.3106 135.815C53.1273 135.247 56.1122 135.917 56.2397 136.682C56.3163 137.142 55.653 137.703 53.6375 138.009" stroke="black" stroke-width="1.00705" stroke-linecap="round" stroke-linejoin="round"/>
<path d="M60.0732 112.752C57.5475 113.594 53.4146 114.844 51.2461 115.437C54.435 113.424 57.5095 111.235 60.4559 108.881" stroke="black" stroke-width="1.00705" stroke-linecap="round" stroke-linejoin="round"/>
<path d="M56.2685 136.708C56.0134 131.35 55.6562 119.946 55.6562 114.15" stroke="black" stroke-width="1.00705" stroke-linecap="round" stroke-linejoin="round"/>
<path d="M38.5859 131.478C40.8055 128.289 53.8166 127.166 55.9596 129.33" stroke="black" stroke-width="1.00705" stroke-linecap="round" stroke-linejoin="round"/>
<path d="M117.752 118.569C120.966 121.503 120.66 132.651 116.578 135.968" stroke="black" stroke-width="1.00705" stroke-linecap="round" stroke-linejoin="round"/>
<path d="M59.4805 130.764C64.7346 126.964 75.749 125.025 89.4678 124.845" stroke="black" stroke-width="1.00705" stroke-linecap="round" stroke-linejoin="round"/>
<path d="M59.3516 126.733C64.2727 123.107 75.5986 121.274 88.6728 121.273" stroke="black" stroke-width="1.00705" stroke-linecap="round" stroke-linejoin="round"/>
<path d="M53.0794 135.662C53.0374 136.583 53.307 137.49 53.8448 138.238C54.2476 138.749 56.9331 141.143 57.5185 142.014C58.163 142.98 58.488 147.04 57.9777 147.474C57.3144 148.036 52.8498 148.494 51.064 148.494C49.7884 148.494 50.0945 146.326 54.304 145.254C50.8129 145.458 48.4618 144.438 47.875 141.402" stroke="black" stroke-width="1.00705" stroke-linecap="round" stroke-linejoin="round"/>
<path d="M41.9311 136.759C41.7271 140.509 41.7953 144.269 42.1352 148.01" stroke="black" stroke-width="1.00705" stroke-linecap="round" stroke-linejoin="round"/>
<path d="M45.5282 148.341C45.3939 146.019 48.1599 145.713 48.4365 147.938C48.6433 149.596 48.7454 150.77 48.8702 152.101C48.9548 152.503 48.876 152.922 48.6511 153.267C48.4262 153.611 48.0737 153.853 47.6712 153.938C47.2686 154.022 46.8489 153.943 46.5043 153.719C46.1599 153.493 45.9189 153.141 45.8343 152.738C45.6571 151.279 45.5549 149.811 45.5282 148.341Z" stroke="black" stroke-width="1.00705" stroke-linecap="round" stroke-linejoin="round"/>
<path d="M54.7355 148.239C54.9651 149.313 55.1504 150.177 55.3478 151.122C55.4415 151.505 55.3865 151.909 55.1938 152.251C55.0011 152.595 54.6852 152.853 54.3099 152.972C53.9347 153.092 53.528 153.064 53.1723 152.895C52.8166 152.727 52.5384 152.429 52.3938 152.062C52.0961 150.887 51.8744 149.693 51.7305 148.49" stroke="black" stroke-width="1.00705" stroke-linecap="round" stroke-linejoin="round"/>
<path d="M42.5927 148.341C42.5927 146.096 45.2782 145.943 45.4246 148.112C45.532 149.723 45.5588 150.867 45.6032 152.14C45.6523 152.531 45.5472 152.924 45.3102 153.238C45.0732 153.553 44.723 153.762 44.3341 153.821C43.9453 153.881 43.5484 153.787 43.2279 153.559C42.9075 153.331 42.6888 152.986 42.6183 152.599C42.492 151.53 42.5927 150.382 42.5927 148.341Z" stroke="black" stroke-width="1.00705" stroke-linecap="round" stroke-linejoin="round"/>
<path d="M51.6726 148.494C51.8767 149.719 52.0082 150.688 52.1573 151.76C52.2475 152.161 52.1784 152.581 51.9642 152.932C51.75 153.282 51.4078 153.536 51.0098 153.638C50.6119 153.741 50.1897 153.685 49.8325 153.482C49.4752 153.28 49.2111 152.945 49.0959 152.55C48.8512 151.072 48.681 149.582 48.5856 148.086C48.3788 146.096 50.3204 145.484 51.1878 146.657" stroke="black" stroke-width="1.00705" stroke-linecap="round" stroke-linejoin="round"/>
<path d="M138.261 134.871C138.561 132.752 136.183 132.138 135.658 134.131C135.45 134.921 135.175 135.993 134.995 136.816C134.901 137.179 134.953 137.566 135.14 137.891C135.328 138.216 135.636 138.453 135.997 138.554C136.358 138.655 136.745 138.609 137.072 138.426C137.4 138.245 137.644 137.942 137.75 137.582C137.967 136.688 138.137 135.783 138.261 134.871Z" stroke="black" stroke-width="1.00705" stroke-linecap="round" stroke-linejoin="round"/>
<path d="M135.56 134.233C136.11 132.125 133.612 131.348 132.958 133.34C132.699 134.13 132.335 135.251 132.167 135.815C131.57 137.82 134.288 138.699 134.846 136.937C135.154 135.968 135.394 134.871 135.56 134.233Z" stroke="black" stroke-width="1.00705" stroke-linecap="round" stroke-linejoin="round"/>
<path d="M132.802 133.62C133.445 131.598 131.226 130.74 130.302 132.6C130.048 133.111 129.657 134.026 129.307 134.947C129.138 135.285 129.11 135.677 129.229 136.036C129.349 136.394 129.606 136.691 129.945 136.86C130.283 137.03 130.675 137.058 131.033 136.938C131.392 136.819 131.689 136.561 131.858 136.223C132.132 135.633 132.591 134.281 132.802 133.62Z" stroke="black" stroke-width="1.00705" stroke-linecap="round" stroke-linejoin="round"/>
<path d="M140.942 135.254C141.01 133.187 138.767 132.703 138.391 134.667C138.235 135.483 138.001 137.084 137.957 137.524C137.973 137.853 138.105 138.165 138.329 138.407C138.553 138.647 138.855 138.801 139.182 138.84C139.509 138.881 139.84 138.803 140.115 138.623C140.39 138.443 140.593 138.172 140.687 137.856C140.821 136.994 140.906 136.125 140.942 135.254Z" stroke="black" stroke-width="1.00705" stroke-linecap="round" stroke-linejoin="round"/>
<path d="M120.813 197.834C119.739 163.164 120.124 157.5 117.598 153.75C114.025 148.443 109.734 146.083 89.7904 134.259C86.5235 132.322 85.5554 130.151 85.4023 124.994" stroke="black" stroke-width="1.00705" stroke-linecap="round" stroke-linejoin="round"/>
<path d="M79.8125 149.081C83.8764 157.493 87.4803 166.12 90.6081 174.925" stroke="black" stroke-width="1.00705" stroke-linecap="round" stroke-linejoin="round"/>
<path d="M166.605 53.0029C168.366 63.0734 168.876 64.584 170.458 64.7639C172.014 64.9412 172.983 64.3047 176.377 60.631C175.997 62.3954 175.274 64.0679 174.25 65.5535" stroke="black" stroke-width="1.00705" stroke-linecap="round" stroke-linejoin="round"/>
<path d="M174.311 49.5589C174.133 47.7986 173.546 47.4414 168.444 47.0842C162.984 46.7016 162.576 47.5945 163.137 50.5028C163.724 53.6918 166.071 53.1816 171.658 52.5693C173.291 54.6358 174.362 55.7328 174.362 54.4572C174.362 52.0846 176.837 52.1356 176.888 55.9342C177.767 57.166 178.788 58.2925 179.925 59.291C178.801 50.2491 178.574 49.9416 174.311 49.5589Z" stroke="black" stroke-width="1.00705" stroke-linecap="round" stroke-linejoin="round"/>
<path d="M174.314 62.7808C174.487 65.0634 174.201 67.8294 172.551 68.7694C167.729 71.5502 165.793 72.674 164.157 74.9943C161.025 79.4374 161.223 82.3927 160.637 102.139C154.718 107.241 147.344 112.982 144.641 115.405" stroke="black" stroke-width="1.00705" stroke-linecap="round" stroke-linejoin="round"/>
<path d="M145.101 118.059C144.027 116.757 144.027 115.82 144.642 115.405C145.49 114.828 147.929 115.765 151.658 120.023C155.659 124.588 156.676 127.213 156.148 128.136C155.786 128.771 154.49 128.595 153.06 127.345" stroke="black" stroke-width="1.00705" stroke-linecap="round" stroke-linejoin="round"/>
<path d="M221.993 113.492C220.232 113.798 219.253 113.289 219.186 112.497C219.098 111.452 221.128 109.829 227.019 108.543C233.629 107.101 235.859 108.006 235.999 109.155C235.992 109.619 235.83 110.068 235.538 110.429C235.245 110.79 234.84 111.042 234.387 111.145" stroke="black" stroke-width="1.00705" stroke-linecap="round" stroke-linejoin="round"/>
<path d="M219.185 112.522C214.924 93.9241 214.485 92.0161 212.73 90.7351C210.327 88.9815 208.648 88.286 194.719 86.9849C198.272 88.8205 201.682 90.9183 204.924 93.2608" stroke="black" stroke-width="1.00705" stroke-linecap="round" stroke-linejoin="round"/>
<path d="M237.273 159.286C241.973 162.118 245.59 164.286 247.095 165.358C247.988 170.997 241.432 179.542 237.197 180.435C205.358 162.5 201.534 160.176 198.24 156.535C195.105 153.062 194.005 147.427 188.826 124.134C187.697 124.068 186.585 123.818 185.535 123.395" stroke="black" stroke-width="1.00705" stroke-linecap="round" stroke-linejoin="round"/>
<path d="M203.574 87.9287C205.003 93.3883 208.293 106.093 209.825 115.252C210.665 120.278 211.687 127.068 212.58 132.855" stroke="black" stroke-width="1.00705" stroke-linecap="round" stroke-linejoin="round"/>
<path d="M167.806 78.2598C167.512 81.0925 167.512 83.948 167.806 86.7808C168.017 88.7223 175.179 108.802 176.735 112.497C164.919 138.238 163.067 143.009 162.729 147.219C162.326 152.187 162.857 155.51 172.347 192.375C178.138 194.084 188.165 191.023 190.894 187.936C188.241 176.481 185.537 165.051 182.603 150.152C183.598 147.295 185.894 143.8 190.996 133.905" stroke="black" stroke-width="1.00705" stroke-linecap="round" stroke-linejoin="round"/>
<path d="M247.071 167.833C249.364 168.427 251.615 169.177 253.806 170.078C253.525 176.94 248.091 194.85 243.933 199.825C241.815 196.636 239.596 184.772 239.188 179.568" stroke="black" stroke-width="1.00705" stroke-linecap="round" stroke-linejoin="round"/>
<path d="M189.441 189.161C190.913 191.543 192.128 194.074 193.066 196.712C188.168 201.738 173.371 208.371 166.789 209.111C168.854 203.265 171.843 197.786 175.642 192.885" stroke="black" stroke-width="1.00705" stroke-linecap="round" stroke-linejoin="round"/>
<path d="M156.117 128.18C161.554 123.965 172.743 114.395 176.247 111.247" stroke="black" stroke-width="1.00705" stroke-linecap="round" stroke-linejoin="round"/>
<path d="M150.508 110.507C155.279 110.89 162.014 119.742 161.529 123.824" stroke="black" stroke-width="1.00705" stroke-linecap="round" stroke-linejoin="round"/>
<path d="M217.574 105.456C219.376 101.547 231.733 99.1783 234.346 101.293" stroke="black" stroke-width="1.00705" stroke-linecap="round" stroke-linejoin="round"/>
<path d="M174.133 66.1925C174.694 66.9247 175.407 67.5256 176.225 67.9529C179.215 66.6566 182.027 64.9829 184.591 62.9727" stroke="black" stroke-width="1.00705" stroke-linecap="round" stroke-linejoin="round"/>
<path d="M186.125 63.9473C185.05 67.4679 181.303 72.7744 180.41 73.9479C178.74 72.1738 177.33 70.172 176.221 68.0023C175.265 69.9794 174.511 72.0489 173.976 74.1789C173.483 71.853 173.438 69.4542 173.848 67.1121" stroke="black" stroke-width="1.00705" stroke-linecap="round" stroke-linejoin="round"/>
<path d="M174.876 71.2251C175.08 72.2934 175.441 73.3251 175.95 74.2865C175.644 77.1439 174.062 97.7844 174.062 99.1607C174.914 100.956 175.976 102.643 177.226 104.187C178.597 102.675 179.819 101.035 180.874 99.2882C180.364 95.4615 177.249 75.6897 176.846 74.3134C177.433 73.4042 177.928 72.4384 178.323 71.4305" stroke="black" stroke-width="1.00705" stroke-linecap="round" stroke-linejoin="round"/>
<path d="M174.438 106.476C181.428 108.798 199.618 104.18 205.894 97.062" stroke="black" stroke-width="1.00705" stroke-linecap="round" stroke-linejoin="round"/>
<path d="M175.766 110.048C183.139 112.14 200.283 108.034 206.814 100.838" stroke="black" stroke-width="1.00705" stroke-linecap="round" stroke-linejoin="round"/>
<path d="M172.627 114.436C172.796 109.337 172.531 104.233 171.836 99.1797" stroke="black" stroke-width="1.00705" stroke-linecap="round" stroke-linejoin="round"/>
<path d="M188.828 124.08C188.113 131.972 186.452 139.749 183.879 147.244" stroke="black" stroke-width="1.00705" stroke-linecap="round" stroke-linejoin="round"/>
<path d="M183.086 110.481C184.563 116.706 184.642 117.293 186.811 117.166" stroke="black" stroke-width="1.00705" stroke-linecap="round" stroke-linejoin="round"/>
<path d="M231.379 160.536C238.267 164.898 244.492 168.827 246.482 170.103" stroke="black" stroke-width="1.00705" stroke-linecap="round" stroke-linejoin="round"/>
<path d="M201.535 104.895C204.546 117.651 207.964 134.846 209.036 146.224C209.724 146.709 210.77 147.397 212.097 148.265" stroke="black" stroke-width="1.00705" stroke-linecap="round" stroke-linejoin="round"/>
<path d="M147.397 116.094C144.922 118.161 144.744 118.624 143.672 118.671C141.147 118.782 139.01 117.962 138.136 118.926C136.497 120.829 134.988 122.84 133.621 124.947C132.519 126.558 135.534 127.677 139.233 123.391C140.323 123.956 141.52 124.286 142.746 124.361C143.972 124.436 145.199 124.253 146.35 123.824" stroke="black" stroke-width="1.00705" stroke-linecap="round" stroke-linejoin="round"/>
<path d="M126.758 121.578C129.947 122.037 130.607 122.186 131.529 121.655C133.716 120.394 134.617 118.835 135.866 119.205C136.377 119.354 136.886 119.512 137.422 119.69" stroke="black" stroke-width="1.00705" stroke-linecap="round" stroke-linejoin="round"/>
<path d="M155.456 125.176C154.334 126.171 151.63 128.569 150.488 129.692" stroke="black" stroke-width="1.00705" stroke-linecap="round" stroke-linejoin="round"/>
<path d="M143.902 124.36C150.535 127.778 151.786 129.972 149.566 131.988" stroke="black" stroke-width="1.00705" stroke-linecap="round" stroke-linejoin="round"/>
<path d="M145.534 129.131C149.336 131.07 150.502 132.163 149.285 133.83C148.593 134.77 147.652 134.8 144.055 132.3" stroke="black" stroke-width="1.00705" stroke-linecap="round" stroke-linejoin="round"/>
<path d="M126.551 134.468C127.546 134.57 128.745 134.723 129.383 134.825" stroke="black" stroke-width="1.00705" stroke-linecap="round" stroke-linejoin="round"/>
<path d="M142.473 134.616C143.697 135.432 146.478 138.085 147.779 134.335" stroke="black" stroke-width="1.00705" stroke-linecap="round" stroke-linejoin="round"/>
<path d="M140.789 137.142C141.912 137.422 143.953 138.137 144.692 136.067" stroke="black" stroke-width="1.00705" stroke-linecap="round" stroke-linejoin="round"/>
<path d="M233.168 107.803C233.806 110.584 235.539 112.701 236.659 117.605C237.016 119.514 237.077 121.468 236.838 123.396C236.734 123.655 236.577 123.89 236.376 124.084C236.174 124.278 235.935 124.427 235.672 124.521C235.409 124.615 235.128 124.652 234.85 124.63C234.572 124.607 234.301 124.526 234.057 124.391" stroke="black" stroke-width="1.00705" stroke-linecap="round" stroke-linejoin="round"/>
<path d="M234.109 120.737C234.211 121.849 234.211 122.968 234.109 124.079C233.982 125.254 232.576 126.275 230.887 125.154" stroke="black" stroke-width="1.00705" stroke-linecap="round" stroke-linejoin="round"/>
<path d="M230.923 121.656C231.004 122.666 231.021 123.68 230.974 124.692C230.947 125.075 230.809 125.441 230.577 125.747C230.345 126.052 230.028 126.283 229.666 126.411C229.304 126.54 228.913 126.56 228.54 126.469C228.167 126.378 227.828 126.18 227.566 125.9" stroke="black" stroke-width="1.00705" stroke-linecap="round" stroke-linejoin="round"/>
<path d="M227.502 122.447C227.658 123.433 227.709 124.434 227.655 125.431C227.628 125.865 227.439 126.272 227.123 126.571C226.809 126.869 226.392 127.037 225.958 127.041C225.524 127.044 225.104 126.882 224.784 126.588C224.465 126.294 224.269 125.89 224.237 125.457C224.02 123.035 223.593 120.636 222.961 118.288" stroke="black" stroke-width="1.00705" stroke-linecap="round" stroke-linejoin="round"/>
<path d="M221.688 110.201C221.978 111.116 222.113 112.073 222.091 113.033C221.989 114.13 219.871 116.349 219.871 117.574C219.938 118.822 220.344 120.029 221.045 121.065" stroke="black" stroke-width="1.00705" stroke-linecap="round" stroke-linejoin="round"/>
<path d="M225.871 120.916C227.529 120.406 233.014 119.002 234.724 118.696" stroke="black" stroke-width="1.00705" stroke-linecap="round" stroke-linejoin="round"/>
<path d="M92.3926 83.3098C91.2733 82.6968 90.401 81.7144 89.9246 80.5304C91.7078 80.8097 93.7205 80.9104 94.3315 80.2484C95.4057 79.1272 95.7346 76.4767 94.8954 67.667C94.1323 68.0239 93.337 68.3071 92.5201 68.5129C92.6477 71.6012 91.599 71.7033 91.0431 70.6049C89.9931 68.5411 87.65 70.0436 89.691 73.2326C84.4114 78.143 75.9172 85.4273 66.6523 89.0836" stroke="black" stroke-width="1.00705" stroke-linecap="round" stroke-linejoin="round"/>
<path d="M235.972 109.155C231.406 85.9135 228.721 80.4795 223.802 75.9384C215.463 68.2082 205.894 67.4657 189.513 65.4785C187.678 65.2394 183.19 62.2827 179.922 59.2925" stroke="black" stroke-width="1.00705" stroke-linecap="round" stroke-linejoin="round"/>
<path d="M225.984 148.645L245.578 144.486" stroke="black" stroke-width="1.00705" stroke-linecap="round" stroke-linejoin="round"/>
<path d="M225.133 144.718L221.332 145.535L223.067 153.466L226.868 152.65L225.133 144.718Z" stroke="black" stroke-width="1.00705" stroke-linecap="round" stroke-linejoin="round"/>
<path d="M248.551 139.744L244.75 140.56L246.459 148.488L250.261 147.671L248.551 139.744Z" stroke="black" stroke-width="1.00705" stroke-linecap="round" stroke-linejoin="round"/>
<path d="M249.395 143.686L255.276 142.429L255.034 124.079" stroke="black" stroke-width="1.00705" stroke-linecap="round" stroke-linejoin="round"/>
<path d="M222.176 149.477L216.317 150.699L209.043 133.866" stroke="black" stroke-width="1.00705" stroke-linecap="round" stroke-linejoin="round"/>
<path d="M42.5412 152.678C42.5412 152.663 42.5922 147.882 42.5922 147.882C41.3621 148.062 40.2505 148.714 39.4932 149.7C38.7359 150.685 38.3924 151.927 38.5358 153.163L39.2887 158.765L43.2686 158.254L42.5412 152.678Z" stroke="black" stroke-width="1.00705" stroke-linejoin="round"/>
<path d="M59.4032 150.612C59.2564 149.45 58.6819 148.387 57.7919 147.627C56.8035 147.976 55.7748 148.199 54.7305 148.29C54.9466 149.23 55.0151 149.563 55.2407 150.688C55.4502 150.898 55.5021 151.855 56.1466 156.66L60.1265 156.149L59.4032 150.612Z" stroke="black" stroke-width="1.00705" stroke-linejoin="round"/>
<defs>
<linearGradient id="paint0_linear_1640_8542" x1="37.8477" y1="210.142" x2="64.7343" y2="210.142" gradientUnits="userSpaceOnUse">
<stop stop-color="#875BF2"/>
<stop offset="1" stop-color="#CC2FE5"/>
</linearGradient>
<linearGradient id="paint1_linear_1640_8542" x1="108.703" y1="204.048" x2="139.496" y2="204.048" gradientUnits="userSpaceOnUse">
<stop stop-color="#875BF2"/>
<stop offset="1" stop-color="#CC2FE5"/>
</linearGradient>
<linearGradient id="paint2_linear_1640_8542" x1="162.641" y1="135.709" x2="247.178" y2="135.709" gradientUnits="userSpaceOnUse">
<stop stop-color="#875BF2"/>
<stop offset="1" stop-color="#CC2FE5"/>
</linearGradient>
<linearGradient id="paint3_linear_1640_8542" x1="33.207" y1="164.375" x2="68.3115" y2="164.375" gradientUnits="userSpaceOnUse">
<stop stop-color="#875BF2"/>
<stop offset="1" stop-color="#CC2FE5"/>
</linearGradient>
<linearGradient id="paint4_linear_1640_8542" x1="38.5078" y1="151.614" x2="43.1574" y2="151.614" gradientUnits="userSpaceOnUse">
<stop stop-color="#875BF2"/>
<stop offset="1" stop-color="#CC2FE5"/>
</linearGradient>
<linearGradient id="paint5_linear_1640_8542" x1="54.7305" y1="150.671" x2="60.0114" y2="150.671" gradientUnits="userSpaceOnUse">
<stop stop-color="#875BF2"/>
<stop offset="1" stop-color="#CC2FE5"/>
</linearGradient>
</defs>
</svg>
