<svg width="270" height="270" viewBox="0 0 270 270" fill="none" xmlns="http://www.w3.org/2000/svg">
<path d="M112.265 101.076C108.36 104.342 96.2633 106.639 84.9067 135.299L68.1908 120.267C60.475 124.182 54.4966 130.834 51.4238 138.923L76.5615 161.511C79.4734 164.118 83.3005 165.464 87.2034 165.253C91.1062 165.043 94.7663 163.293 97.3809 160.388L107.797 148.792L103.659 176.236L86.7133 195.121C90.9651 202.587 97.5185 208.477 105.394 211.911L123.335 191.954C125.991 189 127.868 185.43 128.797 181.567C132.701 165.18 131.374 136.268 133.901 111.36C123.774 109.472 120.023 107.175 112.265 101.076Z" fill="url(#paint0_linear_1640_8478)"/>
<path d="M250.564 102.224L221.471 132.925L233.006 82.1391L262.099 51.438L250.564 102.224Z" fill="#E9E9E9"/>
<path d="M158.33 90.9694C157.947 90.7142 157.284 90.9439 156.416 91.5564L158.431 93.2152C158.764 92.0412 158.764 91.2246 158.33 90.9694Z" fill="#E9E9E9"/>
<path d="M140.31 106.664C139.773 108.042 139.844 109.2 140.259 109.471C140.674 109.743 141.871 109.471 142.677 108.425L140.31 106.664Z" fill="#E9E9E9"/>
<path d="M151.928 92.0924C151.545 91.8372 150.881 92.0669 150.014 92.6794L152.028 94.3382C152.358 93.1898 152.331 92.3732 151.928 92.0924Z" fill="#E9E9E9"/>
<path d="M92.2332 188.84L86.5918 195.118C90.8436 202.584 97.397 208.474 105.273 211.908L111.168 205.349C103.416 201.756 96.8483 196.03 92.2332 188.84Z" fill="#E9E9E9"/>
<path d="M124.693 96.2773L134.136 110.952L136.637 106.409L124.693 96.2773Z" fill="#E9E9E9"/>
<path d="M134.365 59.2729L135.667 62.0802L136.381 60.1662L134.365 59.2729Z" fill="#E9E9E9"/>
<path d="M127.601 126.749L107.772 148.799L105.756 162.325L127.601 126.749Z" fill="#E9E9E9"/>
<path d="M79.4187 211.554C77.7599 213.34 76.05 215.127 74.2891 216.964C72.8855 225.258 73.549 244.296 76.2286 253.152C83.3475 241.311 85.9264 233.81 89.5262 221.609C85.6481 218.811 82.2368 215.417 79.4187 211.554Z" fill="#E9E9E9"/>
<path d="M51.3223 113.683C50.0973 112.458 48.6937 110.952 46.8307 108.936C32.3834 110.978 16.4855 115.801 9.74805 118.991C20.0242 122.877 31.0319 124.446 41.9845 123.585L42.5459 124.095C44.9548 120.22 47.9107 116.713 51.3223 113.683Z" fill="#E9E9E9"/>
<path d="M73.7017 125.09L68.1947 120.121C60.4847 124.044 54.5086 130.693 51.4277 138.776L57.0167 143.804C60.8833 136.239 66.6287 129.796 73.7017 125.09Z" fill="#E9E9E9"/>
<path d="M145.593 42.659C145.702 42.0408 145.586 41.4039 145.268 40.8626C144.951 40.3213 144.45 39.9107 143.858 39.704C144.239 39.3514 144.509 38.895 144.635 38.3908C144.761 37.8867 144.737 37.3568 144.565 36.8661C144.395 36.3756 144.083 35.9457 143.672 35.6292C143.26 35.3127 142.764 35.1235 142.246 35.0848C142.457 34.635 142.54 34.1353 142.483 33.6414C142.428 33.1475 142.236 32.6788 141.93 32.2874C141.624 31.896 141.215 31.5971 140.749 31.4242C140.283 31.2512 139.778 31.2109 139.291 31.3078C139.354 30.8125 139.276 30.3095 139.066 29.8562C138.857 29.4029 138.525 29.0174 138.107 28.7435C137.69 28.4696 137.203 28.3185 136.705 28.3071C136.205 28.2957 135.714 28.4246 135.284 28.6792C135.193 28.1705 134.957 27.6988 134.605 27.3207C134.253 26.9426 133.799 26.6742 133.298 26.5475C132.797 26.4209 132.27 26.4416 131.78 26.6069C131.29 26.7722 130.859 27.0753 130.537 27.4797C130.294 26.9925 129.914 26.5868 129.443 26.3119C128.973 26.0371 128.433 25.9052 127.889 25.9322C127.345 25.9594 126.821 26.1442 126.38 26.4644C125.939 26.7845 125.601 27.226 125.408 27.7349C125.099 27.4099 124.714 27.1675 124.287 27.0304C123.861 26.8934 123.406 26.8657 122.966 26.9504C122.526 27.035 122.115 27.2288 121.769 27.5144C121.424 27.7998 121.156 28.1675 120.99 28.5838C121.034 27.9457 120.894 27.3083 120.588 26.7467C120.282 26.185 119.822 25.7226 119.262 25.4135C118.702 25.1046 118.065 24.9619 117.427 25.0023C116.789 25.0429 116.175 25.2649 115.659 25.6422C115.376 24.9896 114.901 24.4387 114.296 24.0635C113.692 23.6883 112.988 23.5066 112.277 23.5426C111.567 23.5787 110.884 23.8308 110.321 24.2653C109.758 24.6998 109.341 25.296 109.125 25.974C108.541 25.6207 107.863 25.4549 107.182 25.4988C106.5 25.5427 105.849 25.7943 105.315 26.2195C104.781 26.6449 104.39 27.2237 104.195 27.878C104 28.5321 104.01 29.2304 104.224 29.8786C103.541 29.956 102.898 30.2421 102.383 30.6981C101.868 31.154 101.507 31.7575 101.347 32.4265C101.188 33.0954 101.238 33.7972 101.492 34.4365C101.746 35.0755 102.191 35.6209 102.765 35.9982C102.227 36.4342 101.837 37.0264 101.65 37.6933C101.462 38.3602 101.487 39.0688 101.719 39.7213C101.952 40.374 102.381 40.9383 102.948 41.3365C103.514 41.7348 104.191 41.9471 104.884 41.9444C104.745 42.6099 104.812 43.3019 105.077 43.9278C105.342 44.5539 105.792 45.084 106.366 45.4475C106.94 45.8111 107.612 45.9905 108.291 45.9619C108.97 45.9333 109.625 45.6981 110.166 45.2876C110.381 45.8382 110.742 46.3195 111.21 46.6798C111.678 47.0401 112.236 47.2656 112.823 47.332C112.715 47.713 112.694 48.1134 112.76 48.5039C112.825 48.8945 112.977 49.2655 113.204 49.59C113.431 49.9146 113.727 50.1847 114.071 50.3809C114.416 50.5768 114.799 50.6939 115.194 50.7235C114.981 51.1748 114.898 51.6768 114.956 52.1727C115.013 52.6684 115.208 53.1383 115.519 53.5287C115.83 53.9193 116.244 54.215 116.714 54.3822C117.185 54.5494 117.692 54.5817 118.18 54.475C118.121 54.9712 118.203 55.4739 118.416 55.9259C118.628 56.378 118.964 56.7614 119.383 57.0324C119.803 57.3036 120.29 57.4515 120.79 57.4597C121.289 57.4678 121.781 57.3356 122.209 57.0781C122.3 57.5873 122.537 58.0592 122.891 58.4367C123.244 58.8143 123.7 59.0813 124.202 59.2054C124.704 59.3297 125.231 59.3056 125.72 59.1365C126.209 58.9673 126.638 58.6601 126.956 58.252C127.278 58.7136 127.695 59.1004 128.18 59.3866C128.664 59.6727 129.204 59.8516 129.763 59.9109C130.618 58.3665 131.197 56.6847 131.473 54.9411C131.757 53.1658 131.426 51.3467 130.533 49.786C126.731 48.5354 128.44 44.0694 131.018 45.8048C132.243 46.6469 132.708 46.5932 132.804 45.7792C132.812 45.544 132.882 45.3153 133.009 45.117C133.136 44.9188 133.314 44.7587 133.524 44.6536C133.751 45.1324 134.115 45.5332 134.569 45.8058C135.022 46.0786 135.547 46.2109 136.076 46.1865C136.606 46.1619 137.116 45.9815 137.542 45.6679C137.969 45.3544 138.294 44.9216 138.475 44.424C138.723 44.6851 139.019 44.8939 139.348 45.0382C139.678 45.1826 140.032 45.2593 140.391 45.2641C140.751 45.2688 141.107 45.2015 141.44 45.0659C141.773 44.9303 142.075 44.7295 142.329 44.475C142.96 45.9624 143.44 47.5102 143.758 49.0942C144.141 48.8784 144.466 48.5717 144.702 48.2011C144.94 47.8305 145.082 47.4074 145.117 46.969C145.152 46.5305 145.08 46.0901 144.905 45.6864C144.731 45.2827 144.459 44.9281 144.115 44.6536C144.5 44.4588 144.833 44.1771 145.089 43.8308C145.346 43.4847 145.519 43.0835 145.593 42.659Z" fill="#E9E9E9"/>
<path d="M201.33 35.3603C201.158 34.3256 200.683 33.3651 199.966 32.6002C199.248 31.8352 198.319 31.3002 197.299 31.0629C196.277 30.8256 195.207 30.8964 194.227 31.2665C193.245 31.6367 192.396 32.2895 191.785 33.1426C191.175 33.9955 190.831 35.0103 190.798 36.0585C190.764 37.1067 191.042 38.1414 191.597 39.0316C192.152 39.9219 192.957 40.6277 193.912 41.0598C194.869 41.4921 195.931 41.6312 196.966 41.4597C198.352 41.2279 199.59 40.4557 200.408 39.3122C201.226 38.1688 201.558 36.7475 201.33 35.3603Z" fill="#E9E9E9"/>
<path d="M42.8968 154.338L30.9277 158.19L35.8733 187.387L42.8968 154.338Z" fill="#E9E9E9"/>
<path d="M198.291 116.648L198.283 116.625L198.291 116.648Z" fill="#E9E9E9"/>
<path d="M209.113 103.857L202.248 110.161C204.656 110.67 206.996 111.467 209.215 112.534C210.155 112.934 211.019 113.496 211.767 114.193C212.813 115.392 207.2 113.682 204.443 113.376H204.417C204.975 113.67 205.482 114.049 205.923 114.499C206.828 115.535 199.904 113.191 199.288 113.631C201.942 114.831 206.05 117.102 207.046 118.87C208.22 120.988 202.197 116.776 198.292 116.648C200.768 117.797 203.473 119.406 204.443 121.192C205.77 123.61 200.972 119.177 195.255 118.997H195.23C200.691 122.315 203.243 125.042 195.485 121.677C194.063 121.041 192.545 120.644 190.993 120.503L175.4 134.762L221.439 132.976L228.202 103.168L209.113 103.857Z" fill="#E9E9E9"/>
<path d="M250.568 102.224L221.475 132.925L233.01 82.1391L262.103 51.438L250.568 102.224Z" stroke="black" stroke-width="1.00739" stroke-linejoin="round"/>
<path d="M209.113 103.858L202.248 110.161C204.656 110.671 206.996 111.468 209.215 112.534C210.155 112.935 211.019 113.496 211.767 114.193C212.813 115.393 207.2 113.683 204.443 113.377H204.417C204.975 113.67 205.482 114.049 205.923 114.5C206.828 115.535 199.904 113.191 199.288 113.632C201.942 114.831 206.05 117.103 207.046 118.87C208.22 120.988 202.197 116.776 198.292 116.649C200.768 117.797 203.473 119.406 204.443 121.193C205.77 123.61 200.972 119.178 195.255 118.998H195.23C200.691 122.316 203.243 125.042 195.485 121.678C194.063 121.041 192.545 120.644 190.993 120.504L175.4 134.763L221.439 132.976L228.202 103.168L209.113 103.858Z" stroke="black" stroke-width="1.00739" stroke-linejoin="round"/>
<path d="M145.597 42.659C145.706 42.0408 145.59 41.404 145.272 40.8626C144.955 40.3213 144.454 39.9107 143.861 39.704C144.243 39.3514 144.513 38.895 144.639 38.3908C144.765 37.8867 144.741 37.3568 144.569 36.8661C144.399 36.3756 144.087 35.9457 143.676 35.6292C143.264 35.3127 142.768 35.1235 142.25 35.0848C142.46 34.635 142.544 34.1353 142.487 33.6414C142.432 33.1475 142.24 32.6788 141.934 32.2874C141.628 31.896 141.219 31.5971 140.753 31.4242C140.287 31.2512 139.782 31.2109 139.295 31.3078C139.358 30.8125 139.28 30.3095 139.07 29.8562C138.861 29.4029 138.529 29.0174 138.111 28.7435C137.694 28.4696 137.207 28.3185 136.709 28.3071C136.209 28.2957 135.718 28.4246 135.288 28.6792C135.197 28.1705 134.961 27.6988 134.609 27.3207C134.257 26.9426 133.803 26.6742 133.302 26.5475C132.801 26.4209 132.274 26.4416 131.784 26.6069C131.294 26.7722 130.863 27.0753 130.541 27.4797C130.298 26.9925 129.918 26.5868 129.447 26.3119C128.977 26.0371 128.437 25.9052 127.893 25.9322C127.349 25.9594 126.825 26.1442 126.384 26.4644C125.943 26.7845 125.605 27.226 125.411 27.7349C125.103 27.4099 124.718 27.1675 124.291 27.0304C123.865 26.8934 123.41 26.8657 122.97 26.9504C122.53 27.035 122.118 27.2288 121.773 27.5144C121.428 27.7998 121.16 28.1675 120.994 28.5838C121.038 27.9457 120.898 27.3083 120.592 26.7467C120.286 26.185 119.826 25.7226 119.266 25.4135C118.706 25.1046 118.069 24.9619 117.431 25.0023C116.793 25.0429 116.179 25.2649 115.663 25.6422C115.38 24.9896 114.905 24.4387 114.3 24.0635C113.696 23.6883 112.991 23.5066 112.281 23.5426C111.57 23.5787 110.888 23.8308 110.325 24.2653C109.762 24.6998 109.345 25.296 109.129 25.974C108.545 25.6207 107.867 25.4549 107.186 25.4988C106.504 25.5427 105.853 25.7943 105.319 26.2195C104.785 26.6449 104.394 27.2237 104.199 27.878C104.004 28.5321 104.014 29.2304 104.228 29.8786C103.545 29.956 102.902 30.2421 102.387 30.6981C101.872 31.154 101.51 31.7575 101.351 32.4265C101.191 33.0954 101.242 33.7972 101.496 34.4365C101.75 35.0755 102.195 35.6209 102.769 35.9982C102.231 36.4342 101.841 37.0264 101.654 37.6933C101.466 38.3602 101.49 39.0688 101.723 39.7213C101.955 40.374 102.385 40.9383 102.952 41.3365C103.518 41.7348 104.195 41.9471 104.888 41.9444C104.749 42.6099 104.816 43.3019 105.081 43.9278C105.346 44.5539 105.796 45.084 106.37 45.4475C106.944 45.8111 107.616 45.9905 108.295 45.9619C108.974 45.9333 109.629 45.6981 110.17 45.2876C110.385 45.8382 110.746 46.3195 111.214 46.6798C111.682 47.0401 112.24 47.2656 112.827 47.332C112.719 47.713 112.698 48.1134 112.763 48.5039C112.829 48.8945 112.981 49.2655 113.208 49.59C113.435 49.9146 113.731 50.1847 114.075 50.3809C114.419 50.5768 114.803 50.6939 115.198 50.7235C114.985 51.1748 114.902 51.6768 114.959 52.1727C115.017 52.6684 115.212 53.1383 115.523 53.5287C115.834 53.9193 116.248 54.215 116.718 54.3822C117.188 54.5494 117.696 54.5817 118.184 54.475C118.125 54.9712 118.207 55.4739 118.42 55.9259C118.632 56.378 118.968 56.7614 119.387 57.0324C119.807 57.3036 120.294 57.4515 120.794 57.4597C121.293 57.4678 121.785 57.3356 122.213 57.0781C122.304 57.5873 122.541 58.0592 122.895 58.4367C123.248 58.8143 123.704 59.0813 124.206 59.2054C124.708 59.3297 125.235 59.3056 125.724 59.1365C126.213 58.9673 126.642 58.6601 126.96 58.252C127.282 58.7136 127.699 59.1004 128.184 59.3866C128.668 59.6727 129.208 59.8516 129.767 59.9109C130.622 58.3665 131.201 56.6847 131.477 54.9411C131.761 53.1658 131.429 51.3467 130.537 49.786C126.734 48.5354 128.444 44.0694 131.022 45.8048C132.247 46.6469 132.712 46.5932 132.808 45.7792C132.815 45.544 132.886 45.3153 133.013 45.117C133.14 44.9188 133.318 44.7587 133.528 44.6536C133.755 45.1324 134.118 45.5332 134.573 45.8058C135.026 46.0786 135.551 46.2109 136.08 46.1865C136.61 46.1619 137.12 45.9815 137.546 45.6679C137.973 45.3544 138.298 44.9216 138.479 44.424C138.726 44.6851 139.023 44.8939 139.352 45.0382C139.681 45.1826 140.036 45.2593 140.395 45.2641C140.755 45.2688 141.111 45.2015 141.444 45.0659C141.777 44.9303 142.079 44.7295 142.333 44.475C142.964 45.9624 143.444 47.5102 143.762 49.0942C144.145 48.8784 144.47 48.5717 144.706 48.2011C144.944 47.8305 145.086 47.4074 145.121 46.969C145.156 46.5305 145.084 46.0901 144.909 45.6864C144.734 45.2827 144.463 44.9281 144.119 44.6536C144.503 44.4588 144.837 44.1771 145.093 43.8308C145.35 43.4847 145.523 43.0835 145.597 42.659Z" stroke="black" stroke-width="1.00739" stroke-linejoin="round"/>
<path d="M143.271 58.4563L219.45 45.645" stroke="black" stroke-width="1.00739" stroke-linecap="round" stroke-linejoin="round"/>
<path d="M18.2715 79.4342L129.286 60.8042" stroke="black" stroke-width="1.00739" stroke-linecap="round" stroke-linejoin="round"/>
<path d="M135.514 70.4507L158.355 90.9692" stroke="black" stroke-width="1.00739" stroke-linecap="round" stroke-linejoin="round"/>
<path d="M158.458 93.215C158.764 92.0666 158.765 91.2473 158.356 90.9692C157.974 90.7113 157.281 90.9397 156.416 91.5562C155.12 92.5796 153.947 93.7518 152.924 95.0485" stroke="black" stroke-width="1.00739" stroke-linecap="round" stroke-linejoin="round"/>
<path d="M63.008 123.457C54.3821 116.592 53.6675 116.388 46.828 108.91C32.3834 110.952 16.4855 115.775 9.74805 118.965C20.0319 122.851 31.0463 124.419 42.006 123.559L53.7199 134.099" stroke="black" stroke-width="1.00739" stroke-linecap="round" stroke-linejoin="round"/>
<path d="M127.885 70.502L151.951 92.0923" stroke="black" stroke-width="1.00739" stroke-linecap="round" stroke-linejoin="round"/>
<path d="M140.261 109.471L124.693 96.2773L134.121 110.948" stroke="black" stroke-width="1.00739" stroke-linecap="round" stroke-linejoin="round"/>
<path d="M195.818 112.35C196.759 112.554 205.368 115.563 207.175 118.781C208.384 120.924 202.275 116.663 198.319 116.535" stroke="black" stroke-width="1.00739" stroke-linecap="round" stroke-linejoin="round"/>
<path d="M194.975 115.163C197.374 116.03 203.059 118.432 204.545 121.134C205.888 123.587 201.053 119.093 195.255 118.914" stroke="black" stroke-width="1.00739" stroke-linecap="round" stroke-linejoin="round"/>
<path d="M194.312 118.378C200.386 121.926 203.733 125.21 195.486 121.645C191.225 119.803 160.16 118.863 160.16 118.863C157.433 118.581 154.83 117.586 152.611 115.977L140.311 106.636" stroke="black" stroke-width="1.00739" stroke-linecap="round" stroke-linejoin="round"/>
<path d="M150.01 92.6792L162.515 103.781C162.515 103.781 193.854 109.65 196.253 110.335C198.652 111.02 204.397 112.476 206.078 114.393C206.973 115.413 202.049 113.653 199.06 113.5" stroke="black" stroke-width="1.00739" stroke-linecap="round" stroke-linejoin="round"/>
<path d="M152.053 94.3379C152.359 93.1895 152.361 92.3701 151.951 92.0921C151.57 91.8342 150.876 92.0639 150.011 92.679C146.48 95.1921 141.232 102.983 140.135 107.251C139.866 108.299 139.915 109.243 140.263 109.472C140.666 109.74 141.819 109.42 142.68 108.451" stroke="black" stroke-width="1.00739" stroke-linecap="round" stroke-linejoin="round"/>
<path d="M101.268 117.791C107.429 118.051 113.49 116.166 118.417 112.458" stroke="black" stroke-width="1.00739" stroke-linecap="round" stroke-linejoin="round"/>
<path d="M133.908 111.335L136.639 106.409" stroke="black" stroke-width="1.00739" stroke-linecap="round" stroke-linejoin="round"/>
<path d="M135.103 68.0251C133.418 70.4751 130.33 69.4032 126.068 65.2944" stroke="black" stroke-width="1.00739" stroke-linecap="round" stroke-linejoin="round"/>
<path d="M107.768 148.827L127.601 126.749L105.756 162.325" stroke="black" stroke-width="1.00739" stroke-linecap="round" stroke-linejoin="round"/>
<path d="M76.5615 161.483C78.0021 162.776 79.6833 163.774 81.5094 164.417C83.3354 165.061 85.2704 165.339 87.2038 165.234C89.1373 165.131 91.0312 164.646 92.7774 163.81C94.5236 162.974 96.0879 161.801 97.3809 160.36L107.764 148.827L103.659 176.228L86.7133 195.113C90.9651 202.579 97.5185 208.468 105.394 211.903L123.335 191.92C125.991 188.967 127.868 185.397 128.797 181.534C132.703 165.147 131.374 136.209 133.901 111.327C123.744 109.438 119.992 107.141 112.259 101.042C107.263 104.694 96.1102 107.405 84.9027 135.273L68.1908 120.241C60.4809 124.164 54.5047 130.814 51.4238 138.897L76.5615 161.483Z" stroke="black" stroke-width="1.00739" stroke-linecap="round" stroke-linejoin="round"/>
<path d="M136.344 60.1255C135.668 59.8735 135.008 59.5802 134.369 59.2471L135.665 62.0678" stroke="black" stroke-width="1.00739" stroke-linecap="round" stroke-linejoin="round"/>
<path d="M112.26 101.024C113.346 97.6117 114.081 94.0973 114.455 90.5354C115.105 85.0555 116.695 79.7287 119.156 74.7893C121.56 69.7376 127.08 65.0794 129.901 59.7067C130.746 58.2306 131.283 56.5984 131.479 54.9088C131.764 53.1335 131.432 51.3143 130.539 49.7537C126.737 48.5032 128.455 44.0263 131.024 45.7725C132.253 46.6093 132.734 46.5636 132.81 45.747C132.88 45.3175 132.966 44.9089 133.067 44.522M137.404 79.0512C135.524 73.6247 133.963 65.3279 136.342 60.1257C146.005 63.6704 145.187 51.1425 142.355 44.522L137.404 79.0512Z" stroke="black" stroke-width="1.00739" stroke-linecap="round" stroke-linejoin="round"/>
<path d="M92.3613 188.84C96.9772 196.032 103.547 201.759 111.3 205.352" stroke="black" stroke-width="1.00739" stroke-linecap="round" stroke-linejoin="round"/>
<path d="M56.9863 143.822C61.2738 136.032 66.6331 129.633 73.6767 125.192" stroke="black" stroke-width="1.00739" stroke-linecap="round" stroke-linejoin="round"/>
<path d="M89.7545 199.738C84.363 206.319 79.5396 211.485 74.2891 216.964C72.8855 225.258 73.549 244.297 76.2286 253.152C83.3475 241.311 85.9264 233.782 89.5262 221.587L100.449 209.44" stroke="black" stroke-width="1.00739" stroke-linecap="round" stroke-linejoin="round"/>
<path d="M42.5684 124.069C44.9775 120.201 47.9345 116.702 51.3474 113.683" stroke="black" stroke-width="1.00739" stroke-linecap="round" stroke-linejoin="round"/>
<path d="M204.543 113.274C207.325 113.555 212.985 115.289 211.944 114.091C211.188 113.386 210.316 112.817 209.367 112.407C205.767 110.647 202.323 110.084 198.495 109.038L168.811 101.841L156.424 91.5444" stroke="black" stroke-width="1.00739" stroke-linecap="round" stroke-linejoin="round"/>
<path d="M109.61 116.796L86.7181 150.432L64.5918 132.9" stroke="black" stroke-width="1.00739" stroke-linecap="round" stroke-linejoin="round"/>
<path d="M172.184 40.209C172.356 41.2437 172.217 42.306 171.784 43.2617C171.353 44.2172 170.647 45.0233 169.756 45.5777C168.867 46.1322 167.831 46.4102 166.784 46.3767C165.735 46.3431 164.72 45.9995 163.867 45.3891C163.015 44.7789 162.362 43.9294 161.991 42.948C161.622 41.9668 161.55 40.8978 161.788 39.8762C162.025 38.8547 162.561 37.9264 163.325 37.2089C164.09 36.4914 165.051 36.0167 166.085 35.845C167.473 35.6156 168.895 35.9464 170.038 36.7647C171.181 37.583 171.953 38.8218 172.184 40.209Z" stroke="black" stroke-width="1.00739" stroke-linecap="round" stroke-linejoin="round"/>
<path d="M186.63 37.8101C186.802 38.8448 186.662 39.9071 186.23 40.8628C185.798 41.8183 185.092 42.6244 184.201 43.1788C183.312 43.7333 182.277 44.0113 181.229 43.9777C180.18 43.9442 179.166 43.6004 178.313 42.9902C177.46 42.38 176.807 41.5305 176.436 40.5491C176.067 39.5679 175.996 38.4989 176.234 37.4773C176.47 36.4558 177.006 35.5275 177.77 34.81C178.536 34.0924 179.496 33.6178 180.53 33.4461C181.918 33.2167 183.339 33.5474 184.483 34.3658C185.626 35.1841 186.399 36.4229 186.63 37.8101Z" stroke="black" stroke-width="1.00739" stroke-linecap="round" stroke-linejoin="round"/>
<path d="M201.333 35.3601C201.505 36.3948 201.365 37.4571 200.933 38.4128C200.501 39.3683 199.795 40.1744 198.904 40.7288C198.015 41.2833 196.98 41.5612 195.932 41.5278C194.883 41.4942 193.869 41.1505 193.016 40.5402C192.163 39.9299 191.51 39.0805 191.139 38.0991C190.77 37.1179 190.699 36.0489 190.937 35.0273C191.173 34.0057 191.709 33.0775 192.473 32.36C193.239 31.6425 194.199 31.1678 195.233 30.9961C196.621 30.7663 198.043 31.097 199.186 31.9153C200.331 32.7337 201.103 33.9727 201.333 35.3601Z" stroke="black" stroke-width="1.00739" stroke-linecap="round" stroke-linejoin="round"/>
<path d="M49.4344 16.6792L39.6855 30.4092" stroke="black" stroke-width="1.00739" stroke-linecap="round" stroke-linejoin="round"/>
<path d="M51.4252 28.4187L37.7207 18.6699" stroke="black" stroke-width="1.00739" stroke-linecap="round" stroke-linejoin="round"/>
<path d="M10.7181 164.672L10.4118 164.774L19.8289 173.12L7.40039 186.773L14.0612 192.719L26.4897 179.04L35.8799 187.387L42.8994 154.338L10.7181 164.672Z" stroke="black" stroke-width="1.00739" stroke-linecap="round" stroke-linejoin="round"/>
<path d="M25.3457 122.984L38.5848 204.612C39.0579 207.396 40.0749 210.06 41.5778 212.45C43.0808 214.84 45.0401 216.912 47.3438 218.545C49.6475 220.177 52.2505 221.34 55.0039 221.967C57.7574 222.593 60.6072 222.671 63.3907 222.196L74.0049 220.411" stroke="black" stroke-width="1.00739" stroke-linecap="round" stroke-linejoin="round"/>
<path d="M231.831 122.094L239.715 170.695C240.191 173.478 240.113 176.329 239.487 179.082C238.86 181.836 237.696 184.439 236.065 186.742C234.431 189.046 232.36 191.006 229.969 192.509C227.578 194.012 224.916 195.028 222.132 195.501L93.6035 217.116" stroke="black" stroke-width="1.00739" stroke-linecap="round" stroke-linejoin="round"/>
<path d="M101.753 37.5034L34.912 48.733C32.1281 49.2062 29.4647 50.2232 27.0741 51.7261C24.6835 53.229 22.6126 55.1883 20.9795 57.4921C19.3466 59.7958 18.1835 62.3988 17.5571 65.1522C16.9306 67.9056 16.8528 70.7555 17.3283 73.5389L23.8755 113.907" stroke="black" stroke-width="1.00739" stroke-linecap="round" stroke-linejoin="round"/>
<path d="M139.314 31.1926L193.648 22.0642C196.431 21.5887 199.281 21.6665 202.034 22.2929C204.788 22.9194 207.391 24.0824 209.695 25.7154C211.998 27.3484 213.958 29.4193 215.461 31.8099C216.964 34.2005 217.981 36.8639 218.453 39.6478L228.529 101.76" stroke="black" stroke-width="1.00739" stroke-linecap="round" stroke-linejoin="round"/>
<path d="M79.4199 211.554C82.2309 215.415 85.6429 218.802 89.526 221.583" stroke="black" stroke-width="1.00739" stroke-linecap="round" stroke-linejoin="round"/>
<defs>
<linearGradient id="paint0_linear_1640_8478" x1="51.4238" y1="143.086" x2="133.901" y2="143.086" gradientUnits="userSpaceOnUse">
<stop stop-color="#875BF2"/>
<stop offset="1" stop-color="#CC2FE5"/>
</linearGradient>
</defs>
</svg>
