<svg width="270" height="270" viewBox="0 0 270 270" fill="none" xmlns="http://www.w3.org/2000/svg">
<path d="M193.086 184.7C183.106 184.162 165.832 183.789 162.42 183.473C160.665 175.427 157.838 162.686 156.717 156.708C156.736 156.696 156.755 156.684 156.772 156.67C163.698 152.198 169.908 139.957 159.967 122.708C146.72 122.819 134.568 125.792 123.372 132.674C123.653 135.204 123.883 137.351 124.011 138.756C92.1949 153.148 86.0617 157.386 84.8861 164.515C83.521 172.842 90.7772 184.731 112 219.765C120.07 221.648 132.362 217.035 135.204 209.697C131.957 203.137 120.691 180.438 117.137 174.099C126.717 170.602 137.85 166.264 147.033 161.844C143.278 165.457 135.815 173.059 133.108 176.271C137.044 188.282 141.644 202.229 146.627 204.535C152.447 207.225 155.129 208.01 193.06 208.01C197.414 204.106 196.439 190.356 193.086 184.7Z" fill="url(#paint0_linear_1640_8397)"/>
<path d="M73.2349 38.0142C72.1872 39.9308 71.2417 41.7963 70.3728 43.5596C63.4985 57.7426 62.1441 67.1213 62.1683 74.1234C62.1938 77.5733 62.5261 80.4355 62.7063 83.0421V83.0676C63.1918 83.3487 63.6478 83.6298 64.214 83.962C65.2362 82.348 66.0795 82.6587 68.5839 83.8854C72.0339 85.572 72.3661 85.7253 72.6189 88.1531C72.6445 88.4597 72.67 88.7408 72.7212 89.0219C75.1233 87.6675 77.8577 86.3131 80.9754 84.3144C86.8786 80.5067 93.9829 74.2713 102.084 60.7527C103.106 59.0405 104.154 57.2557 105.202 55.3095L73.2349 38.0142ZM83.5592 65.9969L81.9236 73.7656L78.3769 66.6613L70.5059 67.5557L76.1549 61.9592L72.8839 54.7271L79.9371 58.3586L85.7892 53.0432L84.5114 60.8886L91.4113 64.7985L83.5592 65.9969Z" fill="#FEA82F"/>
<path d="M205.351 27.4857C205.326 28.7634 205.326 29.9901 205.351 31.0634C207.063 30.5523 207.856 29.9389 207.983 29.3256C208.217 28.2227 206.072 27.3417 205.351 27.4857Z" fill="#E9E9E9"/>
<path d="M196.585 186.795C195.775 186.775 194.967 186.817 194.164 186.923C196.413 192.494 196.541 201.132 194.702 205.629C197.661 209.591 206.404 215.57 213.204 217.385C212.71 206.703 201.287 191.14 196.585 186.795Z" fill="#E9E9E9"/>
<path d="M190.324 28.0477C189.887 28.0356 188.172 28.3759 188.172 29.5554C188.172 30.1943 188.964 30.9098 190.906 31.3954C191.116 30.2458 190.909 29.0591 190.324 28.0477Z" fill="#E9E9E9"/>
<path d="M161.168 99.3205C161.526 104.61 162.088 110.923 162.088 115.292C164.03 108.469 166.407 100.215 167.787 95.6406L161.168 99.3205Z" fill="#E9E9E9"/>
<path d="M151.021 48.2107C151.021 46.4729 148.772 45.8852 147.571 47.7762C147.469 46.1407 144.811 45.7587 143.508 47.9807C143.226 46.2174 140.237 46.6007 139.189 48.594C138.882 47.0352 136.327 47.904 135.892 50.2295C135.432 52.6828 135.023 54.9061 134.742 56.8994C138.044 55.9286 141.471 55.4464 144.913 55.4683C144.198 58.1771 144.51 61.8315 145.68 59.3527C146.83 56.8738 149.769 58.7393 147.697 61.9848C147.364 62.6567 147.226 63.4096 147.303 64.1561C147.381 64.9024 147.668 65.6116 148.132 66.2014C148.438 60.8604 152.578 53.935 153.856 51.124C155.595 47.3163 152.963 46.2941 151.021 48.2107Z" fill="#E9E9E9"/>
<path d="M130.68 168.933C131.446 171.207 132.264 173.686 133.101 176.267C136.116 172.689 144.83 164.231 147.974 161.394C142.486 164.077 136.478 166.658 130.68 168.933Z" fill="#E9E9E9"/>
<path d="M140.246 71.0572C140.226 72.2225 140.114 73.3846 139.914 74.5327C141.683 73.2862 143.057 71.5594 143.875 69.5562C142.706 70.1501 141.493 70.6519 140.246 71.0572Z" fill="#E9E9E9"/>
<path d="M134.004 211.967C135.221 212.911 136.335 213.982 137.326 215.162C131.397 229.217 118.696 241.049 113.688 244.192C114.188 235.939 115.892 227.803 118.747 220.043C124.497 219.276 130.965 216.363 134.004 211.967Z" fill="#E9E9E9"/>
<path d="M120.485 108.063C117.853 111.232 110.544 119.078 103.695 123.601C109.767 121.64 115.701 119.274 121.456 116.519C121.098 113.504 120.766 110.591 120.485 108.063Z" fill="#E9E9E9"/>
<path d="M76.1981 91.8077C75.6358 91.4755 74.6648 91.8844 73.9492 92.9321C74.5378 93.9889 75.489 94.7968 76.6271 95.2065C77.0414 93.2132 76.7616 92.1399 76.1981 91.8077Z" fill="#E9E9E9"/>
<path d="M69.9865 108.137C68.811 109.466 67.9152 109.852 67.3288 109.67C66.5097 109.417 66.4088 107.881 66.8943 106.271C67.9421 106.885 68.9898 107.498 69.9865 108.137Z" fill="#E9E9E9"/>
<path d="M50.6413 203.151C54.8895 203.151 58.3333 199.706 58.3333 195.459C58.3333 191.21 54.8895 187.767 50.6413 187.767C46.3931 187.767 42.9492 191.21 42.9492 195.459C42.9492 199.706 46.3931 203.151 50.6413 203.151Z" fill="#E9E9E9"/>
<path d="M62.7039 103.844C62.755 101.518 63.8539 99.0394 65.6629 95.6661C65.2867 94.4191 65.1914 93.1042 65.3837 91.8158C65.576 90.5276 66.0512 89.2977 66.7752 88.2148C66.3167 88.9238 65.7828 89.5808 65.1828 90.1745C65.9494 91.7334 64.6972 94.11 62.4739 92.9856L62.7806 93.4711C65.4894 95.0044 63.7006 98.4799 60.8128 97.1026L61.3509 97.5882C64.0086 98.9937 62.3475 102.392 59.4853 101.14C58.2331 100.578 57.2109 100.169 56.3676 99.8114C54.1699 101.575 51.4355 101.984 46.8867 101.345L66.6152 112.027C63.8028 108.827 62.6273 106.425 62.7039 103.844Z" fill="#E9E9E9"/>
<path d="M46.2262 100.996L41.4219 107.283L64.6514 119.881L67.3091 112.419L46.2262 100.996Z" fill="#E9E9E9"/>
<path d="M69.9884 108.137C67.5674 106.553 64.7752 105.147 62.6797 103.793" stroke="black" stroke-width="1.5" stroke-linecap="round" stroke-linejoin="round"/>
<path d="M134.645 57.7172L129.841 7.32275L92.6836 100.496" stroke="black" stroke-width="1.5" stroke-linecap="round" stroke-linejoin="round"/>
<path d="M136.917 81.7902L135.895 70.8271" stroke="black" stroke-width="1.5" stroke-linecap="round" stroke-linejoin="round"/>
<path d="M190.658 184.572L225.592 96.9697L164.234 107.805" stroke="black" stroke-width="1.5" stroke-linecap="round" stroke-linejoin="round"/>
<path d="M154.117 206.856L159.458 262.873L181.359 207.955" stroke="black" stroke-width="1.5" stroke-linecap="round" stroke-linejoin="round"/>
<path d="M84.912 119.969L63.6758 173.226L84.9375 169.469" stroke="black" stroke-width="1.5" stroke-linecap="round" stroke-linejoin="round"/>
<path d="M70.3984 43.6106L57.1098 36.4297C46.4843 56.0559 56.1898 70.9289 62.1952 74.1744" stroke="black" stroke-width="1.5" stroke-linecap="round" stroke-linejoin="round"/>
<path d="M78.3983 66.6869L70.5273 67.5558L76.1494 61.9848L72.8784 54.7527L79.9316 58.3815L85.7837 53.0405L84.5059 60.8604L91.4058 64.7958L83.5604 65.9969L81.976 73.7656L78.3983 66.6869Z" stroke="black" stroke-width="1.5" stroke-linecap="round" stroke-linejoin="round"/>
<path d="M102.175 60.7866L115.375 67.9648C104.739 87.591 86.9851 87.591 81.0039 84.3455" stroke="black" stroke-width="1.5" stroke-linecap="round" stroke-linejoin="round"/>
<path d="M61.205 224.723C69.5312 224.723 76.2811 217.974 76.2811 209.647C76.2811 201.32 69.5312 194.571 61.205 194.571C52.8787 194.571 46.1289 201.32 46.1289 209.647C46.1289 217.974 52.8787 224.723 61.205 224.723Z" stroke="black" stroke-width="1.5" stroke-linecap="round" stroke-linejoin="round"/>
<path d="M225.643 59.9407C228.212 59.9407 230.294 57.8584 230.294 55.2897C230.294 52.721 228.212 50.6387 225.643 50.6387C223.074 50.6387 220.992 52.721 220.992 55.2897C220.992 57.8584 223.074 59.9407 225.643 59.9407Z" stroke="black" stroke-width="1.5" stroke-linecap="round" stroke-linejoin="round"/>
<path d="M45.0211 137.398C46.3337 137.398 47.3978 136.334 47.3978 135.021C47.3978 133.709 46.3337 132.645 45.0211 132.645C43.7086 132.645 42.6445 133.709 42.6445 135.021C42.6445 136.334 43.7086 137.398 45.0211 137.398Z" stroke="black" stroke-width="1.5" stroke-linecap="round" stroke-linejoin="round"/>
<path d="M166.56 20.6626L164.184 30.1691L171.39 28.8913L169.013 38.3978" stroke="black" stroke-width="1.5" stroke-linecap="round" stroke-linejoin="round"/>
<path d="M60.7889 97.0717C63.6806 98.4436 65.4628 94.9802 62.7566 93.4402C60.7391 92.2929 59.2812 91.5733 57.6456 90.7313C57.1583 90.45 56.5813 90.3674 56.0347 90.5008C55.4881 90.6342 55.0139 90.9732 54.711 91.4474C54.4081 91.9215 54.2997 92.4942 54.4084 93.0464C54.517 93.5985 54.8344 94.0872 55.2946 94.4113C56.5965 95.2331 58.1352 95.8127 60.7889 97.0717Z" stroke="black" stroke-width="1.5" stroke-linecap="round" stroke-linejoin="round"/>
<path d="M64.2406 83.9877C63.2184 83.3744 62.48 82.9601 61.4807 82.3737C61.0091 82.0657 60.4363 81.9534 59.8833 82.0606C59.3305 82.1677 58.8411 82.4859 58.5188 82.9478C58.1966 83.4096 58.0666 83.9787 58.1569 84.5347C58.247 85.0906 58.55 85.5895 59.0018 85.9259C60.0948 86.6553 61.2392 87.3044 62.4262 87.8681" stroke="black" stroke-width="1.5" stroke-linecap="round" stroke-linejoin="round"/>
<path d="M59.5102 101.135C62.3468 102.387 64.0065 98.9924 61.3502 97.5828C59.3811 96.5377 57.9218 95.8787 56.3414 95.1295C55.8646 94.8616 55.3024 94.7892 54.7731 94.9275C54.2439 95.0658 53.789 95.404 53.5043 95.8709C53.2194 96.3379 53.1268 96.8971 53.2461 97.431C53.3654 97.9648 53.6872 98.4315 54.1437 98.7328C55.4214 99.4725 56.9036 99.985 59.5102 101.135Z" stroke="black" stroke-width="1.5" stroke-linecap="round" stroke-linejoin="round"/>
<path d="M62.3693 87.9744C61.3215 87.4122 60.3961 86.9885 59.3793 86.4411C58.8914 86.1382 58.3047 86.0369 57.7434 86.1588C57.1821 86.2805 56.6901 86.6158 56.3715 87.0937C56.053 87.5715 55.9328 88.1546 56.0362 88.7195C56.1396 89.2845 56.4588 89.787 56.926 90.121C58.2536 90.9925 59.768 91.618 62.4405 92.9576C64.6679 94.0726 65.916 91.7054 65.1494 90.1465" stroke="black" stroke-width="1.5" stroke-linecap="round" stroke-linejoin="round"/>
<path d="M73.9247 92.9322C74.6658 91.8844 75.6315 91.485 76.1991 91.8078C77.2119 92.3861 77.2966 95.3344 74.1547 101.544C70.8056 108.163 68.4546 110.034 67.3059 109.671C66.5124 109.419 66.386 107.856 66.8715 106.272" stroke="black" stroke-width="1.5" stroke-linecap="round" stroke-linejoin="round"/>
<path d="M76.6274 95.2066C74.8897 94.4911 73.1304 93.2147 72.6408 88.1534C72.4028 85.7324 72.0544 85.5697 68.6058 83.8857C64.5708 81.9153 64.7981 82.2716 61.7571 89.431C61.0093 91.1916 63.7504 93.0087 66.9192 87.8977C64.4404 91.8076 64.9017 95.6987 67.1748 98.1708" stroke="black" stroke-width="1.5" stroke-linecap="round" stroke-linejoin="round"/>
<path d="M200.368 17.7237C200.115 20.9181 196.24 21.0203 196.254 17.9281C196.263 15.6282 196.362 13.9926 196.458 12.1526C196.62 9.08604 200.71 9.1116 200.803 11.6415C200.862 13.1748 200.604 14.7849 200.368 17.7237Z" stroke="black" stroke-width="1.5" stroke-linecap="round" stroke-linejoin="round"/>
<path d="M187.362 15.3752C187.336 14.2508 187.354 13.4302 187.336 12.3569C187.289 9.44366 191.44 9.31185 191.63 11.7436C191.717 12.9858 191.717 14.2325 191.63 15.4747" stroke="black" stroke-width="1.5" stroke-linecap="round" stroke-linejoin="round"/>
<path d="M204.764 18.4649C204.444 21.584 200.688 21.5826 200.803 18.5671C200.889 16.3439 201.029 14.7595 201.161 12.9962C201.383 10.0372 205.352 10.1596 205.352 12.5927C205.352 14.0695 205.056 15.6297 204.764 18.4649Z" stroke="black" stroke-width="1.5" stroke-linecap="round" stroke-linejoin="round"/>
<path d="M191.734 15.4495C191.76 14.2484 191.861 13.2262 191.888 12.0762C191.96 8.95848 196.123 8.90737 196.283 11.4629C196.381 13.0217 196.155 14.6573 196.002 17.6499C196.011 18.0962 195.878 18.5339 195.62 18.898C195.361 19.262 194.992 19.5331 194.567 19.6708C194.143 19.8085 193.685 19.8056 193.262 19.6626C192.839 19.5195 192.474 19.2438 192.22 18.8766" stroke="black" stroke-width="1.5" stroke-linecap="round" stroke-linejoin="round"/>
<path d="M190.303 28.0479C189.025 28.2523 188.207 28.8657 188.207 29.5045C188.207 30.6545 190.686 32.0304 197.611 31.9067C204.971 31.7722 207.759 30.4756 208.012 29.3001C208.194 28.4568 207.118 27.6861 205.508 27.4346" stroke="black" stroke-width="1.5" stroke-linecap="round" stroke-linejoin="round"/>
<path d="M190.94 31.3701C191.17 29.5046 190.93 27.397 186.825 24.7514C184.854 23.4803 184.882 23.0903 185.139 19.2826C185.443 14.7849 185.626 15.1642 193.316 15.5516C195.208 15.6471 195.412 18.8993 189.432 19.5126C194.032 19.0015 197.175 21.097 198.175 24.1892" stroke="black" stroke-width="1.5" stroke-linecap="round" stroke-linejoin="round"/>
<path d="M205.379 31.0376C205.226 25.7733 205.783 17.289 205.379 13.2002" stroke="black" stroke-width="1.5" stroke-linecap="round" stroke-linejoin="round"/>
<path d="M188.207 29.5303C188.258 35.919 188.207 52.2742 187.772 59.9152C185.755 61.244 169.834 69.1957 163.01 72.3605C156.832 75.2266 151.609 74.6335 149.176 70.7384C145.814 65.3584 151.556 56.3106 153.884 51.1243C155.596 47.3166 152.989 46.2944 151.047 48.211C151.047 46.4988 148.798 45.8855 147.597 47.7765C147.47 46.141 144.812 45.759 143.534 47.981C143.227 46.2432 140.263 46.6266 139.215 48.5943C138.909 47.061 136.371 47.9218 135.919 50.2298C131.861 70.8904 134.305 74.3053 143.917 69.5494C143.1 71.5525 141.725 73.2795 139.956 74.5259" stroke="black" stroke-width="1.5" stroke-linecap="round" stroke-linejoin="round"/>
<path d="M208.01 29.3257C208.01 65.3327 208.402 67.1 206.503 70.6481C203.983 75.3556 199.015 78.2891 161.168 99.3208C161.551 104.611 162.088 110.923 162.088 115.293" stroke="black" stroke-width="1.5" stroke-linecap="round" stroke-linejoin="round"/>
<path d="M76.1992 91.8075C84.6324 96.8674 96.081 102.081 97.5121 102.745C103.901 100.138 125.032 90.6023 133.693 84.9076C138.751 81.5828 140.209 74.7112 140.235 71.0312" stroke="black" stroke-width="1.5" stroke-linecap="round" stroke-linejoin="round"/>
<path d="M133.699 84.9291C137.047 88.4557 150.003 86.0051 153.351 73.8638" stroke="black" stroke-width="1.5" stroke-linecap="round" stroke-linejoin="round"/>
<path d="M134.746 56.8993C138.049 55.9334 141.475 55.4514 144.917 55.4682C144.201 58.2026 144.513 61.8825 145.684 59.3526C146.854 56.8226 149.785 58.7729 147.701 61.9847C147.362 62.6553 147.222 63.4092 147.3 64.1566C147.377 64.9042 147.668 65.6138 148.136 66.2013" stroke="black" stroke-width="1.5" stroke-linecap="round" stroke-linejoin="round"/>
<path d="M113.227 175.5C124.777 171.36 143.694 164.366 156.236 157.024C163.343 152.864 170.189 140.413 159.992 122.704C161.909 115.979 165.844 102.107 167.793 95.6411" stroke="black" stroke-width="1.5" stroke-linecap="round" stroke-linejoin="round"/>
<path d="M136.561 133.104C93.7312 152.169 86.2274 156.514 84.8891 164.512C83.7472 171.336 86.6524 178.184 112.003 219.791C119.056 221.708 132.294 217.44 135.207 209.704C127.592 194.236 119.669 178.634 117.14 174.106" stroke="black" stroke-width="1.5" stroke-linecap="round" stroke-linejoin="round"/>
<path d="M130.707 168.933C135.102 181.761 140.597 201.72 146.653 204.531C152.71 207.342 155.061 207.904 193.056 208.006C196.864 205.093 196.991 190.961 193.056 184.674C182.968 184.112 166.044 183.78 162.441 183.448C160.678 175.27 157.868 162.466 156.792 156.641" stroke="black" stroke-width="1.5" stroke-linecap="round" stroke-linejoin="round"/>
<path d="M134.005 211.967C135.814 213.467 137.459 215.155 138.911 217.002C135.845 225.563 123.713 241.764 113.74 247.923C113.152 241.304 115.605 227.914 118.723 220.043" stroke="black" stroke-width="1.5" stroke-linecap="round" stroke-linejoin="round"/>
<path d="M185.14 184.342C188.513 188.124 190.174 201.03 184.629 207.981" stroke="black" stroke-width="1.5" stroke-linecap="round" stroke-linejoin="round"/>
<path d="M107.402 212.223C115.171 213.935 127.443 210.817 131.373 201.95" stroke="black" stroke-width="1.5" stroke-linecap="round" stroke-linejoin="round"/>
<path d="M113.637 244.192C118.594 241.074 131.372 229.217 137.301 215.14" stroke="black" stroke-width="1.5" stroke-linecap="round" stroke-linejoin="round"/>
<path d="M194.16 186.898C195.696 186.719 197.25 186.719 198.786 186.898C203.104 190.395 215.166 204.863 215.32 217.819C208.369 216.878 198.019 210.025 194.697 205.604" stroke="black" stroke-width="1.5" stroke-linecap="round" stroke-linejoin="round"/>
<path d="M196.59 186.795C201.297 191.14 212.69 206.701 213.201 217.385" stroke="black" stroke-width="1.5" stroke-linecap="round" stroke-linejoin="round"/>
<path d="M119.949 102.745C120.614 110.693 123.446 132.236 123.984 138.727" stroke="black" stroke-width="1.5" stroke-linecap="round" stroke-linejoin="round"/>
<path d="M159.995 122.704C145.531 122.806 133.623 126.384 123.375 132.67" stroke="black" stroke-width="1.5" stroke-linecap="round" stroke-linejoin="round"/>
<path d="M122.835 210.204C117.264 199.394 105.713 174.733 103.234 169.571C114.785 163.745 144.148 151.529 149.208 148.386C154.268 145.243 156.261 141.205 150.894 123.266" stroke="black" stroke-width="1.5" stroke-linecap="round" stroke-linejoin="round"/>
<path d="M67.332 109.677C91.5326 124.314 95.4183 125.901 101.474 124.237C108.329 122.199 115.012 119.618 121.458 116.519" stroke="black" stroke-width="1.5" stroke-linecap="round" stroke-linejoin="round"/>
<path d="M103.695 123.598C110.521 119.075 117.853 111.204 120.485 108.063" stroke="black" stroke-width="1.5" stroke-linecap="round" stroke-linejoin="round"/>
<path d="M133.137 176.267C136.152 172.689 144.866 164.256 148.01 161.394" stroke="black" stroke-width="1.5" stroke-linecap="round" stroke-linejoin="round"/>
<path d="M35.9258 64.0039L36.8121 69.014" stroke="black" stroke-width="1.5" stroke-linecap="round" stroke-linejoin="round"/>
<path d="M47.3968 72.0293L42.3867 72.9157" stroke="black" stroke-width="1.5" stroke-linecap="round" stroke-linejoin="round"/>
<path d="M39.3707 83.5023L38.4844 78.4922" stroke="black" stroke-width="1.5" stroke-linecap="round" stroke-linejoin="round"/>
<path d="M27.8984 75.4767L32.9113 74.5903" stroke="black" stroke-width="1.5" stroke-linecap="round" stroke-linejoin="round"/>
<path d="M42.3856 72.9155C41.7635 73.0257 41.1258 73.0121 40.509 72.8754C39.8923 72.7389 39.3085 72.4822 38.791 72.1197C38.2736 71.7573 37.8327 71.2964 37.4937 70.7635C37.1544 70.2305 36.9236 69.636 36.8146 69.0137C36.9257 69.6361 36.9127 70.2742 36.7768 70.8917C36.6407 71.509 36.3842 72.0935 36.0218 72.6115C35.6595 73.1296 35.1984 73.5711 34.6651 73.9105C34.1318 74.25 33.5368 74.481 32.9141 74.59C33.5363 74.4792 34.1742 74.4923 34.7913 74.6284C35.4085 74.7645 35.9926 75.0211 36.5105 75.3835C37.0283 75.7458 37.4694 76.2069 37.8088 76.74C38.148 77.2732 38.3788 77.8681 38.4877 78.4905C38.377 77.8685 38.3901 77.2308 38.5261 76.6137C38.6621 75.9968 38.9184 75.4126 39.2805 74.8948C39.6426 74.377 40.1031 73.9356 40.636 73.596C41.1687 73.2563 41.7632 73.0251 42.3856 72.9155Z" stroke="black" stroke-width="1.5" stroke-linecap="round" stroke-linejoin="round"/>
<path d="M225.617 139.851L226.887 147.036" stroke="black" stroke-width="1.5" stroke-linecap="round" stroke-linejoin="round"/>
<path d="M242.068 151.36L234.883 152.63" stroke="black" stroke-width="1.5" stroke-linecap="round" stroke-linejoin="round"/>
<path d="M230.56 167.811L229.289 160.626" stroke="black" stroke-width="1.5" stroke-linecap="round" stroke-linejoin="round"/>
<path d="M214.109 156.302L221.298 155.032" stroke="black" stroke-width="1.5" stroke-linecap="round" stroke-linejoin="round"/>
<path d="M234.883 152.63C233.99 152.789 233.075 152.77 232.19 152.575C231.305 152.38 230.467 152.011 229.725 151.492C228.981 150.973 228.349 150.311 227.862 149.547C227.375 148.782 227.043 147.929 226.887 147.036C227.045 147.928 227.028 148.842 226.833 149.729C226.638 150.614 226.271 151.452 225.752 152.194C225.232 152.937 224.571 153.57 223.807 154.057C223.043 154.544 222.19 154.875 221.297 155.032C222.189 154.873 223.105 154.892 223.988 155.087C224.873 155.282 225.711 155.651 226.454 156.17C227.196 156.689 227.83 157.351 228.315 158.115C228.802 158.88 229.133 159.733 229.289 160.626C229.13 159.733 229.149 158.818 229.344 157.933C229.539 157.048 229.908 156.21 230.427 155.468C230.946 154.724 231.608 154.092 232.372 153.605C233.137 153.118 233.99 152.786 234.883 152.63Z" stroke="black" stroke-width="1.5" stroke-linecap="round" stroke-linejoin="round"/>
<path d="M73.2349 38.0142C72.1872 39.9308 71.2417 41.7963 70.3728 43.5596C63.4985 57.7426 62.1441 67.1213 62.1683 74.1234C62.1938 77.5733 62.5261 80.4355 62.7063 83.0421V83.0676C63.1918 83.3487 63.6478 83.6298 64.214 83.962C65.2362 82.348 66.0795 82.6587 68.5839 83.8854C72.0339 85.572 72.3661 85.7253 72.6189 88.1531C72.6445 88.4597 72.67 88.7408 72.7212 89.0219C75.1233 87.6675 77.8577 86.3131 80.9754 84.3144C86.8786 80.5067 93.9829 74.2713 102.084 60.7527C103.106 59.0405 104.154 57.2557 105.202 55.3095L73.2349 38.0142ZM83.5592 65.9969L81.9236 73.7656L78.3769 66.6613L70.5059 67.5557L76.1549 61.9592L72.8839 54.7271L79.9371 58.3586L85.7892 53.0432L84.5114 60.8886L91.4113 64.7985L83.5592 65.9969Z" stroke="black" stroke-width="1.5" stroke-linejoin="round"/>
<path d="M62.7039 103.844C62.755 101.518 63.8539 99.0394 65.6629 95.6661C65.2867 94.4191 65.1914 93.1042 65.3837 91.8158C65.576 90.5276 66.0512 89.2977 66.7752 88.2148C66.3167 88.9238 65.7828 89.5808 65.1828 90.1745C65.9494 91.7334 64.6972 94.11 62.4739 92.9856L62.7806 93.4711C65.4894 95.0044 63.7006 98.4799 60.8128 97.1026L61.3509 97.5882C64.0086 98.9937 62.3475 102.392 59.4853 101.14C58.2331 100.578 57.2109 100.169 56.3676 99.8114C54.1699 101.575 51.4355 101.984 46.8867 101.345L66.6152 112.027C63.8028 108.827 62.6273 106.425 62.7039 103.844Z" stroke="black" stroke-width="1.5" stroke-linejoin="round"/>
<path d="M46.2497 100.996L41.4453 107.283L64.6748 119.881L67.3325 112.419L46.2497 100.996Z" stroke="black" stroke-width="1.5" stroke-linejoin="round"/>
<defs>
<linearGradient id="paint0_linear_1640_8397" x1="84.7266" y1="159.655" x2="195.974" y2="159.655" gradientUnits="userSpaceOnUse">
<stop stop-color="#875BF2"/>
<stop offset="1" stop-color="#CC2FE5"/>
</linearGradient>
</defs>
</svg>
