<svg width="173" height="38" viewBox="0 0 173 38" fill="none" xmlns="http://www.w3.org/2000/svg">
<path d="M31.2677 19.0021C31.2677 22.8805 24.2681 26.0244 15.6338 26.0244C6.99944 26.0244 0 22.8805 0 19.0021C0 15.1238 6.99944 11.9799 15.6338 11.9799C24.2681 11.9799 31.2677 15.1238 31.2677 19.0021Z" fill="#5448C8"/>
<path d="M15.2779 9.6469L15.6419 9.65387L15.6749 7.97251L17.3389 7.45497L15.0027 6.74081L15.7059 6.36978L15.7408 4.58251L15.3768 4.57489L15.3457 6.1478L14.0508 6.83088L16.1023 7.45814L15.3159 7.70233L15.2779 9.6469" fill="#5448C8"/>
<path d="M14.7848 3.77392C14.776 4.20965 15.1228 4.57053 15.5585 4.57877C15.9942 4.58702 16.355 4.24073 16.3633 3.805C16.3721 3.36865 16.0253 3.0084 15.5896 3.00015C15.1533 2.99191 14.7931 3.3382 14.7848 3.77392Z" fill="#5448C8"/>
<path d="M1.82541 22.2976C2.10273 22.5316 2.40865 22.7574 2.74108 22.975C1.93112 20.6448 1.5803 18.0577 1.66516 15.8455C1.40971 16.0732 1.18104 16.3079 0.980957 16.5489C0.988186 18.3729 1.26475 20.3867 1.82541 22.2976" fill="white"/>
<path d="M30.2826 16.5438C30.0816 16.3022 29.8518 16.0669 29.5952 15.8392C29.7263 18.0717 29.2788 20.7038 28.3862 23.0651C28.7324 22.8463 29.0513 22.6179 29.3409 22.382C29.9662 20.4342 30.292 18.3863 30.2826 16.5438" fill="white"/>
<path d="M19.8831 28.9489C16.9874 28.5467 14.0495 28.4852 11.13 28.7687C4.41541 29.4214 2.02595 19.363 2.98341 14.3005C3.47159 11.7191 6.34815 9.86908 8.77699 9.2951C13.1788 8.25368 17.8813 8.18772 22.3058 9.11687C24.6799 9.62236 27.0282 11.2333 27.9527 13.5483C29.8835 18.3844 26.4421 29.859 19.8831 28.9489Z" fill="#5448C8"/>
<path d="M20.614 28.9996H20.6139H20.614ZM20.6161 28.9996C23.3858 28.9984 25.5407 26.7563 26.8896 23.8756L26.8901 23.875C25.541 26.7563 23.386 28.999 20.6161 28.9996ZM19.9067 28.9521C19.9055 28.9521 19.9042 28.9514 19.9029 28.9514C19.9042 28.9514 19.9055 28.9521 19.9067 28.9521ZM19.8829 28.9489C19.8565 28.9451 19.8303 28.9413 19.804 28.9381C19.8303 28.9413 19.8565 28.9451 19.8829 28.9489ZM19.8009 28.9375C19.7785 28.9343 19.7556 28.9311 19.7332 28.9286C19.7556 28.9311 19.7785 28.9343 19.8009 28.9375ZM10.647 28.7979C10.805 28.7941 10.9667 28.7846 11.1298 28.7688C12.3326 28.6521 13.5383 28.5937 14.7432 28.5937C13.5386 28.5937 12.3325 28.6521 11.1299 28.7688C10.9663 28.7846 10.8054 28.7941 10.647 28.7979ZM28.3278 14.9024H28.3277C28.2423 14.4242 28.1221 13.9809 27.9656 13.5813C28.1221 13.9809 28.2423 14.4242 28.3278 14.9024ZM27.9616 13.5712C27.9586 13.5636 27.9555 13.5559 27.9525 13.5483C27.9555 13.5559 27.9586 13.5636 27.9616 13.5712ZM27.9525 13.5483C27.79 13.1412 27.5835 12.7562 27.3407 12.3953C27.5835 12.7562 27.79 13.1412 27.9525 13.5483ZM27.3394 12.3934C27.3371 12.3896 27.3348 12.3864 27.3325 12.3832C27.3349 12.3864 27.3371 12.3896 27.3394 12.3934ZM27.3308 12.3807C27.3287 12.3775 27.3267 12.3744 27.3246 12.3712C27.3267 12.3744 27.3287 12.3775 27.3308 12.3807ZM27.3204 12.3655C27.3191 12.3629 27.318 12.3617 27.3166 12.3598C27.3179 12.3617 27.3192 12.3636 27.3204 12.3655ZM27.3115 12.3522C27.3105 12.3509 27.3095 12.349 27.3084 12.3477C27.3095 12.349 27.3105 12.3509 27.3115 12.3522ZM27.3032 12.3401C27.3022 12.3388 27.3013 12.3369 27.3003 12.3357C27.3013 12.3369 27.3022 12.3388 27.3032 12.3401ZM27.294 12.3268C27.2935 12.3255 27.2929 12.3249 27.2923 12.3243C27.2928 12.3249 27.2935 12.3255 27.294 12.3268ZM27.2853 12.3141C27.2848 12.3135 27.2845 12.3128 27.2841 12.3122C27.2845 12.3128 27.2849 12.3135 27.2853 12.3141ZM27.2767 12.3014C27.2765 12.3014 27.2762 12.3008 27.276 12.3008C27.2762 12.3008 27.2765 12.3014 27.2767 12.3014ZM27.2685 12.29C27.2682 12.2894 27.268 12.2894 27.2677 12.2887C27.268 12.2894 27.2682 12.2894 27.2685 12.29ZM27.2599 12.278C27.2598 12.2773 27.2596 12.2773 27.2595 12.2773C27.2597 12.2773 27.2598 12.2773 27.2599 12.278ZM27.2514 12.2659C27.2513 12.2659 27.2514 12.2659 27.2513 12.2653C27.2513 12.2659 27.2514 12.2659 27.2514 12.2659Z" fill="#D5DEE2"/>
<path d="M26.8896 23.8756C28.2413 20.9886 28.7849 17.459 28.3278 14.9024H28.3279C28.785 17.4597 28.2422 20.9879 26.8902 23.875L26.8896 23.8756Z" fill="#D5DEE2"/>
<path d="M26.8896 23.8756C28.2413 20.9886 28.7849 17.459 28.3278 14.9024H28.3279C28.785 17.4597 28.2422 20.9879 26.8902 23.875L26.8896 23.8756Z" fill="#5448C8"/>
<path d="M22.0487 24.2308C20.9299 24.6659 19.732 24.9322 18.6287 25.0832C15.1163 25.5646 10.8985 25.3128 7.82015 23.405C6.43774 22.5488 5.36404 21.2689 5.1041 19.6281C5.08323 19.4956 5.06231 19.3636 5.04144 19.2317C4.54464 16.0954 6.83599 13.2166 10.0015 12.9705C13.8192 12.6737 17.6542 12.6737 21.4718 12.9705C24.6374 13.2166 26.9287 16.0954 26.432 19.2317C26.4124 19.356 26.3927 19.4803 26.3729 19.6053C25.9959 21.9862 24.1635 23.4088 22.0487 24.2308" fill="white"/>
<path d="M14.7129 21.0018C15.1032 21.4927 16.144 22.1799 17.1848 21.0018" stroke="#5448C8" stroke-linecap="round"/>
<path d="M11.8379 18.1174C11.8379 18.6165 11.433 19.0212 10.9336 19.0212C10.4342 19.0212 10.0293 18.6165 10.0293 18.1174C10.0293 17.6176 10.4342 17.213 10.9336 17.213C11.433 17.213 11.8379 17.6176 11.8379 18.1174Z" fill="#5448C8"/>
<path d="M19.1245 18.0915C19.4326 17.6007 20.2543 16.9134 21.076 18.0915" stroke="#5448C8" stroke-linecap="round"/>
<path d="M40.36 27L35.34 12.9H38.52L41.76 22.54L45.18 12.9H47.42L50.74 22.7L54.1 12.9H57.1L52.04 27H49.52L46.22 17.64L42.88 27H40.36ZM57.2305 27V17.18H60.1905V18.88C60.6571 17.7333 61.6571 17.1 63.1905 16.98L64.0705 16.92L64.2505 19.46L62.5505 19.64C61.0571 19.7867 60.3105 20.5467 60.3105 21.92V27H57.2305ZM65.1927 15.28V12.46H68.4527V15.28H65.1927ZM65.3127 27V17.18H68.3327V27H65.3127ZM75.3242 27.22C72.5642 27.22 71.1842 25.88 71.1842 23.2V19.44H69.3242V17.18H71.1842V14.3H74.2042V17.18H77.1042V19.44H74.2042V23.08C74.2042 23.64 74.3309 24.06 74.5842 24.34C74.8509 24.62 75.2709 24.76 75.8442 24.76C76.0176 24.76 76.1976 24.74 76.3842 24.7C76.5842 24.66 76.7976 24.6067 77.0242 24.54L77.4642 26.74C77.1842 26.8867 76.8509 27 76.4642 27.08C76.0776 27.1733 75.6976 27.22 75.3242 27.22ZM78.3102 15.28V12.46H81.5702V15.28H78.3102ZM78.4302 27V17.18H81.4502V27H78.4302ZM83.6217 27V17.18H86.5817V18.62C86.9151 18.0867 87.3617 17.68 87.9217 17.4C88.4817 17.12 89.1084 16.98 89.8017 16.98C90.9617 16.98 91.8284 17.32 92.4017 18C92.9751 18.6667 93.2617 19.7 93.2617 21.1V27H90.2417V21.24C90.2417 20.56 90.1151 20.0733 89.8617 19.78C89.6084 19.4733 89.2351 19.32 88.7417 19.32C88.1017 19.32 87.5884 19.52 87.2017 19.92C86.8284 20.32 86.6417 20.8533 86.6417 21.52V27H83.6217ZM100.076 30.82C99.1296 30.82 98.2429 30.72 97.4163 30.52C96.6029 30.32 95.8896 30.0067 95.2763 29.58L96.0963 27.52C96.6296 27.8533 97.2296 28.1067 97.8963 28.28C98.5763 28.4667 99.2163 28.56 99.8163 28.56C101.523 28.56 102.376 27.7733 102.376 26.2V25.08C102.11 25.5867 101.69 25.9933 101.116 26.3C100.543 26.6067 99.9163 26.76 99.2363 26.76C98.3563 26.76 97.5896 26.56 96.9363 26.16C96.2829 25.7467 95.7763 25.1733 95.4163 24.44C95.0563 23.7067 94.8763 22.8467 94.8763 21.86C94.8763 20.8867 95.0563 20.0333 95.4163 19.3C95.7763 18.5667 96.2829 18 96.9363 17.6C97.5896 17.1867 98.3563 16.98 99.2363 16.98C99.9429 16.98 100.576 17.1333 101.136 17.44C101.696 17.7467 102.11 18.1533 102.376 18.66V17.18H105.316V25.86C105.316 27.5133 104.87 28.7533 103.976 29.58C103.083 30.4067 101.783 30.82 100.076 30.82ZM100.136 24.5C100.803 24.5 101.336 24.2667 101.736 23.8C102.15 23.3333 102.356 22.6867 102.356 21.86C102.356 21.0333 102.15 20.3933 101.736 19.94C101.336 19.4733 100.803 19.24 100.136 19.24C99.4563 19.24 98.9163 19.4733 98.5163 19.94C98.1163 20.3933 97.9163 21.0333 97.9163 21.86C97.9163 22.6867 98.1163 23.3333 98.5163 23.8C98.9163 24.2667 99.4563 24.5 100.136 24.5ZM107.761 27V12.9H110.861V18.56H117.421V12.9H120.521V27H117.421V21.14H110.861V27H107.761ZM128.046 27.22C126.886 27.22 125.886 27.0133 125.046 26.6C124.22 26.1733 123.58 25.58 123.126 24.82C122.686 24.0467 122.466 23.14 122.466 22.1C122.466 21.0867 122.68 20.2 123.106 19.44C123.546 18.6667 124.14 18.0667 124.886 17.64C125.646 17.2 126.52 16.98 127.506 16.98C128.933 16.98 130.066 17.4333 130.906 18.34C131.746 19.2333 132.166 20.4467 132.166 21.98V22.74H125.346C125.453 23.5133 125.733 24.08 126.186 24.44C126.653 24.7867 127.293 24.96 128.106 24.96C128.64 24.96 129.18 24.88 129.726 24.72C130.273 24.56 130.766 24.3133 131.206 23.98L132.006 26C131.513 26.3733 130.906 26.6733 130.186 26.9C129.48 27.1133 128.766 27.22 128.046 27.22ZM127.626 18.98C126.986 18.98 126.466 19.1733 126.066 19.56C125.68 19.9467 125.44 20.4867 125.346 21.18H129.666C129.586 19.7133 128.906 18.98 127.626 18.98ZM133.763 27V17.18H136.723V18.88C137.19 17.7333 138.19 17.1 139.723 16.98L140.603 16.92L140.783 19.46L139.083 19.64C137.59 19.7867 136.843 20.5467 136.843 21.92V27H133.763ZM146.389 27.22C145.336 27.22 144.416 27.0133 143.629 26.6C142.856 26.1733 142.256 25.58 141.829 24.82C141.403 24.0467 141.189 23.1333 141.189 22.08C141.189 21.04 141.403 20.14 141.829 19.38C142.256 18.6067 142.856 18.0133 143.629 17.6C144.416 17.1867 145.336 16.98 146.389 16.98C147.443 16.98 148.356 17.1867 149.129 17.6C149.916 18.0133 150.523 18.6067 150.949 19.38C151.389 20.14 151.609 21.04 151.609 22.08C151.609 23.1333 151.389 24.0467 150.949 24.82C150.523 25.58 149.916 26.1733 149.129 26.6C148.356 27.0133 147.443 27.22 146.389 27.22ZM146.389 24.96C147.029 24.96 147.549 24.7267 147.949 24.26C148.363 23.7933 148.569 23.0667 148.569 22.08C148.569 21.1067 148.363 20.3933 147.949 19.94C147.549 19.4733 147.029 19.24 146.389 19.24C145.749 19.24 145.229 19.4733 144.829 19.94C144.429 20.3933 144.229 21.1067 144.229 22.08C144.229 23.0667 144.429 23.7933 144.829 24.26C145.229 24.7267 145.749 24.96 146.389 24.96ZM152.814 27V23.8H156.054V27H152.814Z" fill="url(#paint0_linear_322_306)"/>
<defs>
<linearGradient id="paint0_linear_322_306" x1="35" y1="14.4032" x2="173" y2="14.4032" gradientUnits="userSpaceOnUse">
<stop stop-color="#875BF2"/>
<stop offset="1" stop-color="#CC2FE5"/>
</linearGradient>
</defs>
</svg>
